<svg width="335" height="77" viewBox="0 0 335 77" fill="none" xmlns="http://www.w3.org/2000/svg">
<rect x="0.5" y="0.5" width="334" height="76" rx="11.5" fill="black"/>
<rect x="0.5" y="0.5" width="334" height="76" rx="11.5" stroke="white"/>
<path d="M275.913 3.66602H59.0866C51.8591 3.66602 46 9.52495 46 16.7525V60.2457C46 67.4732 51.8591 73.3321 59.0866 73.3321H275.913C283.141 73.3321 289 67.4732 289 60.2457V16.7525C289 9.52495 283.141 3.66602 275.913 3.66602Z" fill="black"/>
<path d="M92.9618 51.1815L71.2428 63.653C70.4955 64.0844 69.6632 64.3478 68.8038 64.4246C67.9443 64.5015 67.0785 64.3901 66.2666 64.0982C65.4546 63.8063 64.716 63.3409 64.1023 62.7344C63.4885 62.1279 63.0144 61.3949 62.7129 60.5865L82.524 40.7754L92.9618 51.1815Z" fill="#F9F9F9"/>
<path d="M80.9948 38.5104L61.1837 58.3214C60.9467 57.6614 60.8266 56.9652 60.8289 56.2639V20.7883C60.8279 20.073 60.9533 19.3631 61.1994 18.6914L80.9948 38.5104Z" fill="#F9F9F9"/>
<path d="M92.9539 26.2658L82.5398 36.6719L62.7129 16.8687C63.0179 16.0679 63.4926 15.3425 64.1045 14.7426C64.7164 14.1426 65.451 13.6821 66.2578 13.393C67.0645 13.1038 67.9243 12.9928 68.778 13.0675C69.6317 13.1422 70.4591 13.4008 71.2034 13.8256L92.9539 26.2658Z" fill="#F9F9F9"/>
<path d="M103.967 43.9739L94.7669 49.2558L84.345 38.8339L94.7512 28.4277L103.967 33.7017C104.871 34.2202 105.622 34.9682 106.145 35.8701C106.667 36.7719 106.942 37.7957 106.942 38.8379C106.942 39.8802 106.667 40.9039 106.145 41.8058C105.622 42.7076 104.871 43.4555 103.967 43.9739Z" fill="#F9F9F9"/>
<path d="M131.835 47.0871H137.527C137.444 47.8926 137.201 48.6735 136.812 49.384C136.424 50.0946 135.898 50.7207 135.265 51.226C134.001 52.3351 132.374 52.9437 130.692 52.9368C128.631 52.8958 126.66 52.0793 125.174 50.6505C124.284 49.864 123.577 48.8914 123.104 47.8016C122.632 46.7117 122.404 45.5312 122.438 44.3437C122.405 43.2049 122.607 42.0716 123.03 41.0138C123.453 39.9561 124.089 38.9966 124.898 38.1948C125.682 37.3809 126.626 36.7385 127.671 36.3084C128.716 35.8782 129.839 35.6695 130.968 35.6956C133.664 35.6956 135.945 36.9411 137.811 39.4323L140.271 37.0673C139.06 35.6144 137.58 34.4097 135.911 33.5197C134.347 32.7889 132.64 32.4147 130.913 32.424C128.566 32.4177 126.27 33.1059 124.313 34.4018C122.356 35.6977 120.826 37.5434 119.916 39.7068C119.006 41.8701 118.756 44.2543 119.198 46.5594C119.64 48.8644 120.753 50.9873 122.399 52.6608C123.453 53.7725 124.725 54.6539 126.136 55.2495C127.547 55.8451 129.066 56.1422 130.598 56.1217C132.127 56.1609 133.645 55.8599 135.044 55.241C136.443 54.6221 137.687 53.7005 138.686 52.5426C139.582 51.5501 140.261 50.3822 140.681 49.1132C141.106 47.6351 141.31 46.1023 141.288 44.5645V43.7761H131.828L131.835 47.0871Z" fill="#F9F9F9"/>
<path d="M150.827 40.9391C149.82 40.9182 148.819 41.1009 147.884 41.4761C146.95 41.8513 146.1 42.4114 145.387 43.1228C144.668 43.8044 144.098 44.6279 143.714 45.5412C143.33 46.4545 143.14 47.4377 143.156 48.4284C143.125 49.4492 143.303 50.4655 143.68 51.4147C144.057 52.3639 144.624 53.2258 145.348 53.9468C146.051 54.6695 146.895 55.2392 147.829 55.6203C148.762 56.0015 149.764 56.1859 150.772 56.1619C151.789 56.1861 152.802 56.0069 153.749 55.6346C154.697 55.2623 155.561 54.7045 156.29 53.994C157.715 52.5498 158.513 50.6027 158.513 48.5741C158.513 46.5455 157.715 44.5985 156.29 43.1542C155.576 42.4361 154.723 41.8697 153.785 41.489C152.846 41.1083 151.84 40.9214 150.827 40.9391ZM153.98 51.9207C153.144 52.7294 152.026 53.1816 150.862 53.1816C149.699 53.1816 148.581 52.7294 147.744 51.9207C146.933 50.9745 146.518 49.7517 146.585 48.5071C146.535 47.3013 146.96 46.124 147.768 45.2277C148.595 44.4093 149.711 43.9501 150.874 43.9501C152.037 43.9501 153.154 44.4093 153.98 45.2277C154.735 46.1827 155.146 47.3645 155.146 48.582C155.146 49.7995 154.735 50.9815 153.98 51.9365V51.9207Z" fill="#F9F9F9"/>
<path d="M168.075 40.9391C167.068 40.9182 166.067 41.1009 165.133 41.4761C164.198 41.8513 163.349 42.4114 162.636 43.1228C161.918 43.8055 161.349 44.6293 160.965 45.5424C160.582 46.4554 160.391 47.438 160.405 48.4284C160.373 49.4492 160.551 50.4655 160.928 51.4147C161.305 52.3639 161.873 53.2258 162.596 53.9468C163.299 54.6695 164.144 55.2392 165.077 55.6203C166.01 56.0015 167.012 56.1859 168.02 56.1619C169.038 56.1861 170.05 56.0069 170.998 55.6346C171.946 55.2623 172.809 54.7045 173.539 53.994C174.963 52.5498 175.762 50.6027 175.762 48.5741C175.762 46.5455 174.963 44.5985 173.539 43.1542C172.824 42.4361 171.972 41.8697 171.033 41.489C170.094 41.1083 169.088 40.9214 168.075 40.9391ZM171.229 51.9207C170.392 52.7294 169.274 53.1816 168.111 53.1816C166.947 53.1816 165.829 52.7294 164.993 51.9207C164.181 50.9745 163.766 49.7517 163.834 48.5071C163.784 47.3013 164.208 46.124 165.017 45.2277C165.843 44.4093 166.959 43.9501 168.123 43.9501C169.286 43.9501 170.402 44.4093 171.229 45.2277C171.984 46.1827 172.395 47.3645 172.395 48.582C172.395 49.7995 171.984 50.9815 171.229 51.9365V51.9207Z" fill="#F9F9F9"/>
<path d="M188.936 42.9654C188.378 42.314 187.683 41.7943 186.901 41.444C186.118 41.0936 185.268 40.9214 184.41 40.9395C183.45 40.9149 182.498 41.116 181.63 41.5267C180.762 41.9375 180.002 42.5465 179.412 43.3046C178.223 44.8309 177.602 46.7233 177.654 48.6575C177.588 50.6283 178.263 52.5521 179.546 54.0496C180.131 54.7155 180.849 55.2509 181.654 55.6207C182.458 55.9906 183.332 56.1867 184.218 56.1964C185.104 56.2061 185.982 56.029 186.795 55.6768C187.607 55.3245 188.337 54.8052 188.936 54.1522V56.1624C188.936 59.1476 187.719 60.6403 185.286 60.6403C184.711 60.6766 184.137 60.5736 183.612 60.3402C183.086 60.1069 182.624 59.7502 182.266 59.3001C181.931 58.8101 181.715 58.2485 181.635 57.6603H178.293C178.349 58.5067 178.574 59.3332 178.955 60.0914C179.335 60.8495 179.863 61.5239 180.508 62.075C181.844 63.1523 183.523 63.712 185.238 63.6516C186.244 63.702 187.248 63.5264 188.178 63.1376C189.107 62.7488 189.937 62.1568 190.607 61.405C191.302 60.6095 191.78 59.6483 191.994 58.6142C192.082 58.161 192.143 57.703 192.176 57.2425C192.223 56.7301 192.247 56.1309 192.247 55.4529V41.3887H188.92L188.936 42.9654ZM188.06 51.7872C187.69 52.2212 187.231 52.5698 186.713 52.8088C186.195 53.0478 185.631 53.1716 185.061 53.1716C184.49 53.1716 183.927 53.0478 183.409 52.8088C182.891 52.5698 182.431 52.2212 182.061 51.7872C181.419 50.83 181.076 49.7035 181.076 48.551C181.076 47.3985 181.419 46.2719 182.061 45.3147C182.41 44.8586 182.864 44.4932 183.384 44.249C183.904 44.0048 184.475 43.8892 185.049 43.9116C185.599 43.8959 186.145 44.003 186.649 44.2253C187.152 44.4476 187.599 44.7794 187.958 45.1965C188.743 46.1313 189.145 47.328 189.085 48.547C189.14 49.7146 188.777 50.8635 188.06 51.7872Z" fill="#F9F9F9"/>
<path d="M197.481 32.4629H194.154V55.727H197.481V32.4629Z" fill="#F9F9F9"/>
<path d="M208.667 52.5859C208.063 52.9985 207.341 53.2058 206.61 53.1772C206.127 53.1958 205.646 53.1134 205.196 52.9356C204.747 52.7578 204.34 52.4884 204 52.1444C203.288 51.3732 202.877 50.3714 202.842 49.3221H213.161V48.5337C213.281 46.5097 212.624 44.5163 211.324 42.96C210.685 42.2776 209.904 41.7429 209.037 41.393C208.17 41.0431 207.236 40.8865 206.302 40.9341C205.36 40.8947 204.42 41.0604 203.547 41.4197C202.675 41.7791 201.891 42.3234 201.249 43.0153C199.945 44.5503 199.269 46.5215 199.357 48.5337C199.263 50.5566 199.961 52.5365 201.304 54.0521C201.971 54.7433 202.776 55.285 203.668 55.6411C204.56 55.9972 205.517 56.1597 206.476 56.1177C207.179 56.1233 207.881 56.0438 208.565 55.8812C209.2 55.7168 209.805 55.4506 210.355 55.0928C210.936 54.7346 211.466 54.2996 211.931 53.7998C212.452 53.2146 212.911 52.5781 213.303 51.9L210.496 50.3233C210.023 51.1779 209.404 51.9436 208.667 52.5859ZM203.535 45.4908C203.752 45.172 204.018 44.8899 204.324 44.6551C204.616 44.4275 204.944 44.2491 205.293 44.127C205.658 43.9992 206.042 43.935 206.429 43.9376C207.219 43.8859 208.001 44.1301 208.621 44.6226C209.242 45.115 209.658 45.8206 209.787 46.6023H203.039C203.147 46.2088 203.315 45.8341 203.535 45.4908Z" fill="#F9F9F9"/>
<path d="M229.913 33.3069C228.489 33.0004 227.033 32.8681 225.577 32.9128H221.636V55.7356H225.112V46.4646H226.689C228.737 46.5743 230.753 45.9228 232.349 44.6356C233.044 44.0142 233.593 43.2463 233.955 42.3876C234.318 41.5288 234.486 40.6003 234.446 39.669C234.474 38.7688 234.313 37.873 233.975 37.0383C233.637 36.2036 233.129 35.4484 232.483 34.8207C231.773 34.1014 230.887 33.5796 229.913 33.3069ZM226.405 43.2402H225.112V36.0583H226.248C229.511 36.0583 231.143 37.2357 231.143 39.5902C231.148 42.0236 229.569 43.2402 226.405 43.2402Z" fill="#F9F9F9"/>
<path d="M239.437 32.9121H236.11V55.7349H239.437V32.9121Z" fill="#F9F9F9"/>
<path d="M252.366 43.0042C251.8 42.3641 251.106 41.8498 250.33 41.4941C249.553 41.1383 248.711 40.9492 247.856 40.9388C246.939 40.92 246.029 41.1038 245.191 41.4771C244.353 41.8505 243.608 42.4043 243.008 43.0989C241.702 44.5853 241.011 46.5134 241.077 48.491C241.004 50.5078 241.694 52.4779 243.008 54.0095C243.589 54.6683 244.3 55.2002 245.097 55.5717C245.893 55.9433 246.757 56.1466 247.635 56.1688C248.514 56.191 249.387 56.0317 250.201 55.7009C251.015 55.37 251.752 54.8747 252.366 54.246V55.7596H255.708V41.3567H252.366V43.0042ZM251.436 51.9125C251.063 52.3321 250.601 52.6635 250.084 52.883C249.568 53.1024 249.009 53.2047 248.448 53.1819C247.902 53.1935 247.361 53.0808 246.865 52.8527C246.37 52.6247 245.932 52.287 245.586 51.8652C244.817 50.9166 244.421 49.7191 244.474 48.4989C244.438 47.3107 244.842 46.1512 245.61 45.2432C245.962 44.8279 246.402 44.4959 246.899 44.271C247.395 44.0461 247.935 43.9338 248.479 43.9423C249.037 43.9249 249.592 44.032 250.103 44.2556C250.614 44.4792 251.07 44.8139 251.436 45.2353C252.171 46.1927 252.57 47.3663 252.57 48.5738C252.57 49.7813 252.171 50.9551 251.436 51.9125Z" fill="#F9F9F9"/>
<path d="M269.717 41.332L265.61 49.6097L261.203 41.332H257.34L263.82 53.0546L258.199 63.5634H261.999L273.47 41.332H269.717Z" fill="#F9F9F9"/>
<path d="M125.489 19.1703H130.266V19.5566C130.278 20.3349 130.174 21.1106 129.959 21.8585C129.747 22.5028 129.403 23.0962 128.95 23.6009C128.443 24.187 127.812 24.6534 127.103 24.9669C126.395 25.2804 125.625 25.433 124.85 25.414C124.073 25.4244 123.301 25.2737 122.585 24.9711C121.869 24.6685 121.223 24.2207 120.688 23.656C119.706 22.6454 119.108 21.323 118.998 19.9179C118.888 18.5128 119.273 17.1134 120.086 15.9623C120.899 14.8112 122.09 13.981 123.451 13.6152C124.812 13.2493 126.258 13.3712 127.539 13.9595C128.389 14.4017 129.141 15.0132 129.746 15.7567L128.508 16.9471C128.13 16.3711 127.615 15.8966 127.011 15.5654C126.406 15.2342 125.729 15.0563 125.04 15.0473C124.466 15.0341 123.896 15.14 123.365 15.3585C122.835 15.577 122.355 15.9033 121.957 16.3166C121.544 16.728 121.219 17.2204 121.005 17.763C120.791 18.3057 120.691 18.8869 120.712 19.47C120.713 20.5968 121.15 21.6791 121.932 22.4904C122.714 23.3017 123.78 23.7789 124.906 23.8217C125.759 23.8238 126.584 23.5123 127.223 22.9466C127.544 22.6904 127.811 22.3732 128.009 22.0133C128.206 21.6533 128.331 21.2579 128.374 20.8496H125.489V19.1703Z" fill="#F9F9F9"/>
<path d="M138.449 15.2631H133.814V18.0144H138.315V19.6543H133.814V23.5329H138.449V25.1727H132.087V13.5996H138.465L138.449 15.2631Z" fill="#F9F9F9"/>
<path d="M144.701 15.2629V25.1961H142.951V15.2629H140.294V13.623H147.35V15.2629H144.701Z" fill="#F9F9F9"/>
<path d="M154.847 13.623V25.1961H153.105V13.623H154.847Z" fill="#F9F9F9"/>
<path d="M160.996 15.2708V25.1961H159.254V15.2708H156.59V13.623H163.685V15.2708H160.996Z" fill="#F9F9F9"/>
<path d="M167.855 19.361C167.847 18.575 168.002 17.7959 168.31 17.0727C168.618 16.3496 169.072 15.6979 169.644 15.159C170.204 14.5933 170.873 14.1468 171.61 13.846C172.347 13.5453 173.137 13.3965 173.933 13.4089C175.526 13.4172 177.051 14.0537 178.177 15.18C179.303 16.3063 179.94 17.8314 179.948 19.4241C179.962 20.2149 179.811 20.9998 179.504 21.7287C179.197 22.4577 178.742 23.1146 178.166 23.6574C177.06 24.7436 175.581 25.3684 174.031 25.405C172.481 25.4416 170.975 24.8873 169.818 23.8545C169.176 23.2995 168.667 22.6079 168.327 21.8303C167.987 21.0528 167.826 20.209 167.855 19.361ZM169.613 19.361C169.596 19.9478 169.702 20.5317 169.925 21.0749C170.147 21.6181 170.482 22.1085 170.906 22.5144C171.292 22.9058 171.752 23.2162 172.26 23.4274C172.768 23.6386 173.312 23.7463 173.862 23.7442C174.433 23.7565 175 23.6515 175.529 23.4359C176.058 23.2203 176.537 22.8986 176.937 22.4907C177.736 21.6558 178.182 20.5446 178.182 19.3887C178.182 18.2328 177.736 17.1214 176.937 16.2865C176.128 15.4792 175.032 15.0256 173.89 15.0256C172.747 15.0256 171.651 15.4792 170.843 16.2865C170.437 16.6897 170.118 17.172 169.906 17.7036C169.695 18.2353 169.595 18.8048 169.613 19.3768V19.361Z" fill="#F9F9F9"/>
<path d="M188.446 21.6641V13.623H190.189V25.1961H188.446L183.133 17.0919V25.1961H181.391V13.623H183.133L188.446 21.6641Z" fill="#F9F9F9"/>
<path d="M109.5 7H288.5V31H109.5V7Z" fill="black" stroke="black"/>
<mask id="path-25-outside-1_270_111" maskUnits="userSpaceOnUse" x="118" y="15" width="98" height="13" fill="black">
<rect fill="white" x="118" y="15" width="98" height="13"/>
<path d="M122.014 26H120.04L120.053 24.7368H122.014C122.586 24.7368 123.064 24.612 123.449 24.3623C123.838 24.1126 124.13 23.755 124.325 23.2896C124.524 22.8241 124.623 22.2697 124.623 21.6265V21.125C124.623 20.6257 124.566 20.1834 124.452 19.7983C124.342 19.4132 124.177 19.0895 123.957 18.8271C123.741 18.5648 123.474 18.3659 123.157 18.2305C122.844 18.0951 122.482 18.0273 122.071 18.0273H120.002V16.7578H122.071C122.685 16.7578 123.246 16.8615 123.754 17.0688C124.261 17.272 124.699 17.5661 125.068 17.9512C125.44 18.3363 125.726 18.7975 125.925 19.335C126.123 19.8724 126.223 20.4733 126.223 21.1377V21.6265C126.223 22.2909 126.123 22.8918 125.925 23.4292C125.726 23.9666 125.44 24.4279 125.068 24.813C124.695 25.1938 124.251 25.488 123.735 25.6953C123.223 25.8984 122.649 26 122.014 26ZM120.923 16.7578V26H119.329V16.7578H120.923ZM133.222 24.7368V26H128.315V24.7368H133.222ZM128.766 16.7578V26H127.172V16.7578H128.766ZM132.581 20.6172V21.8613H128.315V20.6172H132.581ZM133.19 16.7578V18.0273H128.315V16.7578H133.19ZM138.735 23.6196C138.735 23.4292 138.706 23.2599 138.646 23.1118C138.591 22.9637 138.492 22.8283 138.348 22.7056C138.204 22.5828 138.001 22.4644 137.739 22.3501C137.481 22.2316 137.151 22.111 136.749 21.9883C136.308 21.8529 135.902 21.7026 135.53 21.5376C135.162 21.3683 134.84 21.1737 134.565 20.9536C134.29 20.7293 134.076 20.4733 133.924 20.1855C133.771 19.8936 133.695 19.5571 133.695 19.1763C133.695 18.7996 133.774 18.4569 133.93 18.1479C134.091 17.839 134.317 17.5724 134.609 17.3481C134.906 17.1196 135.255 16.944 135.657 16.8213C136.059 16.6943 136.503 16.6309 136.99 16.6309C137.675 16.6309 138.266 16.7578 138.761 17.0117C139.26 17.2656 139.643 17.6063 139.91 18.0337C140.181 18.4611 140.316 18.9329 140.316 19.4492H138.735C138.735 19.1445 138.67 18.8758 138.539 18.6431C138.412 18.4061 138.217 18.2199 137.955 18.0845C137.696 17.9491 137.368 17.8813 136.971 17.8813C136.594 17.8813 136.281 17.9385 136.031 18.0527C135.782 18.167 135.595 18.3215 135.473 18.5161C135.35 18.7108 135.289 18.9308 135.289 19.1763C135.289 19.3498 135.329 19.5085 135.409 19.6523C135.49 19.792 135.612 19.9232 135.777 20.0459C135.942 20.1644 136.15 20.2765 136.399 20.3823C136.649 20.4881 136.943 20.5897 137.282 20.687C137.794 20.8394 138.24 21.0086 138.621 21.1948C139.002 21.3768 139.319 21.5841 139.573 21.8169C139.827 22.0496 140.018 22.3141 140.145 22.6104C140.271 22.9023 140.335 23.2345 140.335 23.6069C140.335 23.9963 140.257 24.3475 140.1 24.6606C139.944 24.9696 139.719 25.234 139.427 25.4541C139.139 25.6699 138.792 25.8371 138.386 25.9556C137.984 26.0698 137.536 26.127 137.041 26.127C136.596 26.127 136.158 26.0677 135.727 25.9492C135.299 25.8307 134.91 25.6509 134.559 25.4097C134.207 25.1642 133.928 24.8595 133.721 24.4956C133.513 24.1274 133.41 23.6979 133.41 23.207H135.003C135.003 23.5075 135.054 23.7635 135.155 23.9751C135.261 24.1867 135.407 24.3602 135.593 24.4956C135.779 24.6268 135.995 24.7241 136.241 24.7876C136.49 24.8511 136.757 24.8828 137.041 24.8828C137.413 24.8828 137.724 24.8299 137.974 24.7241C138.228 24.6183 138.418 24.4702 138.545 24.2798C138.672 24.0894 138.735 23.8693 138.735 23.6196ZM146.553 22.9912H148.14C148.089 23.5964 147.92 24.1359 147.632 24.6099C147.344 25.0796 146.94 25.4499 146.42 25.7207C145.899 25.9915 145.267 26.127 144.522 26.127C143.951 26.127 143.436 26.0254 142.979 25.8223C142.522 25.6149 142.131 25.3229 141.805 24.9463C141.479 24.5654 141.23 24.1063 141.056 23.5688C140.887 23.0314 140.802 22.4305 140.802 21.7661V20.998C140.802 20.3337 140.889 19.7327 141.062 19.1953C141.24 18.6579 141.494 18.1987 141.824 17.8179C142.154 17.4328 142.55 17.1387 143.011 16.9355C143.477 16.7324 143.999 16.6309 144.579 16.6309C145.315 16.6309 145.937 16.7663 146.445 17.0371C146.953 17.3079 147.347 17.6825 147.626 18.1606C147.909 18.6388 148.083 19.1868 148.146 19.8047H146.559C146.517 19.4069 146.424 19.0662 146.28 18.7827C146.141 18.4992 145.933 18.2834 145.658 18.1353C145.383 17.9829 145.023 17.9067 144.579 17.9067C144.215 17.9067 143.898 17.9744 143.627 18.1099C143.356 18.2453 143.13 18.4442 142.948 18.7065C142.766 18.9689 142.628 19.2926 142.535 19.6777C142.446 20.0586 142.402 20.4945 142.402 20.9854V21.7661C142.402 22.2316 142.442 22.6548 142.522 23.0356C142.607 23.4123 142.734 23.736 142.903 24.0068C143.077 24.2777 143.297 24.4871 143.563 24.6353C143.83 24.7834 144.149 24.8574 144.522 24.8574C144.975 24.8574 145.341 24.7855 145.62 24.6416C145.904 24.4977 146.117 24.2882 146.261 24.0132C146.409 23.7339 146.507 23.3932 146.553 22.9912ZM152.536 17.9893L149.775 26H148.106L151.584 16.7578H152.651L152.536 17.9893ZM154.847 26L152.079 17.9893L151.959 16.7578H153.032L156.523 26H154.847ZM154.714 22.5723V23.8354H149.686V22.5723H154.714ZM156.907 16.7578H160.176C160.879 16.7578 161.478 16.8636 161.973 17.0752C162.468 17.2868 162.847 17.5999 163.109 18.0146C163.376 18.4251 163.509 18.9329 163.509 19.5381C163.509 19.9993 163.424 20.4056 163.255 20.7568C163.086 21.1081 162.847 21.4043 162.538 21.6455C162.229 21.8825 161.861 22.0666 161.433 22.1978L160.951 22.4326H158.012L157.999 21.1694H160.202C160.583 21.1694 160.9 21.1017 161.154 20.9663C161.408 20.8309 161.598 20.6468 161.725 20.4141C161.856 20.1771 161.922 19.9105 161.922 19.6143C161.922 19.2926 161.859 19.0133 161.732 18.7764C161.609 18.5352 161.418 18.3511 161.16 18.2241C160.902 18.0929 160.574 18.0273 160.176 18.0273H158.501V26H156.907V16.7578ZM162.182 26L160.011 21.8486L161.681 21.8423L163.883 25.9175V26H162.182ZM171.543 21.2773V24.8066C171.411 24.9801 171.206 25.1706 170.927 25.3779C170.652 25.5811 170.286 25.7567 169.829 25.9048C169.372 26.0529 168.803 26.127 168.121 26.127C167.541 26.127 167.01 26.0296 166.528 25.835C166.046 25.6361 165.629 25.3462 165.277 24.9653C164.93 24.5845 164.662 24.1211 164.471 23.5752C164.281 23.0251 164.186 22.3988 164.186 21.6963V21.0552C164.186 20.3569 164.272 19.7349 164.446 19.189C164.624 18.6388 164.878 18.1733 165.208 17.7925C165.538 17.4116 165.935 17.1239 166.401 16.9292C166.871 16.7303 167.402 16.6309 167.994 16.6309C168.752 16.6309 169.378 16.7578 169.873 17.0117C170.372 17.2614 170.758 17.6084 171.028 18.0527C171.299 18.4971 171.471 19.0049 171.543 19.5762H169.981C169.93 19.2546 169.831 18.9668 169.683 18.7129C169.539 18.459 169.331 18.2601 169.061 18.1162C168.794 17.9681 168.447 17.894 168.02 17.894C167.651 17.894 167.328 17.9639 167.048 18.1035C166.769 18.2432 166.536 18.4484 166.35 18.7192C166.168 18.9901 166.031 19.3201 165.938 19.7095C165.844 20.0988 165.798 20.5431 165.798 21.0425V21.6963C165.798 22.2041 165.851 22.6548 165.957 23.0483C166.067 23.4419 166.223 23.7741 166.426 24.0449C166.634 24.3158 166.886 24.521 167.182 24.6606C167.478 24.7961 167.812 24.8638 168.185 24.8638C168.549 24.8638 168.847 24.8341 169.08 24.7749C169.312 24.7114 169.497 24.6374 169.632 24.5527C169.772 24.4639 169.879 24.3792 169.956 24.2988V22.4644H168.032V21.2773H171.543ZM176.256 17.9893L173.495 26H171.826L175.304 16.7578H176.371L176.256 17.9893ZM178.567 26L175.799 17.9893L175.679 16.7578H176.751L180.243 26H178.567ZM178.434 22.5723V23.8354H173.406V22.5723H178.434ZM186.416 24.7368V26H181.776V24.7368H186.416ZM182.221 16.7578V26H180.627V16.7578H182.221ZM190.724 17.9893L187.963 26H186.293L189.772 16.7578H190.838L190.724 17.9893ZM193.034 26L190.267 17.9893L190.146 16.7578H191.219L194.71 26H193.034ZM192.901 22.5723V23.8354H187.874V22.5723H192.901ZM206.319 24.7368V26H201.412V24.7368H206.319ZM201.863 16.7578V26H200.27V16.7578H201.863ZM205.678 20.6172V21.8613H201.412V20.6172H205.678ZM206.287 16.7578V18.0273H201.412V16.7578H206.287ZM214.302 16.7578V26H212.708L208.563 19.3794V26H206.97V16.7578H208.563L212.721 23.3911V16.7578H214.302Z"/>
</mask>
<path d="M122.014 26H120.04L120.053 24.7368H122.014C122.586 24.7368 123.064 24.612 123.449 24.3623C123.838 24.1126 124.13 23.755 124.325 23.2896C124.524 22.8241 124.623 22.2697 124.623 21.6265V21.125C124.623 20.6257 124.566 20.1834 124.452 19.7983C124.342 19.4132 124.177 19.0895 123.957 18.8271C123.741 18.5648 123.474 18.3659 123.157 18.2305C122.844 18.0951 122.482 18.0273 122.071 18.0273H120.002V16.7578H122.071C122.685 16.7578 123.246 16.8615 123.754 17.0688C124.261 17.272 124.699 17.5661 125.068 17.9512C125.44 18.3363 125.726 18.7975 125.925 19.335C126.123 19.8724 126.223 20.4733 126.223 21.1377V21.6265C126.223 22.2909 126.123 22.8918 125.925 23.4292C125.726 23.9666 125.44 24.4279 125.068 24.813C124.695 25.1938 124.251 25.488 123.735 25.6953C123.223 25.8984 122.649 26 122.014 26ZM120.923 16.7578V26H119.329V16.7578H120.923ZM133.222 24.7368V26H128.315V24.7368H133.222ZM128.766 16.7578V26H127.172V16.7578H128.766ZM132.581 20.6172V21.8613H128.315V20.6172H132.581ZM133.19 16.7578V18.0273H128.315V16.7578H133.19ZM138.735 23.6196C138.735 23.4292 138.706 23.2599 138.646 23.1118C138.591 22.9637 138.492 22.8283 138.348 22.7056C138.204 22.5828 138.001 22.4644 137.739 22.3501C137.481 22.2316 137.151 22.111 136.749 21.9883C136.308 21.8529 135.902 21.7026 135.53 21.5376C135.162 21.3683 134.84 21.1737 134.565 20.9536C134.29 20.7293 134.076 20.4733 133.924 20.1855C133.771 19.8936 133.695 19.5571 133.695 19.1763C133.695 18.7996 133.774 18.4569 133.93 18.1479C134.091 17.839 134.317 17.5724 134.609 17.3481C134.906 17.1196 135.255 16.944 135.657 16.8213C136.059 16.6943 136.503 16.6309 136.99 16.6309C137.675 16.6309 138.266 16.7578 138.761 17.0117C139.26 17.2656 139.643 17.6063 139.91 18.0337C140.181 18.4611 140.316 18.9329 140.316 19.4492H138.735C138.735 19.1445 138.67 18.8758 138.539 18.6431C138.412 18.4061 138.217 18.2199 137.955 18.0845C137.696 17.9491 137.368 17.8813 136.971 17.8813C136.594 17.8813 136.281 17.9385 136.031 18.0527C135.782 18.167 135.595 18.3215 135.473 18.5161C135.35 18.7108 135.289 18.9308 135.289 19.1763C135.289 19.3498 135.329 19.5085 135.409 19.6523C135.49 19.792 135.612 19.9232 135.777 20.0459C135.942 20.1644 136.15 20.2765 136.399 20.3823C136.649 20.4881 136.943 20.5897 137.282 20.687C137.794 20.8394 138.24 21.0086 138.621 21.1948C139.002 21.3768 139.319 21.5841 139.573 21.8169C139.827 22.0496 140.018 22.3141 140.145 22.6104C140.271 22.9023 140.335 23.2345 140.335 23.6069C140.335 23.9963 140.257 24.3475 140.1 24.6606C139.944 24.9696 139.719 25.234 139.427 25.4541C139.139 25.6699 138.792 25.8371 138.386 25.9556C137.984 26.0698 137.536 26.127 137.041 26.127C136.596 26.127 136.158 26.0677 135.727 25.9492C135.299 25.8307 134.91 25.6509 134.559 25.4097C134.207 25.1642 133.928 24.8595 133.721 24.4956C133.513 24.1274 133.41 23.6979 133.41 23.207H135.003C135.003 23.5075 135.054 23.7635 135.155 23.9751C135.261 24.1867 135.407 24.3602 135.593 24.4956C135.779 24.6268 135.995 24.7241 136.241 24.7876C136.49 24.8511 136.757 24.8828 137.041 24.8828C137.413 24.8828 137.724 24.8299 137.974 24.7241C138.228 24.6183 138.418 24.4702 138.545 24.2798C138.672 24.0894 138.735 23.8693 138.735 23.6196ZM146.553 22.9912H148.14C148.089 23.5964 147.92 24.1359 147.632 24.6099C147.344 25.0796 146.94 25.4499 146.42 25.7207C145.899 25.9915 145.267 26.127 144.522 26.127C143.951 26.127 143.436 26.0254 142.979 25.8223C142.522 25.6149 142.131 25.3229 141.805 24.9463C141.479 24.5654 141.23 24.1063 141.056 23.5688C140.887 23.0314 140.802 22.4305 140.802 21.7661V20.998C140.802 20.3337 140.889 19.7327 141.062 19.1953C141.24 18.6579 141.494 18.1987 141.824 17.8179C142.154 17.4328 142.55 17.1387 143.011 16.9355C143.477 16.7324 143.999 16.6309 144.579 16.6309C145.315 16.6309 145.937 16.7663 146.445 17.0371C146.953 17.3079 147.347 17.6825 147.626 18.1606C147.909 18.6388 148.083 19.1868 148.146 19.8047H146.559C146.517 19.4069 146.424 19.0662 146.28 18.7827C146.141 18.4992 145.933 18.2834 145.658 18.1353C145.383 17.9829 145.023 17.9067 144.579 17.9067C144.215 17.9067 143.898 17.9744 143.627 18.1099C143.356 18.2453 143.13 18.4442 142.948 18.7065C142.766 18.9689 142.628 19.2926 142.535 19.6777C142.446 20.0586 142.402 20.4945 142.402 20.9854V21.7661C142.402 22.2316 142.442 22.6548 142.522 23.0356C142.607 23.4123 142.734 23.736 142.903 24.0068C143.077 24.2777 143.297 24.4871 143.563 24.6353C143.83 24.7834 144.149 24.8574 144.522 24.8574C144.975 24.8574 145.341 24.7855 145.62 24.6416C145.904 24.4977 146.117 24.2882 146.261 24.0132C146.409 23.7339 146.507 23.3932 146.553 22.9912ZM152.536 17.9893L149.775 26H148.106L151.584 16.7578H152.651L152.536 17.9893ZM154.847 26L152.079 17.9893L151.959 16.7578H153.032L156.523 26H154.847ZM154.714 22.5723V23.8354H149.686V22.5723H154.714ZM156.907 16.7578H160.176C160.879 16.7578 161.478 16.8636 161.973 17.0752C162.468 17.2868 162.847 17.5999 163.109 18.0146C163.376 18.4251 163.509 18.9329 163.509 19.5381C163.509 19.9993 163.424 20.4056 163.255 20.7568C163.086 21.1081 162.847 21.4043 162.538 21.6455C162.229 21.8825 161.861 22.0666 161.433 22.1978L160.951 22.4326H158.012L157.999 21.1694H160.202C160.583 21.1694 160.9 21.1017 161.154 20.9663C161.408 20.8309 161.598 20.6468 161.725 20.4141C161.856 20.1771 161.922 19.9105 161.922 19.6143C161.922 19.2926 161.859 19.0133 161.732 18.7764C161.609 18.5352 161.418 18.3511 161.16 18.2241C160.902 18.0929 160.574 18.0273 160.176 18.0273H158.501V26H156.907V16.7578ZM162.182 26L160.011 21.8486L161.681 21.8423L163.883 25.9175V26H162.182ZM171.543 21.2773V24.8066C171.411 24.9801 171.206 25.1706 170.927 25.3779C170.652 25.5811 170.286 25.7567 169.829 25.9048C169.372 26.0529 168.803 26.127 168.121 26.127C167.541 26.127 167.01 26.0296 166.528 25.835C166.046 25.6361 165.629 25.3462 165.277 24.9653C164.93 24.5845 164.662 24.1211 164.471 23.5752C164.281 23.0251 164.186 22.3988 164.186 21.6963V21.0552C164.186 20.3569 164.272 19.7349 164.446 19.189C164.624 18.6388 164.878 18.1733 165.208 17.7925C165.538 17.4116 165.935 17.1239 166.401 16.9292C166.871 16.7303 167.402 16.6309 167.994 16.6309C168.752 16.6309 169.378 16.7578 169.873 17.0117C170.372 17.2614 170.758 17.6084 171.028 18.0527C171.299 18.4971 171.471 19.0049 171.543 19.5762H169.981C169.93 19.2546 169.831 18.9668 169.683 18.7129C169.539 18.459 169.331 18.2601 169.061 18.1162C168.794 17.9681 168.447 17.894 168.02 17.894C167.651 17.894 167.328 17.9639 167.048 18.1035C166.769 18.2432 166.536 18.4484 166.35 18.7192C166.168 18.9901 166.031 19.3201 165.938 19.7095C165.844 20.0988 165.798 20.5431 165.798 21.0425V21.6963C165.798 22.2041 165.851 22.6548 165.957 23.0483C166.067 23.4419 166.223 23.7741 166.426 24.0449C166.634 24.3158 166.886 24.521 167.182 24.6606C167.478 24.7961 167.812 24.8638 168.185 24.8638C168.549 24.8638 168.847 24.8341 169.08 24.7749C169.312 24.7114 169.497 24.6374 169.632 24.5527C169.772 24.4639 169.879 24.3792 169.956 24.2988V22.4644H168.032V21.2773H171.543ZM176.256 17.9893L173.495 26H171.826L175.304 16.7578H176.371L176.256 17.9893ZM178.567 26L175.799 17.9893L175.679 16.7578H176.751L180.243 26H178.567ZM178.434 22.5723V23.8354H173.406V22.5723H178.434ZM186.416 24.7368V26H181.776V24.7368H186.416ZM182.221 16.7578V26H180.627V16.7578H182.221ZM190.724 17.9893L187.963 26H186.293L189.772 16.7578H190.838L190.724 17.9893ZM193.034 26L190.267 17.9893L190.146 16.7578H191.219L194.71 26H193.034ZM192.901 22.5723V23.8354H187.874V22.5723H192.901ZM206.319 24.7368V26H201.412V24.7368H206.319ZM201.863 16.7578V26H200.27V16.7578H201.863ZM205.678 20.6172V21.8613H201.412V20.6172H205.678ZM206.287 16.7578V18.0273H201.412V16.7578H206.287ZM214.302 16.7578V26H212.708L208.563 19.3794V26H206.97V16.7578H208.563L212.721 23.3911V16.7578H214.302Z" fill="white"/>
<path d="M120.04 26L119.04 25.99L119.03 27H120.04V26ZM120.053 24.7368V23.7368H119.063L119.053 24.7268L120.053 24.7368ZM123.449 24.3623L122.909 23.5205L122.905 23.5232L123.449 24.3623ZM124.325 23.2896L123.405 22.8966L123.402 22.9037L124.325 23.2896ZM124.452 19.7983L123.49 20.0731L123.493 20.0828L124.452 19.7983ZM123.957 18.8271L123.184 19.4624L123.191 19.4698L123.957 18.8271ZM123.157 18.2305L122.76 19.1483L122.764 19.1502L123.157 18.2305ZM120.002 18.0273H119.002V19.0273H120.002V18.0273ZM120.002 16.7578V15.7578H119.002V16.7578H120.002ZM123.754 17.0688L123.376 17.9947L123.382 17.9973L123.754 17.0688ZM125.068 17.9512L124.345 18.6422L124.349 18.6463L125.068 17.9512ZM125.925 19.335L124.987 19.682L125.925 19.335ZM125.068 24.813L125.783 25.5121L125.786 25.5081L125.068 24.813ZM123.735 25.6953L124.103 26.6249L124.107 26.6233L123.735 25.6953ZM120.923 16.7578H121.923V15.7578H120.923V16.7578ZM120.923 26V27H121.923V26H120.923ZM119.329 26H118.329V27H119.329V26ZM119.329 16.7578V15.7578H118.329V16.7578H119.329ZM122.014 25H120.04V27H122.014V25ZM121.04 26.01L121.053 24.7469L119.053 24.7268L119.04 25.99L121.04 26.01ZM120.053 25.7368H122.014V23.7368H120.053V25.7368ZM122.014 25.7368C122.731 25.7368 123.41 25.5791 123.993 25.2014L122.905 23.5232C122.717 23.6448 122.44 23.7368 122.014 23.7368V25.7368ZM123.989 25.2041C124.565 24.8348 124.982 24.3103 125.247 23.6754L123.402 22.9037C123.279 23.1998 123.112 23.3905 122.909 23.5205L123.989 25.2041ZM125.244 23.6825C125.509 23.0641 125.623 22.3696 125.623 21.6265H123.623C123.623 22.1698 123.539 22.5841 123.405 22.8966L125.244 23.6825ZM125.623 21.6265V21.125H123.623V21.6265H125.623ZM125.623 21.125C125.623 20.5517 125.558 20.0105 125.411 19.5139L123.493 20.0828C123.574 20.3563 123.623 20.6996 123.623 21.125H125.623ZM125.413 19.5236C125.271 19.0262 125.047 18.5712 124.723 18.1845L123.191 19.4698C123.306 19.6079 123.412 19.8003 123.49 20.0731L125.413 19.5236ZM124.729 18.1919C124.41 17.8036 124.012 17.5081 123.549 17.3107L122.764 19.1502C122.937 19.2237 123.072 19.326 123.184 19.4624L124.729 18.1919ZM123.554 17.3126C123.093 17.1132 122.591 17.0273 122.071 17.0273V19.0273C122.373 19.0273 122.595 19.0769 122.76 19.1483L123.554 17.3126ZM122.071 17.0273H120.002V19.0273H122.071V17.0273ZM121.002 18.0273V16.7578H119.002V18.0273H121.002ZM120.002 17.7578H122.071V15.7578H120.002V17.7578ZM122.071 17.7578C122.571 17.7578 123.001 17.8418 123.376 17.9946L124.132 16.1431C123.49 15.8812 122.799 15.7578 122.071 15.7578V17.7578ZM123.382 17.9973C123.761 18.1488 124.078 18.3633 124.345 18.6422L125.79 17.2601C125.321 16.7689 124.762 16.3952 124.125 16.1404L123.382 17.9973ZM124.349 18.6463C124.618 18.925 124.832 19.2653 124.987 19.682L126.862 18.9879C126.619 18.3297 126.262 17.7475 125.786 17.256L124.349 18.6463ZM124.987 19.682C125.138 20.0922 125.223 20.5732 125.223 21.1377H127.223C127.223 20.3734 127.108 19.6526 126.862 18.9879L124.987 19.682ZM125.223 21.1377V21.6265H127.223V21.1377H125.223ZM125.223 21.6265C125.223 22.191 125.138 22.672 124.987 23.0821L126.862 23.7763C127.108 23.1116 127.223 22.3907 127.223 21.6265H125.223ZM124.987 23.0821C124.832 23.4988 124.618 23.8392 124.349 24.1178L125.786 25.5081C126.262 25.0166 126.619 24.4345 126.862 23.7763L124.987 23.0821ZM124.353 24.1139C124.081 24.3911 123.755 24.6094 123.362 24.7674L124.107 26.6233C124.746 26.3665 125.309 25.9966 125.783 25.5121L124.353 24.1139ZM123.366 24.7658C122.988 24.9158 122.542 25 122.014 25V27C122.756 27 123.457 26.8811 124.103 26.6248L123.366 24.7658ZM119.923 16.7578V26H121.923V16.7578H119.923ZM120.923 25H119.329V27H120.923V25ZM120.329 26V16.7578H118.329V26H120.329ZM119.329 17.7578H120.923V15.7578H119.329V17.7578ZM133.222 24.7368H134.222V23.7368H133.222V24.7368ZM133.222 26V27H134.222V26H133.222ZM128.315 26H127.315V27H128.315V26ZM128.315 24.7368V23.7368H127.315V24.7368H128.315ZM128.766 16.7578H129.766V15.7578H128.766V16.7578ZM128.766 26V27H129.766V26H128.766ZM127.172 26H126.172V27H127.172V26ZM127.172 16.7578V15.7578H126.172V16.7578H127.172ZM132.581 20.6172H133.581V19.6172H132.581V20.6172ZM132.581 21.8613V22.8613H133.581V21.8613H132.581ZM128.315 21.8613H127.315V22.8613H128.315V21.8613ZM128.315 20.6172V19.6172H127.315V20.6172H128.315ZM133.19 16.7578H134.19V15.7578H133.19V16.7578ZM133.19 18.0273V19.0273H134.19V18.0273H133.19ZM128.315 18.0273H127.315V19.0273H128.315V18.0273ZM128.315 16.7578V15.7578H127.315V16.7578H128.315ZM132.222 24.7368V26H134.222V24.7368H132.222ZM133.222 25H128.315V27H133.222V25ZM129.315 26V24.7368H127.315V26H129.315ZM128.315 25.7368H133.222V23.7368H128.315V25.7368ZM127.766 16.7578V26H129.766V16.7578H127.766ZM128.766 25H127.172V27H128.766V25ZM128.172 26V16.7578H126.172V26H128.172ZM127.172 17.7578H128.766V15.7578H127.172V17.7578ZM131.581 20.6172V21.8613H133.581V20.6172H131.581ZM132.581 20.8613H128.315V22.8613H132.581V20.8613ZM129.315 21.8613V20.6172H127.315V21.8613H129.315ZM128.315 21.6172H132.581V19.6172H128.315V21.6172ZM132.19 16.7578V18.0273H134.19V16.7578H132.19ZM133.19 17.0273H128.315V19.0273H133.19V17.0273ZM129.315 18.0273V16.7578H127.315V18.0273H129.315ZM128.315 17.7578H133.19V15.7578H128.315V17.7578ZM138.646 23.1118L137.709 23.46L137.713 23.4717L137.718 23.4832L138.646 23.1118ZM138.348 22.7056L137.699 23.4664L138.348 22.7056ZM137.739 22.3501L137.322 23.2589L137.331 23.263L137.34 23.2669L137.739 22.3501ZM136.749 21.9883L136.454 22.9441L136.457 22.9447L136.749 21.9883ZM135.53 21.5376L135.112 22.4463L135.125 22.4518L135.53 21.5376ZM134.565 20.9536L133.933 21.7287L133.94 21.7345L134.565 20.9536ZM133.924 20.1855L133.037 20.6481L133.04 20.6534L133.924 20.1855ZM133.93 18.1479L133.043 17.6862L133.038 17.6959L133.93 18.1479ZM134.609 17.3481L135.219 18.1412L135.22 18.1399L134.609 17.3481ZM135.657 16.8213L135.949 17.7778L135.958 17.7749L135.657 16.8213ZM138.761 17.0117L138.304 17.9015L138.307 17.9031L138.761 17.0117ZM139.91 18.0337L139.061 18.5629L139.065 18.5689L139.91 18.0337ZM140.316 19.4492V20.4492H141.316V19.4492H140.316ZM138.735 19.4492H137.735V20.4492H138.735V19.4492ZM138.539 18.6431L137.657 19.1153L137.662 19.1247L137.667 19.1341L138.539 18.6431ZM137.955 18.0845L137.49 18.97L137.496 18.9731L137.955 18.0845ZM136.031 18.0527L135.615 17.1434L136.031 18.0527ZM135.409 19.6523L134.536 20.1402L134.543 20.1513L135.409 19.6523ZM135.777 20.0459L135.181 20.8484L135.187 20.8533L135.194 20.8582L135.777 20.0459ZM136.399 20.3823L136.009 21.3031L136.399 20.3823ZM137.282 20.687L137.567 19.7285L137.558 19.7259L137.282 20.687ZM138.621 21.1948L138.182 22.0932L138.19 22.0971L138.621 21.1948ZM140.145 22.6104L139.225 23.0043L139.227 23.0091L140.145 22.6104ZM140.1 24.6606L140.992 25.1127L140.995 25.1079L140.1 24.6606ZM139.427 25.4541L140.027 26.2541L140.029 26.2527L139.427 25.4541ZM138.386 25.9556L138.66 26.9175L138.666 26.9156L138.386 25.9556ZM135.727 25.9492L135.459 26.9129L135.462 26.9135L135.727 25.9492ZM134.559 25.4097L133.986 26.2294L133.992 26.234L134.559 25.4097ZM133.721 24.4956L132.849 24.9863L132.852 24.9907L133.721 24.4956ZM133.41 23.207V22.207H132.41V23.207H133.41ZM135.003 23.207H136.003V22.207H135.003V23.207ZM135.155 23.9751L134.254 24.4078L134.257 24.4151L134.261 24.4223L135.155 23.9751ZM135.593 24.4956L135.005 25.3043L135.011 25.3088L135.017 25.3131L135.593 24.4956ZM136.241 24.7876L135.99 25.7558L135.994 25.7568L136.241 24.7876ZM137.974 24.7241L137.589 23.801L137.583 23.8034L137.974 24.7241ZM139.735 23.6196C139.735 23.3261 139.69 23.0272 139.575 22.7404L137.718 23.4832C137.722 23.4927 137.735 23.5323 137.735 23.6196H139.735ZM139.584 22.7636C139.459 22.4269 139.245 22.1564 138.997 21.9447L137.699 23.4664C137.72 23.4839 137.726 23.4928 137.725 23.4911C137.724 23.4902 137.722 23.487 137.719 23.4815C137.716 23.4759 137.712 23.4687 137.709 23.46L139.584 22.7636ZM138.997 21.9447C138.75 21.7341 138.449 21.5689 138.138 21.4333L137.34 23.2669C137.553 23.3598 137.658 23.4316 137.699 23.4664L138.997 21.9447ZM138.156 21.4413C137.843 21.2976 137.467 21.1621 137.04 21.0319L136.457 22.9447C136.834 23.0599 137.118 23.1656 137.322 23.2589L138.156 21.4413ZM137.043 21.0325C136.636 20.9072 136.267 20.7705 135.935 20.6234L135.125 22.4518C135.537 22.6348 135.981 22.7985 136.454 22.9441L137.043 21.0325ZM135.948 20.629C135.642 20.4888 135.392 20.335 135.19 20.1727L133.94 21.7345C134.288 22.0123 134.681 22.2479 135.112 22.4462L135.948 20.629ZM135.197 20.1786C135.016 20.0312 134.892 19.877 134.808 19.7177L133.04 20.6534C133.26 21.0697 133.564 21.4275 133.933 21.7286L135.197 20.1786ZM134.81 19.723C134.743 19.5947 134.695 19.4214 134.695 19.1763H132.695C132.695 19.6929 132.8 20.1925 133.037 20.6481L134.81 19.723ZM134.695 19.1763C134.695 18.9427 134.743 18.7569 134.822 18.6L133.038 17.6959C132.805 18.1569 132.695 18.6566 132.695 19.1763H134.695ZM134.817 18.6097C134.907 18.4375 135.035 18.2818 135.219 18.1412L134 16.5551C133.599 16.863 133.275 17.2406 133.043 17.6862L134.817 18.6097ZM135.22 18.1399C135.41 17.9936 135.648 17.8696 135.949 17.7777L135.365 15.8649C134.862 16.0185 134.401 16.2457 133.999 16.5564L135.22 18.1399ZM135.958 17.7749C136.249 17.683 136.59 17.6309 136.99 17.6309V15.6309C136.416 15.6309 135.869 15.7057 135.356 15.8677L135.958 17.7749ZM136.99 17.6309C137.553 17.6309 137.98 17.7349 138.304 17.9015L139.217 16.1219C138.552 15.7807 137.798 15.6309 136.99 15.6309V17.6309ZM138.307 17.9031C138.663 18.084 138.901 18.3068 139.061 18.5629L140.758 17.5044C140.385 16.9057 139.857 16.4472 139.214 16.1203L138.307 17.9031ZM139.065 18.5689C139.232 18.8329 139.316 19.1184 139.316 19.4492H141.316C141.316 18.7475 141.129 18.0893 140.754 17.4984L139.065 18.5689ZM140.316 18.4492H138.735V20.4492H140.316V18.4492ZM139.735 19.4492C139.735 18.997 139.637 18.5547 139.41 18.1521L137.667 19.1341C137.703 19.197 137.735 19.2921 137.735 19.4492H139.735ZM139.42 18.1708C139.188 17.738 138.837 17.4146 138.413 17.1959L137.496 18.9731C137.597 19.0252 137.635 19.0742 137.657 19.1153L139.42 18.1708ZM138.419 17.1989C137.975 16.966 137.474 16.8813 136.971 16.8813V18.8813C137.263 18.8813 137.418 18.9321 137.49 18.97L138.419 17.1989ZM136.971 16.8813C136.501 16.8813 136.034 16.9515 135.615 17.1434L136.447 18.962C136.527 18.9254 136.687 18.8813 136.971 18.8813V16.8813ZM135.615 17.1434C135.223 17.3227 134.872 17.5942 134.627 17.9828L136.319 19.0494C136.319 19.0487 136.34 19.0113 136.447 18.962L135.615 17.1434ZM134.627 17.9828C134.397 18.3479 134.289 18.7552 134.289 19.1763H136.289C136.289 19.1064 136.303 19.0737 136.319 19.0494L134.627 17.9828ZM134.289 19.1763C134.289 19.5112 134.368 19.8393 134.536 20.1402L136.282 19.1645C136.283 19.166 136.284 19.1684 136.285 19.1714C136.287 19.1744 136.287 19.1773 136.288 19.1798C136.29 19.1854 136.289 19.1851 136.289 19.1763H134.289ZM134.543 20.1513C134.707 20.4374 134.935 20.6657 135.181 20.8484L136.374 19.2434C136.29 19.1807 136.272 19.1466 136.276 19.1534L134.543 20.1513ZM135.194 20.8582C135.435 21.0315 135.713 21.1774 136.009 21.3031L136.79 19.4616C136.587 19.3757 136.449 19.2973 136.361 19.2336L135.194 20.8582ZM136.009 21.3031C136.305 21.4284 136.639 21.5427 137.005 21.6481L137.558 19.7259C137.247 19.6367 136.993 19.5478 136.79 19.4616L136.009 21.3031ZM136.997 21.6455C137.469 21.7859 137.861 21.9365 138.182 22.0932L139.06 20.2964C138.619 20.0807 138.119 19.8928 137.567 19.7285L136.997 21.6455ZM138.19 22.0971C138.501 22.2457 138.731 22.4012 138.898 22.554L140.249 21.0797C139.908 20.7671 139.503 20.5079 139.052 20.2925L138.19 22.0971ZM138.898 22.554C139.054 22.6976 139.158 22.8472 139.225 23.0043L141.064 22.2164C140.877 21.781 140.6 21.4016 140.249 21.0797L138.898 22.554ZM139.227 23.0091C139.291 23.1557 139.335 23.3487 139.335 23.6069H141.335C141.335 23.1204 141.252 22.6489 141.062 22.2116L139.227 23.0091ZM139.335 23.6069C139.335 23.8586 139.285 24.0541 139.206 24.2134L140.995 25.1079C141.228 24.6409 141.335 24.1339 141.335 23.6069H139.335ZM139.208 24.2086C139.124 24.3738 139.002 24.522 138.825 24.6555L140.029 26.2527C140.436 25.9461 140.763 25.5654 140.992 25.1127L139.208 24.2086ZM138.827 24.6541C138.651 24.7863 138.417 24.9049 138.106 24.9956L138.666 26.9156C139.168 26.7692 139.628 26.5536 140.027 26.2541L138.827 24.6541ZM138.113 24.9937C137.814 25.0785 137.46 25.127 137.041 25.127V27.127C137.612 27.127 138.154 27.0612 138.66 26.9175L138.113 24.9937ZM137.041 25.127C136.686 25.127 136.337 25.0799 135.991 24.9849L135.462 26.9135C135.979 27.0555 136.506 27.127 137.041 27.127V25.127ZM135.994 24.9856C135.669 24.8954 135.381 24.7613 135.125 24.5853L133.992 26.234C134.439 26.5404 134.93 26.766 135.459 26.9129L135.994 24.9856ZM135.131 24.59C134.899 24.4274 134.722 24.2326 134.59 24.0006L132.852 24.9907C133.134 25.4864 133.516 25.901 133.986 26.2294L135.131 24.59ZM134.592 24.0049C134.482 23.8092 134.41 23.554 134.41 23.207H132.41C132.41 23.8418 132.545 24.4457 132.849 24.9863L134.592 24.0049ZM133.41 24.207H135.003V22.207H133.41V24.207ZM134.003 23.207C134.003 23.6167 134.072 24.0289 134.254 24.4078L136.057 23.5424C136.036 23.4982 136.003 23.3983 136.003 23.207H134.003ZM134.261 24.4223C134.436 24.7731 134.686 25.072 135.005 25.3043L136.181 23.6869C136.128 23.6483 136.086 23.6003 136.05 23.5279L134.261 24.4223ZM135.017 25.3131C135.313 25.5211 135.641 25.6655 135.99 25.7557L136.491 23.8195C136.349 23.7828 136.246 23.7325 136.169 23.6781L135.017 25.3131ZM135.994 25.7568C136.332 25.8427 136.682 25.8828 137.041 25.8828V23.8828C136.832 23.8828 136.649 23.8595 136.487 23.8184L135.994 25.7568ZM137.041 25.8828C137.5 25.8828 137.954 25.8186 138.364 25.6449L137.583 23.8034C137.494 23.8412 137.326 23.8828 137.041 23.8828V25.8828ZM138.358 25.6472C138.757 25.481 139.12 25.2199 139.377 24.8345L137.713 23.7251C137.712 23.7261 137.708 23.7327 137.693 23.7443C137.677 23.7568 137.645 23.7776 137.589 23.801L138.358 25.6472ZM139.377 24.8345C139.623 24.4649 139.735 24.048 139.735 23.6196H137.735C137.735 23.6906 137.72 23.7138 137.713 23.7251L139.377 24.8345ZM146.553 22.9912V21.9912H145.662L145.56 22.8762L146.553 22.9912ZM148.14 22.9912L149.137 23.0748L149.227 21.9912H148.14V22.9912ZM147.632 24.6099L148.485 25.1322L148.487 25.1288L147.632 24.6099ZM142.979 25.8223L142.566 26.7329L142.573 26.7361L142.979 25.8223ZM141.805 24.9463L141.045 25.5964L141.049 25.6006L141.805 24.9463ZM141.056 23.5688L140.102 23.8693L140.104 23.8761L141.056 23.5688ZM141.062 19.1953L140.113 18.8813L140.111 18.8881L141.062 19.1953ZM141.824 17.8179L142.58 18.4728L142.583 18.4687L141.824 17.8179ZM143.011 16.9355L142.611 16.019L142.608 16.0204L143.011 16.9355ZM147.626 18.1606L146.762 18.665L146.766 18.6707L147.626 18.1606ZM148.146 19.8047V20.8047H149.254L149.141 19.7025L148.146 19.8047ZM146.559 19.8047L145.565 19.9105L145.66 20.8047H146.559V19.8047ZM146.28 18.7827L145.383 19.2246L145.388 19.2352L146.28 18.7827ZM145.658 18.1353L145.174 19.0101L145.184 19.0157L145.658 18.1353ZM143.627 18.1099L144.074 19.0043L143.627 18.1099ZM142.535 19.6777L141.563 19.4427L141.561 19.4505L142.535 19.6777ZM142.522 23.0356L141.544 23.2422L141.547 23.2549L142.522 23.0356ZM142.903 24.0068L142.055 24.5369L142.061 24.5463L142.903 24.0068ZM145.62 24.6416L145.167 23.7498L145.162 23.7526L145.62 24.6416ZM146.261 24.0132L145.378 23.5447L145.375 23.5497L146.261 24.0132ZM146.553 23.9912H148.14V21.9912H146.553V23.9912ZM147.144 22.9076C147.104 23.3735 146.978 23.7614 146.777 24.0909L148.487 25.1288C148.862 24.5104 149.074 23.8192 149.137 23.0748L147.144 22.9076ZM146.78 24.0875C146.593 24.3922 146.329 24.6409 145.958 24.8336L146.881 26.6078C147.552 26.2588 148.096 25.767 148.485 25.1322L146.78 24.0875ZM145.958 24.8336C145.614 25.013 145.148 25.127 144.522 25.127V27.127C145.385 27.127 146.185 26.9701 146.881 26.6078L145.958 24.8336ZM144.522 25.127C144.071 25.127 143.698 25.0472 143.386 24.9085L142.573 26.7361C143.175 27.0036 143.831 27.127 144.522 27.127V25.127ZM143.393 24.9116C143.066 24.7635 142.792 24.5585 142.561 24.292L141.049 25.6006C141.47 26.0873 141.979 26.4664 142.566 26.7329L143.393 24.9116ZM142.565 24.2962C142.335 24.0278 142.146 23.6891 142.008 23.2616L140.104 23.8761C140.313 24.5234 140.623 25.1031 141.045 25.5964L142.565 24.2962ZM142.01 23.2684C141.876 22.8438 141.802 22.3463 141.802 21.7661H139.802C139.802 22.5147 139.897 23.219 140.102 23.8693L142.01 23.2684ZM141.802 21.7661V20.998H139.802V21.7661H141.802ZM141.802 20.998C141.802 20.42 141.878 19.925 142.014 19.5025L140.111 18.8881C139.9 19.5405 139.802 20.2473 139.802 20.998H141.802ZM142.012 19.5093C142.153 19.0818 142.346 18.7423 142.58 18.4728L141.068 17.1629C140.642 17.6551 140.327 18.234 140.113 18.8813L142.012 19.5093ZM142.583 18.4687C142.817 18.1965 143.091 17.9931 143.414 17.8507L142.608 16.0204C142.009 16.2842 141.492 16.669 141.065 17.1671L142.583 18.4687ZM143.411 17.8521C143.734 17.7113 144.117 17.6309 144.579 17.6309V15.6309C143.881 15.6309 143.219 15.7536 142.611 16.019L143.411 17.8521ZM144.579 17.6309C145.196 17.6309 145.647 17.7445 145.975 17.9195L146.916 16.1548C146.228 15.7881 145.435 15.6309 144.579 15.6309V17.6309ZM145.975 17.9195C146.326 18.1067 146.58 18.3532 146.762 18.665L148.489 17.6563C148.113 17.0117 147.58 16.5092 146.916 16.1548L145.975 17.9195ZM146.766 18.6707C146.967 19.0104 147.101 19.4161 147.152 19.9069L149.141 19.7025C149.065 18.9576 148.852 18.2673 148.486 17.6506L146.766 18.6707ZM148.146 18.8047H146.559V20.8047H148.146V18.8047ZM147.554 19.6989C147.502 19.2102 147.383 18.746 147.172 18.3302L145.388 19.2352C145.465 19.3864 145.532 19.6036 145.565 19.9105L147.554 19.6989ZM147.177 18.3409C146.947 17.873 146.593 17.5028 146.132 17.2548L145.184 19.0157C145.274 19.064 145.334 19.1253 145.383 19.2246L147.177 18.3409ZM146.143 17.2605C145.671 16.999 145.127 16.9067 144.579 16.9067V18.9067C144.92 18.9067 145.096 18.9668 145.174 19.01L146.143 17.2605ZM144.579 16.9067C144.091 16.9067 143.615 16.9979 143.18 17.2154L144.074 19.0043C144.181 18.951 144.339 18.9067 144.579 18.9067V16.9067ZM143.18 17.2154C142.75 17.43 142.398 17.7442 142.126 18.1366L143.769 19.2764C143.861 19.1442 143.962 19.0605 144.074 19.0043L143.18 17.2154ZM142.126 18.1366C141.859 18.5216 141.678 18.9656 141.563 19.4427L143.507 19.9127C143.578 19.6197 143.672 19.4162 143.769 19.2764L142.126 18.1366ZM141.561 19.4505C141.451 19.9219 141.402 20.4364 141.402 20.9854H143.402C143.402 20.5525 143.441 20.1953 143.509 19.905L141.561 19.4505ZM141.402 20.9854V21.7661H143.402V20.9854H141.402ZM141.402 21.7661C141.402 22.288 141.447 22.7818 141.544 23.2422L143.501 22.8291C143.437 22.5278 143.402 22.1752 143.402 21.7661H141.402ZM141.547 23.2549C141.651 23.7193 141.815 24.1528 142.055 24.5368L143.751 23.4768C143.653 23.3192 143.563 23.1052 143.498 22.8164L141.547 23.2549ZM142.061 24.5463C142.319 24.9486 142.659 25.2765 143.078 25.5094L144.049 23.7611C143.935 23.6978 143.835 23.6068 143.745 23.4674L142.061 24.5463ZM143.078 25.5094C143.522 25.7564 144.017 25.8574 144.522 25.8574V23.8574C144.282 23.8574 144.138 23.8103 144.049 23.7611L143.078 25.5094ZM144.522 25.8574C145.069 25.8574 145.608 25.7724 146.078 25.5306L145.162 23.7526C145.073 23.7985 144.881 23.8574 144.522 23.8574V25.8574ZM146.073 25.5334C146.537 25.2977 146.904 24.9409 147.147 24.4767L145.375 23.5497C145.33 23.6356 145.27 23.6977 145.167 23.7499L146.073 25.5334ZM147.145 24.4817C147.365 24.0664 147.489 23.5988 147.546 23.1062L145.56 22.8762C145.524 23.1877 145.454 23.4014 145.378 23.5447L147.145 24.4817ZM152.536 17.9893L153.482 18.3151L153.521 18.2014L153.532 18.0816L152.536 17.9893ZM149.775 26V27H150.488L150.721 26.3259L149.775 26ZM148.106 26L147.17 25.6477L146.661 27H148.106V26ZM151.584 16.7578V15.7578H150.892L150.648 16.4056L151.584 16.7578ZM152.651 16.7578L153.646 16.8502L153.748 15.7578H152.651V16.7578ZM154.847 26L153.902 26.3265L154.134 27H154.847V26ZM152.079 17.9893L151.084 18.0867L151.096 18.2042L151.134 18.3158L152.079 17.9893ZM151.959 16.7578V15.7578H150.856L150.964 16.8553L151.959 16.7578ZM153.032 16.7578L153.967 16.4044L153.723 15.7578H153.032V16.7578ZM156.523 26V27H157.969L157.458 25.6466L156.523 26ZM154.714 22.5723H155.714V21.5723H154.714V22.5723ZM154.714 23.8354V24.8354H155.714V23.8354H154.714ZM149.686 23.8354H148.686V24.8354H149.686V23.8354ZM149.686 22.5723V21.5723H148.686V22.5723H149.686ZM151.591 17.6634L148.83 25.6741L150.721 26.3259L153.482 18.3151L151.591 17.6634ZM149.775 25H148.106V27H149.775V25ZM149.042 26.3523L152.52 17.1101L150.648 16.4056L147.17 25.6477L149.042 26.3523ZM151.584 17.7578H152.651V15.7578H151.584V17.7578ZM151.655 16.6654L151.541 17.8969L153.532 18.0816L153.646 16.8502L151.655 16.6654ZM155.792 25.6735L153.025 17.6627L151.134 18.3158L153.902 26.3265L155.792 25.6735ZM153.075 17.8918L152.954 16.6603L150.964 16.8553L151.084 18.0867L153.075 17.8918ZM151.959 17.7578H153.032V15.7578H151.959V17.7578ZM152.096 17.1112L155.587 26.3534L157.458 25.6466L153.967 16.4044L152.096 17.1112ZM156.523 25H154.847V27H156.523V25ZM153.714 22.5723V23.8354H155.714V22.5723H153.714ZM154.714 22.8354H149.686V24.8354H154.714V22.8354ZM150.686 23.8354V22.5723H148.686V23.8354H150.686ZM149.686 23.5723H154.714V21.5723H149.686V23.5723ZM156.907 16.7578V15.7578H155.907V16.7578H156.907ZM163.109 18.0146L162.264 18.5493L162.27 18.5593L163.109 18.0146ZM162.538 21.6455L163.146 22.439L163.153 22.4337L162.538 21.6455ZM161.433 22.1978L161.14 21.2418L161.066 21.2646L160.996 21.2986L161.433 22.1978ZM160.951 22.4326V23.4326H161.181L161.389 23.3317L160.951 22.4326ZM158.012 22.4326L157.012 22.4427L157.022 23.4326H158.012V22.4326ZM157.999 21.1694V20.1694H156.989L156.999 21.1795L157.999 21.1694ZM161.725 20.4141L160.85 19.9297L160.847 19.9352L161.725 20.4141ZM161.732 18.7764L160.84 19.2298L160.845 19.2393L160.85 19.2486L161.732 18.7764ZM161.16 18.2241L160.707 19.1157L160.719 19.1215L161.16 18.2241ZM158.501 18.0273V17.0273H157.501V18.0273H158.501ZM158.501 26V27H159.501V26H158.501ZM156.907 26H155.907V27H156.907V26ZM162.182 26L161.296 26.4634L161.577 27H162.182V26ZM160.011 21.8486L160.008 20.8486L158.363 20.8549L159.125 22.312L160.011 21.8486ZM161.681 21.8423L162.561 21.3668L162.276 20.84L161.677 20.8423L161.681 21.8423ZM163.883 25.9175H164.883V25.6645L164.763 25.442L163.883 25.9175ZM163.883 26V27H164.883V26H163.883ZM156.907 17.7578H160.176V15.7578H156.907V17.7578ZM160.176 17.7578C160.783 17.7578 161.241 17.8498 161.58 17.9947L162.366 16.1556C161.715 15.8775 160.975 15.7578 160.176 15.7578V17.7578ZM161.58 17.9947C161.908 18.1349 162.12 18.3223 162.264 18.5493L163.954 17.48C163.573 16.8776 163.028 16.4387 162.366 16.1556L161.58 17.9947ZM162.27 18.5593C162.409 18.7731 162.509 19.0805 162.509 19.5381H164.509C164.509 18.7854 164.342 18.0772 163.948 17.47L162.27 18.5593ZM162.509 19.5381C162.509 19.8763 162.447 20.1295 162.354 20.3227L164.156 21.191C164.401 20.6817 164.509 20.1224 164.509 19.5381H162.509ZM162.354 20.3227C162.252 20.5348 162.111 20.7101 161.922 20.8573L163.153 22.4337C163.583 22.0985 163.92 21.6813 164.156 21.191L162.354 20.3227ZM161.929 20.8521C161.728 21.0066 161.47 21.1404 161.14 21.2418L161.727 23.1537C162.251 22.9927 162.73 22.7584 163.146 22.4389L161.929 20.8521ZM160.996 21.2986L160.513 21.5335L161.389 23.3317L161.871 23.0969L160.996 21.2986ZM160.951 21.4326H158.012V23.4326H160.951V21.4326ZM159.012 22.4226L158.999 21.1594L156.999 21.1795L157.012 22.4427L159.012 22.4226ZM157.999 22.1694H160.202V20.1694H157.999V22.1694ZM160.202 22.1694C160.696 22.1694 161.187 22.0823 161.625 21.8487L160.683 20.084C160.614 20.1212 160.47 20.1694 160.202 20.1694V22.1694ZM161.625 21.8487C162.035 21.6296 162.375 21.3117 162.603 20.8929L160.847 19.9352C160.822 19.9819 160.78 20.0322 160.683 20.084L161.625 21.8487ZM162.6 20.8984C162.821 20.4996 162.922 20.0637 162.922 19.6143H160.922C160.922 19.7573 160.892 19.8546 160.85 19.9297L162.6 20.8984ZM162.922 19.6143C162.922 19.1601 162.832 18.7123 162.613 18.3041L160.85 19.2486C160.885 19.3144 160.922 19.4252 160.922 19.6143H162.922ZM162.623 18.3229C162.396 17.8764 162.041 17.5428 161.602 17.3268L160.719 19.1215C160.796 19.1594 160.822 19.1939 160.84 19.2298L162.623 18.3229ZM161.613 17.3326C161.172 17.1085 160.676 17.0273 160.176 17.0273V19.0273C160.473 19.0273 160.632 19.0773 160.707 19.1156L161.613 17.3326ZM160.176 17.0273H158.501V19.0273H160.176V17.0273ZM157.501 18.0273V26H159.501V18.0273H157.501ZM158.501 25H156.907V27H158.501V25ZM157.907 26V16.7578H155.907V26H157.907ZM163.068 25.5366L160.898 21.3852L159.125 22.312L161.296 26.4634L163.068 25.5366ZM160.015 22.8486L161.685 22.8423L161.677 20.8423L160.008 20.8486L160.015 22.8486ZM160.801 22.3178L163.004 26.393L164.763 25.442L162.561 21.3668L160.801 22.3178ZM162.883 25.9175V26H164.883V25.9175H162.883ZM163.883 25H162.182V27H163.883V25ZM171.543 21.2773H172.543V20.2773H171.543V21.2773ZM171.543 24.8066L172.34 25.4097L172.543 25.1421V24.8066H171.543ZM170.927 25.3779L171.521 26.1824L171.523 26.1808L170.927 25.3779ZM166.528 25.835L166.147 26.7595L166.154 26.7623L166.528 25.835ZM165.277 24.9653L164.538 25.6388L164.542 25.6433L165.277 24.9653ZM164.471 23.5752L163.526 23.9023L163.527 23.9046L164.471 23.5752ZM164.446 19.189L163.494 18.8815L163.493 18.8861L164.446 19.189ZM166.401 16.9292L166.787 17.8518L166.791 17.8501L166.401 16.9292ZM169.873 17.0117L169.417 17.9016L169.426 17.9061L169.873 17.0117ZM171.543 19.5762V20.5762H172.676L172.535 19.4512L171.543 19.5762ZM169.981 19.5762L168.993 19.7321L169.127 20.5762H169.981V19.5762ZM169.683 18.7129L168.813 19.2059L168.819 19.2168L169.683 18.7129ZM169.061 18.1162L168.575 18.9904L168.583 18.9949L168.591 18.9993L169.061 18.1162ZM166.35 18.7192L165.526 18.1527L165.52 18.1615L166.35 18.7192ZM165.938 19.7095L164.965 19.4769L165.938 19.7095ZM165.957 23.0483L164.991 23.308L164.994 23.3176L165.957 23.0483ZM166.426 24.0449L165.626 24.645L165.632 24.6528L166.426 24.0449ZM167.182 24.6606L166.755 25.5652L166.766 25.5701L167.182 24.6606ZM169.08 24.7749L169.326 25.744L169.335 25.7419L169.343 25.7397L169.08 24.7749ZM169.632 24.5527L170.162 25.4008L170.169 25.3964L169.632 24.5527ZM169.956 24.2988L170.682 24.9866L170.956 24.6973V24.2988H169.956ZM169.956 22.4644H170.956V21.4644H169.956V22.4644ZM168.032 22.4644H167.032V23.4644H168.032V22.4644ZM168.032 21.2773V20.2773H167.032V21.2773H168.032ZM170.543 21.2773V24.8066H172.543V21.2773H170.543ZM170.745 24.2035C170.695 24.2698 170.574 24.3948 170.331 24.575L171.523 26.1808C171.839 25.9464 172.128 25.6905 172.34 25.4097L170.745 24.2035ZM170.333 24.5735C170.172 24.6925 169.913 24.8262 169.52 24.9535L170.137 26.8561C170.658 26.6871 171.132 26.4697 171.521 26.1824L170.333 24.5735ZM169.52 24.9535C169.195 25.059 168.738 25.127 168.121 25.127V27.127C168.867 27.127 169.548 27.0468 170.137 26.8561L169.52 24.9535ZM168.121 25.127C167.655 25.127 167.253 25.0491 166.902 24.9076L166.154 26.7623C166.768 27.0102 167.428 27.127 168.121 27.127V25.127ZM166.909 24.9105C166.56 24.7666 166.264 24.5605 166.013 24.2874L164.542 25.6433C164.993 26.1319 165.531 26.5055 166.147 26.7595L166.909 24.9105ZM166.017 24.2918C165.771 24.0222 165.567 23.6799 165.415 23.2458L163.527 23.9046C163.757 24.5623 164.09 25.1468 164.538 25.6388L166.017 24.2918ZM165.416 23.2481C165.269 22.8223 165.186 22.3097 165.186 21.6963H163.186C163.186 22.4878 163.293 23.2278 163.526 23.9023L165.416 23.2481ZM165.186 21.6963V21.0552H163.186V21.6963H165.186ZM165.186 21.0552C165.186 20.438 165.262 19.9211 165.399 19.4919L163.493 18.8861C163.282 19.5486 163.186 20.2758 163.186 21.0552H165.186ZM165.397 19.4964C165.54 19.0554 165.733 18.7129 165.963 18.4474L164.452 17.1375C164.022 17.6338 163.707 18.2223 163.494 18.8815L165.397 19.4964ZM165.963 18.4474C166.192 18.1832 166.463 17.987 166.787 17.8518L166.015 16.0066C165.408 16.2607 164.883 16.64 164.452 17.1375L165.963 18.4474ZM166.791 17.8501C167.119 17.7111 167.514 17.6309 167.994 17.6309V15.6309C167.289 15.6309 166.622 15.7495 166.011 16.0083L166.791 17.8501ZM167.994 17.6309C168.648 17.6309 169.105 17.7414 169.417 17.9015L170.329 16.1219C169.652 15.7742 168.856 15.6309 167.994 15.6309V17.6309ZM169.426 17.9061C169.77 18.0782 170.009 18.301 170.175 18.5732L171.882 17.5323C171.507 16.9158 170.975 16.4446 170.32 16.1173L169.426 17.9061ZM170.175 18.5732C170.364 18.8846 170.494 19.2549 170.55 19.7011L172.535 19.4512C172.447 18.7548 172.234 18.1095 171.882 17.5323L170.175 18.5732ZM171.543 18.5762H169.981V20.5762H171.543V18.5762ZM170.969 19.4202C170.901 18.9891 170.764 18.5812 170.546 18.209L168.819 19.2168C168.898 19.3524 168.96 19.52 168.993 19.7321L170.969 19.4202ZM170.553 18.2199C170.31 17.7918 169.96 17.4615 169.53 17.2331L168.591 18.9993C168.703 19.0587 168.767 19.1261 168.813 19.2059L170.553 18.2199ZM169.546 17.2421C169.083 16.9849 168.552 16.894 168.02 16.894V18.894C168.342 18.894 168.505 18.9513 168.575 18.9904L169.546 17.2421ZM168.02 16.894C167.524 16.894 167.042 16.9886 166.601 17.2091L167.496 18.9979C167.613 18.9391 167.779 18.894 168.02 18.894V16.894ZM166.601 17.2091C166.163 17.4284 165.803 17.75 165.526 18.1527L167.174 19.2858C167.27 19.1468 167.376 19.0579 167.496 18.9979L166.601 17.2091ZM165.52 18.1615C165.258 18.551 165.08 18.997 164.965 19.4769L166.91 19.942C166.982 19.6433 167.078 19.4292 167.18 19.2769L165.52 18.1615ZM164.965 19.4769C164.85 19.9584 164.798 20.4832 164.798 21.0425H166.798C166.798 20.6031 166.839 20.2392 166.91 19.942L164.965 19.4769ZM164.798 21.0425V21.6963H166.798V21.0425H164.798ZM164.798 21.6963C164.798 22.2712 164.858 22.812 164.991 23.3079L166.922 22.7887C166.844 22.4976 166.798 22.137 166.798 21.6963H164.798ZM164.994 23.3176C165.13 23.8065 165.335 24.2567 165.626 24.6449L167.226 23.4449C167.111 23.2915 167.003 23.0773 166.92 22.7791L164.994 23.3176ZM165.632 24.6528C165.933 25.045 166.309 25.3546 166.755 25.5652L167.608 23.7561C167.462 23.6874 167.335 23.5865 167.22 23.437L165.632 24.6528ZM166.766 25.5701C167.21 25.7732 167.689 25.8638 168.185 25.8638V23.8638C167.935 23.8638 167.746 23.819 167.597 23.7512L166.766 25.5701ZM168.185 25.8638C168.594 25.8638 168.983 25.8314 169.326 25.744L168.833 23.8058C168.711 23.8369 168.503 23.8638 168.185 23.8638V25.8638ZM169.343 25.7397C169.627 25.6622 169.913 25.5563 170.162 25.4007L169.102 23.7047C169.08 23.7184 168.998 23.7607 168.817 23.8101L169.343 25.7397ZM170.169 25.3964C170.347 25.2829 170.529 25.148 170.682 24.9866L169.23 23.6111C169.232 23.6084 169.224 23.6169 169.2 23.6358C169.177 23.6542 169.143 23.6788 169.095 23.7091L170.169 25.3964ZM170.956 24.2988V22.4644H168.956V24.2988H170.956ZM169.956 21.4644H168.032V23.4644H169.956V21.4644ZM169.032 22.4644V21.2773H167.032V22.4644H169.032ZM168.032 22.2773H171.543V20.2773H168.032V22.2773ZM176.256 17.9893L177.202 18.3151L177.241 18.2014L177.252 18.0816L176.256 17.9893ZM173.495 26V27H174.208L174.441 26.3259L173.495 26ZM171.826 26L170.89 25.6477L170.381 27H171.826V26ZM175.304 16.7578V15.7578H174.612L174.368 16.4056L175.304 16.7578ZM176.371 16.7578L177.366 16.8502L177.468 15.7578H176.371V16.7578ZM178.567 26L177.622 26.3265L177.854 27H178.567V26ZM175.799 17.9893L174.804 18.0867L174.816 18.2042L174.854 18.3158L175.799 17.9893ZM175.679 16.7578V15.7578H174.576L174.683 16.8553L175.679 16.7578ZM176.751 16.7578L177.687 16.4044L177.443 15.7578H176.751V16.7578ZM180.243 26V27H181.689L181.178 25.6466L180.243 26ZM178.434 22.5723H179.434V21.5723H178.434V22.5723ZM178.434 23.8354V24.8354H179.434V23.8354H178.434ZM173.406 23.8354H172.406V24.8354H173.406V23.8354ZM173.406 22.5723V21.5723H172.406V22.5723H173.406ZM175.311 17.6634L172.55 25.6741L174.441 26.3259L177.202 18.3151L175.311 17.6634ZM173.495 25H171.826V27H173.495V25ZM172.762 26.3523L176.24 17.1101L174.368 16.4056L170.89 25.6477L172.762 26.3523ZM175.304 17.7578H176.371V15.7578H175.304V17.7578ZM175.375 16.6654L175.261 17.8969L177.252 18.0816L177.366 16.8502L175.375 16.6654ZM179.512 25.6735L176.744 17.6627L174.854 18.3158L177.622 26.3265L179.512 25.6735ZM176.795 17.8918L176.674 16.6603L174.683 16.8553L174.804 18.0867L176.795 17.8918ZM175.679 17.7578H176.751V15.7578H175.679V17.7578ZM175.816 17.1112L179.307 26.3534L181.178 25.6466L177.687 16.4044L175.816 17.1112ZM180.243 25H178.567V27H180.243V25ZM177.434 22.5723V23.8354H179.434V22.5723H177.434ZM178.434 22.8354H173.406V24.8354H178.434V22.8354ZM174.406 23.8354V22.5723H172.406V23.8354H174.406ZM173.406 23.5723H178.434V21.5723H173.406V23.5723ZM186.416 24.7368H187.416V23.7368H186.416V24.7368ZM186.416 26V27H187.416V26H186.416ZM181.776 26H180.776V27H181.776V26ZM181.776 24.7368V23.7368H180.776V24.7368H181.776ZM182.221 16.7578H183.221V15.7578H182.221V16.7578ZM182.221 26V27H183.221V26H182.221ZM180.627 26H179.627V27H180.627V26ZM180.627 16.7578V15.7578H179.627V16.7578H180.627ZM185.416 24.7368V26H187.416V24.7368H185.416ZM186.416 25H181.776V27H186.416V25ZM182.776 26V24.7368H180.776V26H182.776ZM181.776 25.7368H186.416V23.7368H181.776V25.7368ZM181.221 16.7578V26H183.221V16.7578H181.221ZM182.221 25H180.627V27H182.221V25ZM181.627 26V16.7578H179.627V26H181.627ZM180.627 17.7578H182.221V15.7578H180.627V17.7578ZM190.724 17.9893L191.669 18.3151L191.709 18.2014L191.72 18.0816L190.724 17.9893ZM187.963 26V27H188.676L188.908 26.3259L187.963 26ZM186.293 26L185.357 25.6477L184.848 27H186.293V26ZM189.772 16.7578V15.7578H189.08L188.836 16.4056L189.772 16.7578ZM190.838 16.7578L191.834 16.8502L191.935 15.7578H190.838V16.7578ZM193.034 26L192.089 26.3265L192.322 27H193.034V26ZM190.267 17.9893L189.272 18.0867L189.283 18.2042L189.322 18.3158L190.267 17.9893ZM190.146 16.7578V15.7578H189.044L189.151 16.8553L190.146 16.7578ZM191.219 16.7578L192.155 16.4044L191.91 15.7578H191.219V16.7578ZM194.71 26V27H196.157L195.646 25.6466L194.71 26ZM192.901 22.5723H193.901V21.5723H192.901V22.5723ZM192.901 23.8354V24.8354H193.901V23.8354H192.901ZM187.874 23.8354H186.874V24.8354H187.874V23.8354ZM187.874 22.5723V21.5723H186.874V22.5723H187.874ZM189.779 17.6634L187.017 25.6741L188.908 26.3259L191.669 18.3151L189.779 17.6634ZM187.963 25H186.293V27H187.963V25ZM187.229 26.3523L190.708 17.1101L188.836 16.4056L185.357 25.6477L187.229 26.3523ZM189.772 17.7578H190.838V15.7578H189.772V17.7578ZM189.842 16.6654L189.728 17.8969L191.72 18.0816L191.834 16.8502L189.842 16.6654ZM193.98 25.6735L191.212 17.6627L189.322 18.3158L192.089 26.3265L193.98 25.6735ZM191.262 17.8918L191.142 16.6603L189.151 16.8553L189.272 18.0867L191.262 17.8918ZM190.146 17.7578H191.219V15.7578H190.146V17.7578ZM190.284 17.1112L193.775 26.3534L195.646 25.6466L192.155 16.4044L190.284 17.1112ZM194.71 25H193.034V27H194.71V25ZM191.901 22.5723V23.8354H193.901V22.5723H191.901ZM192.901 22.8354H187.874V24.8354H192.901V22.8354ZM188.874 23.8354V22.5723H186.874V23.8354H188.874ZM187.874 23.5723H192.901V21.5723H187.874V23.5723ZM206.319 24.7368H207.319V23.7368H206.319V24.7368ZM206.319 26V27H207.319V26H206.319ZM201.412 26H200.412V27H201.412V26ZM201.412 24.7368V23.7368H200.412V24.7368H201.412ZM201.863 16.7578H202.863V15.7578H201.863V16.7578ZM201.863 26V27H202.863V26H201.863ZM200.27 26H199.27V27H200.27V26ZM200.27 16.7578V15.7578H199.27V16.7578H200.27ZM205.678 20.6172H206.678V19.6172H205.678V20.6172ZM205.678 21.8613V22.8613H206.678V21.8613H205.678ZM201.412 21.8613H200.412V22.8613H201.412V21.8613ZM201.412 20.6172V19.6172H200.412V20.6172H201.412ZM206.287 16.7578H207.287V15.7578H206.287V16.7578ZM206.287 18.0273V19.0273H207.287V18.0273H206.287ZM201.412 18.0273H200.412V19.0273H201.412V18.0273ZM201.412 16.7578V15.7578H200.412V16.7578H201.412ZM205.319 24.7368V26H207.319V24.7368H205.319ZM206.319 25H201.412V27H206.319V25ZM202.412 26V24.7368H200.412V26H202.412ZM201.412 25.7368H206.319V23.7368H201.412V25.7368ZM200.863 16.7578V26H202.863V16.7578H200.863ZM201.863 25H200.27V27H201.863V25ZM201.27 26V16.7578H199.27V26H201.27ZM200.27 17.7578H201.863V15.7578H200.27V17.7578ZM204.678 20.6172V21.8613H206.678V20.6172H204.678ZM205.678 20.8613H201.412V22.8613H205.678V20.8613ZM202.412 21.8613V20.6172H200.412V21.8613H202.412ZM201.412 21.6172H205.678V19.6172H201.412V21.6172ZM205.287 16.7578V18.0273H207.287V16.7578H205.287ZM206.287 17.0273H201.412V19.0273H206.287V17.0273ZM202.412 18.0273V16.7578H200.412V18.0273H202.412ZM201.412 17.7578H206.287V15.7578H201.412V17.7578ZM214.302 16.7578H215.302V15.7578H214.302V16.7578ZM214.302 26V27H215.302V26H214.302ZM212.708 26L211.861 26.5307L212.155 27H212.708V26ZM208.563 19.3794L209.411 18.8487L207.563 15.8977V19.3794H208.563ZM208.563 26V27H209.563V26H208.563ZM206.97 26H205.97V27H206.97V26ZM206.97 16.7578V15.7578H205.97V16.7578H206.97ZM208.563 16.7578L209.411 16.2267L209.117 15.7578H208.563V16.7578ZM212.721 23.3911L211.874 23.9222L213.721 26.8694V23.3911H212.721ZM212.721 16.7578V15.7578H211.721V16.7578H212.721ZM213.302 16.7578V26H215.302V16.7578H213.302ZM214.302 25H212.708V27H214.302V25ZM213.556 25.4693L209.411 18.8487L207.716 19.9101L211.861 26.5307L213.556 25.4693ZM207.563 19.3794V26H209.563V19.3794H207.563ZM208.563 25H206.97V27H208.563V25ZM207.97 26V16.7578H205.97V26H207.97ZM206.97 17.7578H208.563V15.7578H206.97V17.7578ZM207.716 17.2889L211.874 23.9222L213.568 22.86L209.411 16.2267L207.716 17.2889ZM213.721 23.3911V16.7578H211.721V23.3911H213.721ZM212.721 17.7578H214.302V15.7578H212.721V17.7578Z" fill="black" mask="url(#path-25-outside-1_270_111)"/>
</svg>
