<svg width="335" height="77" viewBox="0 0 335 77" fill="none" xmlns="http://www.w3.org/2000/svg">
<rect x="0.5" y="0.5" width="334" height="76" rx="11.5" fill="black"/>
<rect x="0.5" y="0.5" width="334" height="76" rx="11.5" stroke="white"/>
<path d="M275.025 8.71289H59.9748C52.809 8.71289 47 13.7214 47 19.8998V57.0991C47 63.2774 52.809 68.2859 59.9748 68.2859H275.025C282.191 68.2859 288 63.2774 288 57.0991V19.8998C288 13.7214 282.191 8.71289 275.025 8.71289Z" fill="black"/>
<path d="M106.101 48.1283C102.976 47.6439 100.531 44.0116 100.531 39.5981C100.531 35.7391 102.398 32.4661 104.968 31.3881C105.043 31.3611 105.11 31.3171 105.164 31.2595C105.219 31.2019 105.259 31.1323 105.282 31.0564C105.305 30.9805 105.309 30.9003 105.296 30.8222C105.282 30.7442 105.25 30.6704 105.203 30.6069C104.24 29.1517 102.92 27.9674 101.369 27.1674C99.8182 26.3674 98.0882 25.9783 96.3442 26.037C93.0009 26.037 91.9151 28.1697 88.2514 28.2947C84.5956 28.1697 83.5098 26.037 80.1586 26.037C63.9105 26.037 65.5431 55.0494 80.8226 61.6267C82.9552 62.3532 84.1816 59.7206 88.2514 59.5878C92.3213 59.7206 93.5477 62.3532 95.6881 61.6267C101.008 59.3379 104.679 54.3151 106.507 48.7454C106.523 48.6781 106.525 48.6081 106.513 48.54C106.501 48.4719 106.475 48.4069 106.437 48.3491C106.399 48.2913 106.35 48.242 106.292 48.204C106.234 48.166 106.169 48.1402 106.101 48.1283Z" fill="#F9F9F9"/>
<path d="M88.0562 25.4692C89.0951 25.352 92.5088 24.7818 94.5398 22.3836C96.5708 19.9855 96.5708 16.5327 96.5161 15.4859C96.5132 15.4452 96.5021 15.4054 96.4835 15.369C96.4649 15.3326 96.4392 15.3003 96.4078 15.2741C96.3765 15.2478 96.3402 15.2282 96.3011 15.2163C96.262 15.2044 96.2209 15.2005 96.1802 15.2048C95.1413 15.3298 91.7354 15.9001 89.7044 18.3295C87.6734 20.7589 87.6734 24.1802 87.7203 25.227C87.7337 25.3031 87.7763 25.3711 87.839 25.4164C87.9018 25.4616 87.9797 25.4805 88.0562 25.4692Z" fill="#F9F9F9"/>
<path d="M137.019 52.5448H128.622L126.677 58.4426H122.474L130.567 35.6328H135.168L143.261 58.4426H138.964L137.019 52.5448ZM129.575 49.4202H136.05L132.879 39.687H132.762L129.575 49.4202Z" fill="#F9F9F9"/>
<path d="M159.985 43.3568C161.282 44.9192 161.922 47.0986 161.922 49.8092C162.046 52.1101 161.367 54.3825 160.001 56.2381C159.381 57.0165 158.588 57.6385 157.684 58.0537C156.781 58.469 155.792 58.6659 154.798 58.6285C152.236 58.6285 150.429 57.6105 149.377 55.5743H149.299V63.9874H145.393V41.1619H149.236V44.0678H149.314C149.797 43.1133 150.557 42.3264 151.494 41.8102C152.492 41.249 153.621 40.9608 154.767 40.9744C155.762 40.9405 156.751 41.1379 157.656 41.5514C158.562 41.9648 159.359 42.5828 159.985 43.3568ZM156.712 53.8558C157.487 52.6484 157.899 51.2438 157.899 49.8092C157.899 48.3746 157.487 46.9702 156.712 45.7629C156.342 45.2874 155.868 44.9027 155.326 44.638C154.785 44.3734 154.19 44.236 153.587 44.236C152.985 44.236 152.39 44.3734 151.848 44.638C151.307 44.9027 150.833 45.2874 150.463 45.7629C149.688 46.9644 149.275 48.3638 149.275 49.7936C149.275 51.2234 149.688 52.6229 150.463 53.8245C150.836 54.296 151.31 54.6769 151.851 54.9388C152.393 55.2007 152.986 55.3368 153.587 55.3368C154.188 55.3368 154.782 55.2007 155.323 54.9388C155.864 54.6769 156.339 54.296 156.712 53.8245V53.8558Z" fill="#F9F9F9"/>
<path d="M179.186 43.3563C180.449 45.2669 181.123 47.5067 181.123 49.7971C181.123 52.0874 180.449 54.3271 179.186 56.2376C178.568 57.0165 177.774 57.6389 176.87 58.0542C175.967 58.4695 174.978 58.666 173.984 58.628C171.429 58.628 169.617 57.6126 168.563 55.5738H168.516V63.9869H164.61V41.1614H168.453V44.0673H168.531C169.017 43.1145 169.776 42.3282 170.711 41.8096C171.71 41.2491 172.838 40.961 173.984 40.9739C174.976 40.9424 175.962 41.1411 176.865 41.5545C177.767 41.9678 178.562 42.5845 179.186 43.3563ZM175.913 53.8553C176.688 52.6479 177.1 51.2433 177.1 49.8087C177.1 48.3741 176.688 46.9697 175.913 45.7624C175.543 45.2869 175.069 44.9021 174.527 44.6375C173.986 44.3729 173.391 44.2355 172.789 44.2355C172.186 44.2355 171.591 44.3729 171.05 44.6375C170.508 44.9021 170.034 45.2869 169.664 45.7624C168.889 46.9639 168.477 48.3633 168.477 49.7931C168.477 51.2229 168.889 52.6224 169.664 53.824C170.037 54.2955 170.512 54.6764 171.053 54.9383C171.594 55.2002 172.187 55.3363 172.789 55.3363C173.39 55.3363 173.983 55.2002 174.524 54.9383C175.065 54.6764 175.54 54.2955 175.913 53.824V53.8553Z" fill="#F9F9F9"/>
<path d="M194.356 52.0202C194.421 52.5376 194.601 53.0339 194.883 53.4721C195.166 53.9103 195.544 54.2791 195.989 54.5511C197.036 55.2132 198.258 55.5427 199.496 55.4963C200.686 55.5467 201.862 55.2275 202.863 54.5824C203.26 54.3342 203.588 53.9887 203.815 53.5787C204.042 53.1686 204.161 52.7075 204.16 52.2389C204.169 51.8553 204.087 51.4749 203.922 51.1288C203.756 50.7826 203.511 50.4805 203.207 50.2469C202.27 49.5999 201.204 49.1655 200.082 48.9737L197.129 48.2784C193 47.3254 190.932 45.2423 190.927 42.0291C190.907 41.0793 191.114 40.1383 191.529 39.284C191.945 38.4297 192.558 37.6864 193.317 37.1156C195.076 35.8114 197.23 35.1522 199.418 35.2487C201.597 35.1459 203.743 35.8061 205.488 37.1156C206.222 37.696 206.814 38.4359 207.22 39.279C207.626 40.1222 207.835 41.0464 207.831 41.9822H203.925C203.893 41.4877 203.751 41.0065 203.51 40.573C203.27 40.1396 202.937 39.7646 202.535 39.4747C201.596 38.8349 200.475 38.517 199.34 38.5686C198.232 38.518 197.136 38.8246 196.215 39.4434C195.842 39.6958 195.539 40.0375 195.331 40.4372C195.124 40.8369 195.02 41.2821 195.028 41.7324C195.022 42.0939 195.105 42.4513 195.268 42.7738C195.431 43.0964 195.671 43.3743 195.965 43.5836C196.881 44.1817 197.906 44.5932 198.981 44.7945L201.605 45.396C203.949 45.9271 205.589 46.6927 206.636 47.7394C207.164 48.2713 207.575 48.9071 207.844 49.6063C208.113 50.3056 208.234 51.0531 208.198 51.8014C208.233 52.7918 208.03 53.776 207.606 54.6717C207.182 55.5673 206.549 56.3484 205.761 56.9493C204.152 58.2148 201.967 58.8475 199.207 58.8475C196.949 58.9638 194.717 58.3232 192.864 57.0273C192.087 56.4501 191.454 55.7002 191.017 54.8366C190.579 53.9731 190.347 53.0196 190.341 52.0515L194.356 52.0202Z" fill="#F9F9F9"/>
<path d="M216.041 37.3047V41.1638H219.291V44.218H216.018V53.3185C215.976 53.6026 216.001 53.8926 216.091 54.1654C216.181 54.4382 216.333 54.6863 216.536 54.8901C216.738 55.094 216.985 55.2481 217.257 55.34C217.529 55.4319 217.819 55.4593 218.103 55.4199C218.495 55.4191 218.887 55.3929 219.275 55.3417V58.3571C218.593 58.4845 217.899 58.5395 217.205 58.5211C215.369 58.5211 214.08 58.1617 213.299 57.443C212.518 56.7243 212.12 55.5215 212.12 53.8576V44.218H209.776V41.1638H212.12V37.3047H216.041Z" fill="#F9F9F9"/>
<path d="M223.298 56.3019C221.809 54.7396 221.061 52.5705 221.056 49.7948C220.931 47.4214 221.741 45.0936 223.314 43.3113C224.961 41.7805 227.127 40.9297 229.375 40.9297C231.624 40.9297 233.79 41.7805 235.437 43.3113C237.013 45.0915 237.824 47.4208 237.695 49.7948C237.695 52.5445 236.953 54.7161 235.453 56.3019C233.802 57.8382 231.631 58.6923 229.375 58.6923C227.12 58.6923 224.949 57.8382 223.298 56.3019ZM232.57 54.0288C233.317 52.7484 233.71 51.2926 233.71 49.8104C233.71 48.3282 233.317 46.8726 232.57 45.5922C232.19 45.1167 231.707 44.7327 231.158 44.4689C230.609 44.2051 230.008 44.0682 229.399 44.0682C228.79 44.0682 228.189 44.2051 227.64 44.4689C227.091 44.7327 226.608 45.1167 226.227 45.5922C225.475 46.8708 225.079 48.3271 225.079 49.8104C225.079 51.2938 225.475 52.7503 226.227 54.0288C226.586 54.5161 227.058 54.9086 227.602 55.1727C228.147 55.4367 228.747 55.5643 229.352 55.5442C229.972 55.575 230.589 55.453 231.151 55.1887C231.712 54.9244 232.199 54.5261 232.57 54.0288Z" fill="#F9F9F9"/>
<path d="M240.32 41.1635H244.1V44.163H244.179C244.407 43.234 244.94 42.4086 245.694 41.8195C246.45 41.2539 247.375 40.9596 248.319 40.9838C248.725 40.9747 249.131 41.0273 249.522 41.14V44.7254C249.022 44.5442 248.491 44.4647 247.959 44.4912C247.457 44.4638 246.954 44.5442 246.485 44.7275C246.016 44.9108 245.592 45.1924 245.241 45.5535C244.549 46.3458 244.196 47.3779 244.257 48.4281V58.4504H240.351L240.32 41.1635Z" fill="#F9F9F9"/>
<path d="M266.16 53.3002C266.043 54.0879 265.762 54.8423 265.335 55.5149C264.909 56.1876 264.346 56.7636 263.684 57.206C262.179 58.2374 260.384 58.7627 258.56 58.7057C257.442 58.7664 256.324 58.5887 255.281 58.1847C254.237 57.7807 253.291 57.1596 252.506 56.3623C251.027 54.8 250.29 52.6518 250.295 49.9177C250.173 47.5435 250.964 45.2126 252.506 43.4028C253.255 42.5922 254.173 41.9551 255.194 41.5355C256.215 41.1159 257.316 40.9241 258.419 40.9735C259.49 40.922 260.56 41.1011 261.556 41.4987C262.552 41.8962 263.451 42.503 264.192 43.2778C265.685 45.0062 266.45 47.2465 266.324 49.5271V50.8238H254.263V51.066C254.234 51.6774 254.327 52.2886 254.537 52.8638C254.746 53.4391 255.067 53.9671 255.482 54.4172C255.893 54.8425 256.39 55.1759 256.939 55.3954C257.488 55.6148 258.078 55.7153 258.669 55.6904C259.53 55.714 260.38 55.4948 261.122 55.0578C261.776 54.6885 262.267 54.0858 262.497 53.3704L266.16 53.3002ZM255.544 45.1291C254.758 45.934 254.301 47.0041 254.263 48.1288H262.45C262.462 47.015 262.042 45.9397 261.278 45.1291C260.907 44.7503 260.461 44.4532 259.969 44.2568C259.477 44.0604 258.949 43.9691 258.419 43.9886C257.893 43.9773 257.369 44.0724 256.881 44.2684C256.392 44.4644 255.948 44.7572 255.576 45.1291H255.544Z" fill="#F9F9F9"/>
<path d="M129.059 13.6121H124.302V26.8918H129.059C129.91 26.9415 130.762 26.8105 131.559 26.5076C132.356 26.2046 133.08 25.7367 133.683 25.1342C134.855 23.7782 135.45 22.0173 135.34 20.2285C135.453 18.4487 134.858 16.6963 133.683 15.3541C133.078 14.7557 132.353 14.2912 131.557 13.9911C130.76 13.691 129.909 13.5619 129.059 13.6121ZM132.113 23.853C131.694 24.284 131.187 24.619 130.626 24.8348C130.065 25.0506 129.464 25.142 128.864 25.103H126.333V15.3854H128.832C129.433 15.3473 130.034 15.44 130.595 15.6571C131.157 15.8743 131.664 16.2106 132.082 16.6429C132.819 17.7005 133.215 18.9588 133.215 20.248C133.215 21.5372 132.819 22.7954 132.082 23.853H132.113Z" fill="#F9F9F9"/>
<path d="M141.378 16.7669C140.737 16.737 140.098 16.8456 139.503 17.0856C138.909 17.3256 138.373 17.6911 137.933 18.1572C137.101 19.2239 136.648 20.5382 136.648 21.8912C136.648 23.2442 137.101 24.5584 137.933 25.6251C138.376 26.0896 138.913 26.4536 139.509 26.6922C140.105 26.9307 140.745 27.0383 141.386 27.0078C142.024 27.0391 142.662 26.9318 143.256 26.6931C143.849 26.4545 144.384 26.0901 144.823 25.6251C145.653 24.5561 146.104 23.241 146.104 21.8874C146.104 20.5337 145.653 19.2186 144.823 18.1496C144.382 17.6849 143.846 17.3206 143.251 17.082C142.657 16.8434 142.018 16.736 141.378 16.7669ZM143.362 24.4378C143.13 24.7398 142.829 24.9809 142.483 25.1402C142.137 25.2994 141.758 25.3721 141.378 25.3518C140.997 25.3681 140.618 25.2937 140.272 25.1348C139.925 24.9759 139.622 24.7369 139.386 24.4378C138.92 23.6699 138.674 22.7891 138.674 21.8912C138.674 20.9933 138.92 20.1125 139.386 19.3446C139.62 19.043 139.923 18.802 140.27 18.6416C140.616 18.4812 140.996 18.4062 141.378 18.4229C141.759 18.4035 142.138 18.4774 142.484 18.638C142.83 18.7986 143.131 19.0411 143.362 19.3446C143.827 20.1125 144.073 20.9933 144.073 21.8912C144.073 22.7891 143.827 23.6699 143.362 24.4378Z" fill="#F9F9F9"/>
<path d="M156.954 24.8056H156.915L154.79 16.9004H152.877L150.76 24.8056H150.728L148.869 16.9004H146.877L149.643 26.8915H151.689L153.798 19.361H153.845L155.97 26.8915H158.032L160.782 16.9004H158.813L156.954 24.8056Z" fill="#F9F9F9"/>
<path d="M167.235 16.7847C166.576 16.7305 165.916 16.8721 165.338 17.1917C164.76 17.5114 164.289 17.9948 163.985 18.5813H163.946V16.9018H162.04V26.8929H164.04V21.12C164.008 20.4188 164.255 19.7336 164.727 19.214C164.962 18.975 165.245 18.7882 165.557 18.6657C165.87 18.5433 166.204 18.488 166.539 18.5033C166.846 18.4824 167.154 18.5257 167.443 18.6307C167.733 18.7356 167.997 18.8998 168.219 19.1126C168.631 19.599 168.838 20.2262 168.797 20.8624V26.8929H170.789V20.4874C170.845 19.492 170.505 18.5145 169.844 17.7688C169.5 17.4335 169.091 17.1731 168.642 17.0037C168.193 16.8343 167.714 16.7598 167.235 16.7847Z" fill="#F9F9F9"/>
<path d="M174.874 13.0176H172.875V26.891H174.874V13.0176Z" fill="#F9F9F9"/>
<path d="M181.272 16.7669C180.631 16.737 179.992 16.8456 179.397 17.0856C178.803 17.3256 178.267 17.6911 177.827 18.1572C176.998 19.2256 176.549 20.5392 176.549 21.8912C176.549 23.2432 176.998 24.5568 177.827 25.6251C178.27 26.0896 178.807 26.4536 179.403 26.6922C179.998 26.9307 180.639 27.0383 181.279 27.0078C181.918 27.0391 182.556 26.9318 183.15 26.6931C183.743 26.4545 184.277 26.0901 184.717 25.6251C185.547 24.5561 185.998 23.241 185.998 21.8874C185.998 20.5337 185.547 19.2186 184.717 18.1496C184.276 17.6849 183.74 17.3206 183.145 17.082C182.551 16.8434 181.912 16.736 181.272 16.7669ZM183.256 24.4378C183.011 24.7246 182.707 24.9549 182.364 25.1129C182.022 25.2708 181.649 25.3526 181.272 25.3526C180.894 25.3526 180.522 25.2708 180.179 25.1129C179.837 24.9549 179.532 24.7246 179.288 24.4378C178.818 23.6713 178.569 22.79 178.569 21.8912C178.569 20.9923 178.818 20.111 179.288 19.3446C179.531 19.0554 179.835 18.8229 180.177 18.6634C180.52 18.5039 180.894 18.4213 181.272 18.4213C181.65 18.4213 182.023 18.5039 182.366 18.6634C182.709 18.8229 183.012 19.0554 183.256 19.3446C183.721 20.1125 183.967 20.9933 183.967 21.8912C183.967 22.7891 183.721 23.6699 183.256 24.4378Z" fill="#F9F9F9"/>
<path d="M194.536 17.6584C193.693 17.0831 192.697 16.7754 191.677 16.7754C190.657 16.7754 189.66 17.0831 188.818 17.6584C188.467 17.9099 188.179 18.2386 187.976 18.6192C187.773 18.9998 187.66 19.4222 187.646 19.8535H189.513C189.593 19.4309 189.837 19.0572 190.192 18.8145C190.637 18.5522 191.147 18.4199 191.663 18.4323C192.18 18.4447 192.682 18.6015 193.114 18.8849C193.3 19.0471 193.445 19.2499 193.54 19.4774C193.635 19.7049 193.676 19.9511 193.661 20.1972V20.9783L190.966 21.1345C189.958 21.1389 188.975 21.4406 188.138 22.0017C187.819 22.2364 187.563 22.5456 187.391 22.9024C187.22 23.2592 187.138 23.6526 187.154 24.0482C187.139 24.4548 187.216 24.8595 187.378 25.2325C187.54 25.6056 187.784 25.9376 188.091 26.2042C188.781 26.7543 189.648 27.0322 190.528 26.9854C191.187 26.9911 191.837 26.8243 192.411 26.5012C192.957 26.2118 193.402 25.7618 193.684 25.2121H193.731V26.8839H195.637V20.0253C195.651 19.5722 195.558 19.1221 195.367 18.7111C195.176 18.3001 194.891 17.9397 194.536 17.6584ZM193.661 23.1265C193.664 23.4402 193.595 23.7505 193.46 24.0335C193.324 24.3165 193.126 24.5648 192.88 24.7592C192.358 25.1892 191.697 25.414 191.021 25.3918C190.529 25.4162 190.044 25.279 189.638 25.0012C189.475 24.8883 189.343 24.7361 189.254 24.5586C189.165 24.3811 189.122 24.1842 189.13 23.9859C189.13 23.0875 189.818 22.5953 191.2 22.5094L193.622 22.3453L193.661 23.1265Z" fill="#F9F9F9"/>
<path d="M204.574 18.5559H204.527C204.237 17.9881 203.785 17.5186 203.23 17.206C202.674 16.8934 202.038 16.7514 201.402 16.7983C200.825 16.7808 200.251 16.8965 199.725 17.1362C199.2 17.376 198.737 17.7334 198.371 18.1809C197.613 19.2684 197.207 20.5622 197.207 21.8876C197.207 23.2131 197.613 24.5066 198.371 25.5941C198.737 26.0462 199.202 26.4077 199.731 26.6503C200.259 26.8929 200.837 27.0099 201.418 26.9924C202.068 27.0407 202.718 26.8961 203.286 26.5765C203.855 26.2569 204.316 25.7764 204.613 25.1957V26.891H206.55V13.0176H204.558L204.574 18.5559ZM203.847 24.36C203.615 24.6557 203.318 24.8946 202.98 25.059C202.642 25.2234 202.27 25.3088 201.894 25.3088C201.518 25.3088 201.147 25.2234 200.809 25.059C200.47 24.8946 200.174 24.6557 199.941 24.36C199.463 23.6229 199.208 22.7626 199.208 21.8836C199.208 21.0046 199.463 20.1446 199.941 19.4074C200.174 19.1117 200.47 18.8726 200.809 18.7083C201.147 18.5439 201.518 18.4586 201.894 18.4586C202.27 18.4586 202.642 18.5439 202.98 18.7083C203.318 18.8726 203.615 19.1117 203.847 19.4074C204.331 20.1397 204.589 20.998 204.589 21.8758C204.589 22.7536 204.331 23.6121 203.847 24.3444V24.36Z" fill="#F9F9F9"/>
<path d="M217.299 16.7671C216.659 16.7373 216.021 16.846 215.428 17.086C214.835 17.326 214.3 17.6915 213.862 18.1574C213.029 19.2241 212.577 20.5383 212.577 21.8914C212.577 23.2444 213.029 24.5586 213.862 25.6253C214.789 26.5125 216.023 27.0076 217.307 27.0076C218.59 27.0076 219.824 26.5125 220.751 25.6253C221.582 24.5563 222.033 23.2412 222.033 21.8876C222.033 20.5339 221.582 19.2188 220.751 18.1498C220.309 17.6844 219.772 17.32 219.176 17.0814C218.58 16.8428 217.94 16.7356 217.299 16.7671ZM219.291 24.438C219.045 24.725 218.74 24.9555 218.397 25.1135C218.054 25.2714 217.68 25.3532 217.303 25.3532C216.925 25.3532 216.551 25.2714 216.208 25.1135C215.865 24.9555 215.56 24.725 215.315 24.438C214.845 23.6715 214.596 22.7902 214.596 21.8914C214.596 20.9925 214.845 20.1112 215.315 19.3448C215.559 19.0554 215.863 18.8229 216.207 18.6634C216.55 18.5038 216.924 18.4212 217.303 18.4212C217.681 18.4212 218.055 18.5038 218.399 18.6634C218.742 18.8229 219.046 19.0554 219.291 19.3448C219.751 20.1144 219.994 20.9945 219.994 21.8914C219.994 22.7882 219.751 23.6683 219.291 24.438Z" fill="#F9F9F9"/>
<path d="M228.813 16.7847C228.154 16.7305 227.495 16.8721 226.916 17.1917C226.338 17.5114 225.867 17.9948 225.563 18.5813V16.9018H223.657V26.8929H225.657V21.12C225.629 20.4193 225.875 19.7353 226.344 19.214C226.58 18.975 226.863 18.7882 227.175 18.6657C227.487 18.5433 227.822 18.488 228.157 18.5033C228.464 18.4824 228.772 18.5257 229.061 18.6307C229.35 18.7356 229.614 18.8998 229.836 19.1126C230.248 19.599 230.455 20.2262 230.414 20.8624V26.8929H232.414V20.4874C232.467 19.491 232.125 18.5137 231.461 17.7688C231.114 17.4277 230.698 17.1637 230.242 16.9941C229.786 16.8245 229.299 16.7533 228.813 16.7847Z" fill="#F9F9F9"/>
<path d="M241.296 14.6484H239.312V16.8983H237.929V18.4606H239.312V24.2489C239.276 24.6186 239.313 24.9918 239.421 25.347C239.53 25.7023 239.708 26.0327 239.944 26.3191C240.548 26.7942 241.312 27.0179 242.077 26.9439C242.455 26.9549 242.832 26.9209 243.202 26.8424V25.2801C242.976 25.3091 242.749 25.3222 242.522 25.3192C242.353 25.3407 242.18 25.3224 242.019 25.2658C241.858 25.2092 241.712 25.1159 241.593 24.9931C241.474 24.8703 241.385 24.7215 241.333 24.5584C241.282 24.3954 241.269 24.2225 241.296 24.0536V18.4684H243.21V16.9061H241.296V14.6484Z" fill="#F9F9F9"/>
<path d="M250.248 16.7828C249.589 16.7265 248.929 16.8672 248.35 17.1871C247.772 17.507 247.301 17.9915 246.999 18.5793H246.952V13.0176H244.975V26.891H246.975V21.165C246.959 20.8116 247.014 20.4585 247.137 20.127C247.261 19.7954 247.45 19.4921 247.694 19.2356C247.936 18.9889 248.227 18.7961 248.549 18.6695C248.871 18.543 249.215 18.4857 249.561 18.5013C249.875 18.486 250.189 18.5341 250.484 18.6428C250.78 18.7515 251.05 18.9185 251.279 19.1339C251.495 19.3705 251.662 19.648 251.769 19.9498C251.876 20.2516 251.922 20.5717 251.904 20.8915V26.891H253.896V20.501C253.92 20.0064 253.843 19.5123 253.671 19.0479C253.499 18.5836 253.236 18.1585 252.896 17.7982C252.548 17.4566 252.133 17.1902 251.678 17.0155C251.222 16.8408 250.736 16.7617 250.248 16.7828Z" fill="#F9F9F9"/>
<path d="M264.528 22.3985V21.6954C264.6 20.3879 264.17 19.1022 263.325 18.1022C262.911 17.6549 262.404 17.3036 261.84 17.0729C261.276 16.8421 260.668 16.7375 260.059 16.7664C259.431 16.7394 258.803 16.8514 258.223 17.0944C257.642 17.3375 257.122 17.7055 256.7 18.1724C255.819 19.2197 255.366 20.5623 255.435 21.9298C255.36 23.2814 255.814 24.6091 256.7 25.6325C257.14 26.096 257.675 26.4589 258.268 26.6963C258.862 26.9336 259.499 27.0396 260.137 27.0073C261.163 27.037 262.172 26.7417 263.02 26.1636C263.394 25.9134 263.712 25.5886 263.954 25.2095C264.196 24.8303 264.356 24.4052 264.426 23.9609H262.52C262.383 24.4004 262.084 24.7716 261.684 24.9997C261.228 25.2684 260.706 25.4037 260.177 25.3903C259.81 25.4085 259.445 25.3484 259.104 25.2137C258.763 25.0789 258.455 24.8727 258.2 24.6091C257.938 24.3323 257.734 24.0061 257.6 23.6492C257.466 23.2924 257.404 22.9122 257.419 22.5313V22.4142L264.528 22.3985ZM258.278 19.1099C258.51 18.8753 258.788 18.691 259.095 18.5687C259.401 18.4463 259.73 18.3885 260.059 18.3989C260.388 18.3852 260.715 18.4409 261.021 18.562C261.326 18.6831 261.603 18.8671 261.833 19.1021C262.3 19.6168 262.554 20.2897 262.543 20.9846H257.482C257.503 20.285 257.781 19.6178 258.263 19.1099H258.278Z" fill="#F9F9F9"/>
<path d="M109.5 7H288.5V31H109.5V7Z" fill="black" stroke="black"/>
<mask id="path-27-outside-1_270_138" maskUnits="userSpaceOnUse" x="125" y="15" width="98" height="13" fill="black">
<rect fill="white" x="125" y="15" width="98" height="13"/>
<path d="M129.014 26H127.04L127.053 24.7368H129.014C129.586 24.7368 130.064 24.612 130.449 24.3623C130.838 24.1126 131.13 23.755 131.325 23.2896C131.524 22.8241 131.623 22.2697 131.623 21.6265V21.125C131.623 20.6257 131.566 20.1834 131.452 19.7983C131.342 19.4132 131.177 19.0895 130.957 18.8271C130.741 18.5648 130.474 18.3659 130.157 18.2305C129.844 18.0951 129.482 18.0273 129.071 18.0273H127.002V16.7578H129.071C129.685 16.7578 130.246 16.8615 130.754 17.0688C131.261 17.272 131.699 17.5661 132.068 17.9512C132.44 18.3363 132.726 18.7975 132.925 19.335C133.123 19.8724 133.223 20.4733 133.223 21.1377V21.6265C133.223 22.2909 133.123 22.8918 132.925 23.4292C132.726 23.9666 132.44 24.4279 132.068 24.813C131.695 25.1938 131.251 25.488 130.735 25.6953C130.223 25.8984 129.649 26 129.014 26ZM127.923 16.7578V26H126.329V16.7578H127.923ZM140.222 24.7368V26H135.315V24.7368H140.222ZM135.766 16.7578V26H134.172V16.7578H135.766ZM139.581 20.6172V21.8613H135.315V20.6172H139.581ZM140.19 16.7578V18.0273H135.315V16.7578H140.19ZM145.735 23.6196C145.735 23.4292 145.706 23.2599 145.646 23.1118C145.591 22.9637 145.492 22.8283 145.348 22.7056C145.204 22.5828 145.001 22.4644 144.739 22.3501C144.481 22.2316 144.151 22.111 143.749 21.9883C143.308 21.8529 142.902 21.7026 142.53 21.5376C142.162 21.3683 141.84 21.1737 141.565 20.9536C141.29 20.7293 141.076 20.4733 140.924 20.1855C140.771 19.8936 140.695 19.5571 140.695 19.1763C140.695 18.7996 140.774 18.4569 140.93 18.1479C141.091 17.839 141.317 17.5724 141.609 17.3481C141.906 17.1196 142.255 16.944 142.657 16.8213C143.059 16.6943 143.503 16.6309 143.99 16.6309C144.675 16.6309 145.266 16.7578 145.761 17.0117C146.26 17.2656 146.643 17.6063 146.91 18.0337C147.181 18.4611 147.316 18.9329 147.316 19.4492H145.735C145.735 19.1445 145.67 18.8758 145.539 18.6431C145.412 18.4061 145.217 18.2199 144.955 18.0845C144.696 17.9491 144.368 17.8813 143.971 17.8813C143.594 17.8813 143.281 17.9385 143.031 18.0527C142.782 18.167 142.595 18.3215 142.473 18.5161C142.35 18.7108 142.289 18.9308 142.289 19.1763C142.289 19.3498 142.329 19.5085 142.409 19.6523C142.49 19.792 142.612 19.9232 142.777 20.0459C142.942 20.1644 143.15 20.2765 143.399 20.3823C143.649 20.4881 143.943 20.5897 144.282 20.687C144.794 20.8394 145.24 21.0086 145.621 21.1948C146.002 21.3768 146.319 21.5841 146.573 21.8169C146.827 22.0496 147.018 22.3141 147.145 22.6104C147.271 22.9023 147.335 23.2345 147.335 23.6069C147.335 23.9963 147.257 24.3475 147.1 24.6606C146.944 24.9696 146.719 25.234 146.427 25.4541C146.139 25.6699 145.792 25.8371 145.386 25.9556C144.984 26.0698 144.536 26.127 144.041 26.127C143.596 26.127 143.158 26.0677 142.727 25.9492C142.299 25.8307 141.91 25.6509 141.559 25.4097C141.207 25.1642 140.928 24.8595 140.721 24.4956C140.513 24.1274 140.41 23.6979 140.41 23.207H142.003C142.003 23.5075 142.054 23.7635 142.155 23.9751C142.261 24.1867 142.407 24.3602 142.593 24.4956C142.779 24.6268 142.995 24.7241 143.241 24.7876C143.49 24.8511 143.757 24.8828 144.041 24.8828C144.413 24.8828 144.724 24.8299 144.974 24.7241C145.228 24.6183 145.418 24.4702 145.545 24.2798C145.672 24.0894 145.735 23.8693 145.735 23.6196ZM153.553 22.9912H155.14C155.089 23.5964 154.92 24.1359 154.632 24.6099C154.344 25.0796 153.94 25.4499 153.42 25.7207C152.899 25.9915 152.267 26.127 151.522 26.127C150.951 26.127 150.436 26.0254 149.979 25.8223C149.522 25.6149 149.131 25.3229 148.805 24.9463C148.479 24.5654 148.23 24.1063 148.056 23.5688C147.887 23.0314 147.802 22.4305 147.802 21.7661V20.998C147.802 20.3337 147.889 19.7327 148.062 19.1953C148.24 18.6579 148.494 18.1987 148.824 17.8179C149.154 17.4328 149.55 17.1387 150.011 16.9355C150.477 16.7324 150.999 16.6309 151.579 16.6309C152.315 16.6309 152.937 16.7663 153.445 17.0371C153.953 17.3079 154.347 17.6825 154.626 18.1606C154.909 18.6388 155.083 19.1868 155.146 19.8047H153.559C153.517 19.4069 153.424 19.0662 153.28 18.7827C153.141 18.4992 152.933 18.2834 152.658 18.1353C152.383 17.9829 152.023 17.9067 151.579 17.9067C151.215 17.9067 150.898 17.9744 150.627 18.1099C150.356 18.2453 150.13 18.4442 149.948 18.7065C149.766 18.9689 149.628 19.2926 149.535 19.6777C149.446 20.0586 149.402 20.4945 149.402 20.9854V21.7661C149.402 22.2316 149.442 22.6548 149.522 23.0356C149.607 23.4123 149.734 23.736 149.903 24.0068C150.077 24.2777 150.297 24.4871 150.563 24.6353C150.83 24.7834 151.149 24.8574 151.522 24.8574C151.975 24.8574 152.341 24.7855 152.62 24.6416C152.904 24.4977 153.117 24.2882 153.261 24.0132C153.409 23.7339 153.507 23.3932 153.553 22.9912ZM159.536 17.9893L156.775 26H155.106L158.584 16.7578H159.651L159.536 17.9893ZM161.847 26L159.079 17.9893L158.959 16.7578H160.032L163.523 26H161.847ZM161.714 22.5723V23.8354H156.686V22.5723H161.714ZM163.907 16.7578H167.176C167.879 16.7578 168.478 16.8636 168.973 17.0752C169.468 17.2868 169.847 17.5999 170.109 18.0146C170.376 18.4251 170.509 18.9329 170.509 19.5381C170.509 19.9993 170.424 20.4056 170.255 20.7568C170.086 21.1081 169.847 21.4043 169.538 21.6455C169.229 21.8825 168.861 22.0666 168.433 22.1978L167.951 22.4326H165.012L164.999 21.1694H167.202C167.583 21.1694 167.9 21.1017 168.154 20.9663C168.408 20.8309 168.598 20.6468 168.725 20.4141C168.856 20.1771 168.922 19.9105 168.922 19.6143C168.922 19.2926 168.859 19.0133 168.732 18.7764C168.609 18.5352 168.418 18.3511 168.16 18.2241C167.902 18.0929 167.574 18.0273 167.176 18.0273H165.501V26H163.907V16.7578ZM169.182 26L167.011 21.8486L168.681 21.8423L170.883 25.9175V26H169.182ZM178.543 21.2773V24.8066C178.411 24.9801 178.206 25.1706 177.927 25.3779C177.652 25.5811 177.286 25.7567 176.829 25.9048C176.372 26.0529 175.803 26.127 175.121 26.127C174.541 26.127 174.01 26.0296 173.528 25.835C173.046 25.6361 172.629 25.3462 172.277 24.9653C171.93 24.5845 171.662 24.1211 171.471 23.5752C171.281 23.0251 171.186 22.3988 171.186 21.6963V21.0552C171.186 20.3569 171.272 19.7349 171.446 19.189C171.624 18.6388 171.878 18.1733 172.208 17.7925C172.538 17.4116 172.935 17.1239 173.401 16.9292C173.871 16.7303 174.402 16.6309 174.994 16.6309C175.752 16.6309 176.378 16.7578 176.873 17.0117C177.372 17.2614 177.758 17.6084 178.028 18.0527C178.299 18.4971 178.471 19.0049 178.543 19.5762H176.981C176.93 19.2546 176.831 18.9668 176.683 18.7129C176.539 18.459 176.331 18.2601 176.061 18.1162C175.794 17.9681 175.447 17.894 175.02 17.894C174.651 17.894 174.328 17.9639 174.048 18.1035C173.769 18.2432 173.536 18.4484 173.35 18.7192C173.168 18.9901 173.031 19.3201 172.938 19.7095C172.844 20.0988 172.798 20.5431 172.798 21.0425V21.6963C172.798 22.2041 172.851 22.6548 172.957 23.0483C173.067 23.4419 173.223 23.7741 173.426 24.0449C173.634 24.3158 173.886 24.521 174.182 24.6606C174.478 24.7961 174.812 24.8638 175.185 24.8638C175.549 24.8638 175.847 24.8341 176.08 24.7749C176.312 24.7114 176.497 24.6374 176.632 24.5527C176.772 24.4639 176.879 24.3792 176.956 24.2988V22.4644H175.032V21.2773H178.543ZM183.256 17.9893L180.495 26H178.826L182.304 16.7578H183.371L183.256 17.9893ZM185.567 26L182.799 17.9893L182.679 16.7578H183.751L187.243 26H185.567ZM185.434 22.5723V23.8354H180.406V22.5723H185.434ZM193.416 24.7368V26H188.776V24.7368H193.416ZM189.221 16.7578V26H187.627V16.7578H189.221ZM197.724 17.9893L194.963 26H193.293L196.772 16.7578H197.838L197.724 17.9893ZM200.034 26L197.267 17.9893L197.146 16.7578H198.219L201.71 26H200.034ZM199.901 22.5723V23.8354H194.874V22.5723H199.901ZM213.319 24.7368V26H208.412V24.7368H213.319ZM208.863 16.7578V26H207.27V16.7578H208.863ZM212.678 20.6172V21.8613H208.412V20.6172H212.678ZM213.287 16.7578V18.0273H208.412V16.7578H213.287ZM221.302 16.7578V26H219.708L215.563 19.3794V26H213.97V16.7578H215.563L219.721 23.3911V16.7578H221.302Z"/>
</mask>
<path d="M129.014 26H127.04L127.053 24.7368H129.014C129.586 24.7368 130.064 24.612 130.449 24.3623C130.838 24.1126 131.13 23.755 131.325 23.2896C131.524 22.8241 131.623 22.2697 131.623 21.6265V21.125C131.623 20.6257 131.566 20.1834 131.452 19.7983C131.342 19.4132 131.177 19.0895 130.957 18.8271C130.741 18.5648 130.474 18.3659 130.157 18.2305C129.844 18.0951 129.482 18.0273 129.071 18.0273H127.002V16.7578H129.071C129.685 16.7578 130.246 16.8615 130.754 17.0688C131.261 17.272 131.699 17.5661 132.068 17.9512C132.44 18.3363 132.726 18.7975 132.925 19.335C133.123 19.8724 133.223 20.4733 133.223 21.1377V21.6265C133.223 22.2909 133.123 22.8918 132.925 23.4292C132.726 23.9666 132.44 24.4279 132.068 24.813C131.695 25.1938 131.251 25.488 130.735 25.6953C130.223 25.8984 129.649 26 129.014 26ZM127.923 16.7578V26H126.329V16.7578H127.923ZM140.222 24.7368V26H135.315V24.7368H140.222ZM135.766 16.7578V26H134.172V16.7578H135.766ZM139.581 20.6172V21.8613H135.315V20.6172H139.581ZM140.19 16.7578V18.0273H135.315V16.7578H140.19ZM145.735 23.6196C145.735 23.4292 145.706 23.2599 145.646 23.1118C145.591 22.9637 145.492 22.8283 145.348 22.7056C145.204 22.5828 145.001 22.4644 144.739 22.3501C144.481 22.2316 144.151 22.111 143.749 21.9883C143.308 21.8529 142.902 21.7026 142.53 21.5376C142.162 21.3683 141.84 21.1737 141.565 20.9536C141.29 20.7293 141.076 20.4733 140.924 20.1855C140.771 19.8936 140.695 19.5571 140.695 19.1763C140.695 18.7996 140.774 18.4569 140.93 18.1479C141.091 17.839 141.317 17.5724 141.609 17.3481C141.906 17.1196 142.255 16.944 142.657 16.8213C143.059 16.6943 143.503 16.6309 143.99 16.6309C144.675 16.6309 145.266 16.7578 145.761 17.0117C146.26 17.2656 146.643 17.6063 146.91 18.0337C147.181 18.4611 147.316 18.9329 147.316 19.4492H145.735C145.735 19.1445 145.67 18.8758 145.539 18.6431C145.412 18.4061 145.217 18.2199 144.955 18.0845C144.696 17.9491 144.368 17.8813 143.971 17.8813C143.594 17.8813 143.281 17.9385 143.031 18.0527C142.782 18.167 142.595 18.3215 142.473 18.5161C142.35 18.7108 142.289 18.9308 142.289 19.1763C142.289 19.3498 142.329 19.5085 142.409 19.6523C142.49 19.792 142.612 19.9232 142.777 20.0459C142.942 20.1644 143.15 20.2765 143.399 20.3823C143.649 20.4881 143.943 20.5897 144.282 20.687C144.794 20.8394 145.24 21.0086 145.621 21.1948C146.002 21.3768 146.319 21.5841 146.573 21.8169C146.827 22.0496 147.018 22.3141 147.145 22.6104C147.271 22.9023 147.335 23.2345 147.335 23.6069C147.335 23.9963 147.257 24.3475 147.1 24.6606C146.944 24.9696 146.719 25.234 146.427 25.4541C146.139 25.6699 145.792 25.8371 145.386 25.9556C144.984 26.0698 144.536 26.127 144.041 26.127C143.596 26.127 143.158 26.0677 142.727 25.9492C142.299 25.8307 141.91 25.6509 141.559 25.4097C141.207 25.1642 140.928 24.8595 140.721 24.4956C140.513 24.1274 140.41 23.6979 140.41 23.207H142.003C142.003 23.5075 142.054 23.7635 142.155 23.9751C142.261 24.1867 142.407 24.3602 142.593 24.4956C142.779 24.6268 142.995 24.7241 143.241 24.7876C143.49 24.8511 143.757 24.8828 144.041 24.8828C144.413 24.8828 144.724 24.8299 144.974 24.7241C145.228 24.6183 145.418 24.4702 145.545 24.2798C145.672 24.0894 145.735 23.8693 145.735 23.6196ZM153.553 22.9912H155.14C155.089 23.5964 154.92 24.1359 154.632 24.6099C154.344 25.0796 153.94 25.4499 153.42 25.7207C152.899 25.9915 152.267 26.127 151.522 26.127C150.951 26.127 150.436 26.0254 149.979 25.8223C149.522 25.6149 149.131 25.3229 148.805 24.9463C148.479 24.5654 148.23 24.1063 148.056 23.5688C147.887 23.0314 147.802 22.4305 147.802 21.7661V20.998C147.802 20.3337 147.889 19.7327 148.062 19.1953C148.24 18.6579 148.494 18.1987 148.824 17.8179C149.154 17.4328 149.55 17.1387 150.011 16.9355C150.477 16.7324 150.999 16.6309 151.579 16.6309C152.315 16.6309 152.937 16.7663 153.445 17.0371C153.953 17.3079 154.347 17.6825 154.626 18.1606C154.909 18.6388 155.083 19.1868 155.146 19.8047H153.559C153.517 19.4069 153.424 19.0662 153.28 18.7827C153.141 18.4992 152.933 18.2834 152.658 18.1353C152.383 17.9829 152.023 17.9067 151.579 17.9067C151.215 17.9067 150.898 17.9744 150.627 18.1099C150.356 18.2453 150.13 18.4442 149.948 18.7065C149.766 18.9689 149.628 19.2926 149.535 19.6777C149.446 20.0586 149.402 20.4945 149.402 20.9854V21.7661C149.402 22.2316 149.442 22.6548 149.522 23.0356C149.607 23.4123 149.734 23.736 149.903 24.0068C150.077 24.2777 150.297 24.4871 150.563 24.6353C150.83 24.7834 151.149 24.8574 151.522 24.8574C151.975 24.8574 152.341 24.7855 152.62 24.6416C152.904 24.4977 153.117 24.2882 153.261 24.0132C153.409 23.7339 153.507 23.3932 153.553 22.9912ZM159.536 17.9893L156.775 26H155.106L158.584 16.7578H159.651L159.536 17.9893ZM161.847 26L159.079 17.9893L158.959 16.7578H160.032L163.523 26H161.847ZM161.714 22.5723V23.8354H156.686V22.5723H161.714ZM163.907 16.7578H167.176C167.879 16.7578 168.478 16.8636 168.973 17.0752C169.468 17.2868 169.847 17.5999 170.109 18.0146C170.376 18.4251 170.509 18.9329 170.509 19.5381C170.509 19.9993 170.424 20.4056 170.255 20.7568C170.086 21.1081 169.847 21.4043 169.538 21.6455C169.229 21.8825 168.861 22.0666 168.433 22.1978L167.951 22.4326H165.012L164.999 21.1694H167.202C167.583 21.1694 167.9 21.1017 168.154 20.9663C168.408 20.8309 168.598 20.6468 168.725 20.4141C168.856 20.1771 168.922 19.9105 168.922 19.6143C168.922 19.2926 168.859 19.0133 168.732 18.7764C168.609 18.5352 168.418 18.3511 168.16 18.2241C167.902 18.0929 167.574 18.0273 167.176 18.0273H165.501V26H163.907V16.7578ZM169.182 26L167.011 21.8486L168.681 21.8423L170.883 25.9175V26H169.182ZM178.543 21.2773V24.8066C178.411 24.9801 178.206 25.1706 177.927 25.3779C177.652 25.5811 177.286 25.7567 176.829 25.9048C176.372 26.0529 175.803 26.127 175.121 26.127C174.541 26.127 174.01 26.0296 173.528 25.835C173.046 25.6361 172.629 25.3462 172.277 24.9653C171.93 24.5845 171.662 24.1211 171.471 23.5752C171.281 23.0251 171.186 22.3988 171.186 21.6963V21.0552C171.186 20.3569 171.272 19.7349 171.446 19.189C171.624 18.6388 171.878 18.1733 172.208 17.7925C172.538 17.4116 172.935 17.1239 173.401 16.9292C173.871 16.7303 174.402 16.6309 174.994 16.6309C175.752 16.6309 176.378 16.7578 176.873 17.0117C177.372 17.2614 177.758 17.6084 178.028 18.0527C178.299 18.4971 178.471 19.0049 178.543 19.5762H176.981C176.93 19.2546 176.831 18.9668 176.683 18.7129C176.539 18.459 176.331 18.2601 176.061 18.1162C175.794 17.9681 175.447 17.894 175.02 17.894C174.651 17.894 174.328 17.9639 174.048 18.1035C173.769 18.2432 173.536 18.4484 173.35 18.7192C173.168 18.9901 173.031 19.3201 172.938 19.7095C172.844 20.0988 172.798 20.5431 172.798 21.0425V21.6963C172.798 22.2041 172.851 22.6548 172.957 23.0483C173.067 23.4419 173.223 23.7741 173.426 24.0449C173.634 24.3158 173.886 24.521 174.182 24.6606C174.478 24.7961 174.812 24.8638 175.185 24.8638C175.549 24.8638 175.847 24.8341 176.08 24.7749C176.312 24.7114 176.497 24.6374 176.632 24.5527C176.772 24.4639 176.879 24.3792 176.956 24.2988V22.4644H175.032V21.2773H178.543ZM183.256 17.9893L180.495 26H178.826L182.304 16.7578H183.371L183.256 17.9893ZM185.567 26L182.799 17.9893L182.679 16.7578H183.751L187.243 26H185.567ZM185.434 22.5723V23.8354H180.406V22.5723H185.434ZM193.416 24.7368V26H188.776V24.7368H193.416ZM189.221 16.7578V26H187.627V16.7578H189.221ZM197.724 17.9893L194.963 26H193.293L196.772 16.7578H197.838L197.724 17.9893ZM200.034 26L197.267 17.9893L197.146 16.7578H198.219L201.71 26H200.034ZM199.901 22.5723V23.8354H194.874V22.5723H199.901ZM213.319 24.7368V26H208.412V24.7368H213.319ZM208.863 16.7578V26H207.27V16.7578H208.863ZM212.678 20.6172V21.8613H208.412V20.6172H212.678ZM213.287 16.7578V18.0273H208.412V16.7578H213.287ZM221.302 16.7578V26H219.708L215.563 19.3794V26H213.97V16.7578H215.563L219.721 23.3911V16.7578H221.302Z" fill="white"/>
<path d="M127.04 26L126.04 25.99L126.03 27H127.04V26ZM127.053 24.7368V23.7368H126.063L126.053 24.7268L127.053 24.7368ZM130.449 24.3623L129.909 23.5205L129.905 23.5232L130.449 24.3623ZM131.325 23.2896L130.405 22.8966L130.402 22.9037L131.325 23.2896ZM131.452 19.7983L130.49 20.0731L130.493 20.0828L131.452 19.7983ZM130.957 18.8271L130.184 19.4624L130.191 19.4698L130.957 18.8271ZM130.157 18.2305L129.76 19.1483L129.764 19.1502L130.157 18.2305ZM127.002 18.0273H126.002V19.0273H127.002V18.0273ZM127.002 16.7578V15.7578H126.002V16.7578H127.002ZM130.754 17.0688L130.376 17.9947L130.382 17.9973L130.754 17.0688ZM132.068 17.9512L131.345 18.6422L131.349 18.6463L132.068 17.9512ZM132.925 19.335L131.987 19.682L132.925 19.335ZM132.068 24.813L132.783 25.5121L132.786 25.5081L132.068 24.813ZM130.735 25.6953L131.103 26.6249L131.107 26.6233L130.735 25.6953ZM127.923 16.7578H128.923V15.7578H127.923V16.7578ZM127.923 26V27H128.923V26H127.923ZM126.329 26H125.329V27H126.329V26ZM126.329 16.7578V15.7578H125.329V16.7578H126.329ZM129.014 25H127.04V27H129.014V25ZM128.04 26.01L128.053 24.7469L126.053 24.7268L126.04 25.99L128.04 26.01ZM127.053 25.7368H129.014V23.7368H127.053V25.7368ZM129.014 25.7368C129.731 25.7368 130.41 25.5791 130.993 25.2014L129.905 23.5232C129.717 23.6448 129.44 23.7368 129.014 23.7368V25.7368ZM130.989 25.2041C131.565 24.8348 131.982 24.3103 132.247 23.6754L130.402 22.9037C130.279 23.1998 130.112 23.3905 129.909 23.5205L130.989 25.2041ZM132.244 23.6825C132.509 23.0641 132.623 22.3696 132.623 21.6265H130.623C130.623 22.1698 130.539 22.5841 130.405 22.8966L132.244 23.6825ZM132.623 21.6265V21.125H130.623V21.6265H132.623ZM132.623 21.125C132.623 20.5517 132.558 20.0105 132.411 19.5139L130.493 20.0828C130.574 20.3563 130.623 20.6996 130.623 21.125H132.623ZM132.413 19.5236C132.271 19.0262 132.047 18.5712 131.723 18.1845L130.191 19.4698C130.306 19.6079 130.412 19.8003 130.49 20.0731L132.413 19.5236ZM131.729 18.1919C131.41 17.8036 131.012 17.5081 130.549 17.3107L129.764 19.1502C129.937 19.2237 130.072 19.326 130.184 19.4624L131.729 18.1919ZM130.554 17.3126C130.093 17.1132 129.591 17.0273 129.071 17.0273V19.0273C129.373 19.0273 129.595 19.0769 129.76 19.1483L130.554 17.3126ZM129.071 17.0273H127.002V19.0273H129.071V17.0273ZM128.002 18.0273V16.7578H126.002V18.0273H128.002ZM127.002 17.7578H129.071V15.7578H127.002V17.7578ZM129.071 17.7578C129.571 17.7578 130.001 17.8418 130.376 17.9946L131.132 16.1431C130.49 15.8812 129.799 15.7578 129.071 15.7578V17.7578ZM130.382 17.9973C130.761 18.1488 131.078 18.3633 131.345 18.6422L132.79 17.2601C132.321 16.7689 131.762 16.3952 131.125 16.1404L130.382 17.9973ZM131.349 18.6463C131.618 18.925 131.832 19.2653 131.987 19.682L133.862 18.9879C133.619 18.3297 133.262 17.7475 132.786 17.256L131.349 18.6463ZM131.987 19.682C132.138 20.0922 132.223 20.5732 132.223 21.1377H134.223C134.223 20.3734 134.108 19.6526 133.862 18.9879L131.987 19.682ZM132.223 21.1377V21.6265H134.223V21.1377H132.223ZM132.223 21.6265C132.223 22.191 132.138 22.672 131.987 23.0821L133.862 23.7763C134.108 23.1116 134.223 22.3907 134.223 21.6265H132.223ZM131.987 23.0821C131.832 23.4988 131.618 23.8392 131.349 24.1178L132.786 25.5081C133.262 25.0166 133.619 24.4345 133.862 23.7763L131.987 23.0821ZM131.353 24.1139C131.081 24.3911 130.755 24.6094 130.362 24.7674L131.107 26.6233C131.746 26.3665 132.309 25.9966 132.783 25.5121L131.353 24.1139ZM130.366 24.7658C129.988 24.9158 129.542 25 129.014 25V27C129.756 27 130.457 26.8811 131.103 26.6248L130.366 24.7658ZM126.923 16.7578V26H128.923V16.7578H126.923ZM127.923 25H126.329V27H127.923V25ZM127.329 26V16.7578H125.329V26H127.329ZM126.329 17.7578H127.923V15.7578H126.329V17.7578ZM140.222 24.7368H141.222V23.7368H140.222V24.7368ZM140.222 26V27H141.222V26H140.222ZM135.315 26H134.315V27H135.315V26ZM135.315 24.7368V23.7368H134.315V24.7368H135.315ZM135.766 16.7578H136.766V15.7578H135.766V16.7578ZM135.766 26V27H136.766V26H135.766ZM134.172 26H133.172V27H134.172V26ZM134.172 16.7578V15.7578H133.172V16.7578H134.172ZM139.581 20.6172H140.581V19.6172H139.581V20.6172ZM139.581 21.8613V22.8613H140.581V21.8613H139.581ZM135.315 21.8613H134.315V22.8613H135.315V21.8613ZM135.315 20.6172V19.6172H134.315V20.6172H135.315ZM140.19 16.7578H141.19V15.7578H140.19V16.7578ZM140.19 18.0273V19.0273H141.19V18.0273H140.19ZM135.315 18.0273H134.315V19.0273H135.315V18.0273ZM135.315 16.7578V15.7578H134.315V16.7578H135.315ZM139.222 24.7368V26H141.222V24.7368H139.222ZM140.222 25H135.315V27H140.222V25ZM136.315 26V24.7368H134.315V26H136.315ZM135.315 25.7368H140.222V23.7368H135.315V25.7368ZM134.766 16.7578V26H136.766V16.7578H134.766ZM135.766 25H134.172V27H135.766V25ZM135.172 26V16.7578H133.172V26H135.172ZM134.172 17.7578H135.766V15.7578H134.172V17.7578ZM138.581 20.6172V21.8613H140.581V20.6172H138.581ZM139.581 20.8613H135.315V22.8613H139.581V20.8613ZM136.315 21.8613V20.6172H134.315V21.8613H136.315ZM135.315 21.6172H139.581V19.6172H135.315V21.6172ZM139.19 16.7578V18.0273H141.19V16.7578H139.19ZM140.19 17.0273H135.315V19.0273H140.19V17.0273ZM136.315 18.0273V16.7578H134.315V18.0273H136.315ZM135.315 17.7578H140.19V15.7578H135.315V17.7578ZM145.646 23.1118L144.709 23.46L144.713 23.4717L144.718 23.4832L145.646 23.1118ZM145.348 22.7056L144.699 23.4664L145.348 22.7056ZM144.739 22.3501L144.322 23.2589L144.331 23.263L144.34 23.2669L144.739 22.3501ZM143.749 21.9883L143.454 22.9441L143.457 22.9447L143.749 21.9883ZM142.53 21.5376L142.112 22.4463L142.125 22.4518L142.53 21.5376ZM141.565 20.9536L140.933 21.7287L140.94 21.7345L141.565 20.9536ZM140.924 20.1855L140.037 20.6481L140.04 20.6534L140.924 20.1855ZM140.93 18.1479L140.043 17.6862L140.038 17.6959L140.93 18.1479ZM141.609 17.3481L142.219 18.1412L142.22 18.1399L141.609 17.3481ZM142.657 16.8213L142.949 17.7778L142.958 17.7749L142.657 16.8213ZM145.761 17.0117L145.304 17.9015L145.307 17.9031L145.761 17.0117ZM146.91 18.0337L146.061 18.5629L146.065 18.5689L146.91 18.0337ZM147.316 19.4492V20.4492H148.316V19.4492H147.316ZM145.735 19.4492H144.735V20.4492H145.735V19.4492ZM145.539 18.6431L144.657 19.1153L144.662 19.1247L144.667 19.1341L145.539 18.6431ZM144.955 18.0845L144.49 18.97L144.496 18.9731L144.955 18.0845ZM143.031 18.0527L142.615 17.1434L143.031 18.0527ZM142.409 19.6523L141.536 20.1402L141.543 20.1513L142.409 19.6523ZM142.777 20.0459L142.181 20.8484L142.187 20.8533L142.194 20.8582L142.777 20.0459ZM143.399 20.3823L143.009 21.3031L143.399 20.3823ZM144.282 20.687L144.567 19.7285L144.558 19.7259L144.282 20.687ZM145.621 21.1948L145.182 22.0932L145.19 22.0971L145.621 21.1948ZM147.145 22.6104L146.225 23.0043L146.227 23.0091L147.145 22.6104ZM147.1 24.6606L147.992 25.1127L147.995 25.1079L147.1 24.6606ZM146.427 25.4541L147.027 26.2541L147.029 26.2527L146.427 25.4541ZM145.386 25.9556L145.66 26.9175L145.666 26.9156L145.386 25.9556ZM142.727 25.9492L142.459 26.9129L142.462 26.9135L142.727 25.9492ZM141.559 25.4097L140.986 26.2294L140.992 26.234L141.559 25.4097ZM140.721 24.4956L139.849 24.9863L139.852 24.9907L140.721 24.4956ZM140.41 23.207V22.207H139.41V23.207H140.41ZM142.003 23.207H143.003V22.207H142.003V23.207ZM142.155 23.9751L141.254 24.4078L141.257 24.4151L141.261 24.4223L142.155 23.9751ZM142.593 24.4956L142.005 25.3043L142.011 25.3088L142.017 25.3131L142.593 24.4956ZM143.241 24.7876L142.99 25.7558L142.994 25.7568L143.241 24.7876ZM144.974 24.7241L144.589 23.801L144.583 23.8034L144.974 24.7241ZM146.735 23.6196C146.735 23.3261 146.69 23.0272 146.575 22.7404L144.718 23.4832C144.722 23.4927 144.735 23.5323 144.735 23.6196H146.735ZM146.584 22.7636C146.459 22.4269 146.245 22.1564 145.997 21.9447L144.699 23.4664C144.72 23.4839 144.726 23.4928 144.725 23.4911C144.724 23.4902 144.722 23.487 144.719 23.4815C144.716 23.4759 144.712 23.4687 144.709 23.46L146.584 22.7636ZM145.997 21.9447C145.75 21.7341 145.449 21.5689 145.138 21.4333L144.34 23.2669C144.553 23.3598 144.658 23.4316 144.699 23.4664L145.997 21.9447ZM145.156 21.4413C144.843 21.2976 144.467 21.1621 144.04 21.0319L143.457 22.9447C143.834 23.0599 144.118 23.1656 144.322 23.2589L145.156 21.4413ZM144.043 21.0325C143.636 20.9072 143.267 20.7705 142.935 20.6234L142.125 22.4518C142.537 22.6348 142.981 22.7985 143.454 22.9441L144.043 21.0325ZM142.948 20.629C142.642 20.4888 142.392 20.335 142.19 20.1727L140.94 21.7345C141.288 22.0123 141.681 22.2479 142.112 22.4462L142.948 20.629ZM142.197 20.1786C142.016 20.0312 141.892 19.877 141.808 19.7177L140.04 20.6534C140.26 21.0697 140.564 21.4275 140.933 21.7286L142.197 20.1786ZM141.81 19.723C141.743 19.5947 141.695 19.4214 141.695 19.1763H139.695C139.695 19.6929 139.8 20.1925 140.037 20.6481L141.81 19.723ZM141.695 19.1763C141.695 18.9427 141.743 18.7569 141.822 18.6L140.038 17.6959C139.805 18.1569 139.695 18.6566 139.695 19.1763H141.695ZM141.817 18.6097C141.907 18.4375 142.035 18.2818 142.219 18.1412L141 16.5551C140.599 16.863 140.275 17.2406 140.043 17.6862L141.817 18.6097ZM142.22 18.1399C142.41 17.9936 142.648 17.8696 142.949 17.7777L142.365 15.8649C141.862 16.0185 141.401 16.2457 140.999 16.5564L142.22 18.1399ZM142.958 17.7749C143.249 17.683 143.59 17.6309 143.99 17.6309V15.6309C143.416 15.6309 142.869 15.7057 142.356 15.8677L142.958 17.7749ZM143.99 17.6309C144.553 17.6309 144.98 17.7349 145.304 17.9015L146.217 16.1219C145.552 15.7807 144.798 15.6309 143.99 15.6309V17.6309ZM145.307 17.9031C145.663 18.084 145.901 18.3068 146.061 18.5629L147.758 17.5044C147.385 16.9057 146.857 16.4472 146.214 16.1203L145.307 17.9031ZM146.065 18.5689C146.232 18.8329 146.316 19.1184 146.316 19.4492H148.316C148.316 18.7475 148.129 18.0893 147.754 17.4984L146.065 18.5689ZM147.316 18.4492H145.735V20.4492H147.316V18.4492ZM146.735 19.4492C146.735 18.997 146.637 18.5547 146.41 18.1521L144.667 19.1341C144.703 19.197 144.735 19.2921 144.735 19.4492H146.735ZM146.42 18.1708C146.188 17.738 145.837 17.4146 145.413 17.1959L144.496 18.9731C144.597 19.0252 144.635 19.0742 144.657 19.1153L146.42 18.1708ZM145.419 17.1989C144.975 16.966 144.474 16.8813 143.971 16.8813V18.8813C144.263 18.8813 144.418 18.9321 144.49 18.97L145.419 17.1989ZM143.971 16.8813C143.501 16.8813 143.034 16.9515 142.615 17.1434L143.447 18.962C143.527 18.9254 143.687 18.8813 143.971 18.8813V16.8813ZM142.615 17.1434C142.223 17.3227 141.872 17.5942 141.627 17.9828L143.319 19.0494C143.319 19.0487 143.34 19.0113 143.447 18.962L142.615 17.1434ZM141.627 17.9828C141.397 18.3479 141.289 18.7552 141.289 19.1763H143.289C143.289 19.1064 143.303 19.0737 143.319 19.0494L141.627 17.9828ZM141.289 19.1763C141.289 19.5112 141.368 19.8393 141.536 20.1402L143.282 19.1645C143.283 19.166 143.284 19.1684 143.285 19.1714C143.287 19.1744 143.287 19.1773 143.288 19.1798C143.29 19.1854 143.289 19.1851 143.289 19.1763H141.289ZM141.543 20.1513C141.707 20.4374 141.935 20.6657 142.181 20.8484L143.374 19.2434C143.29 19.1807 143.272 19.1466 143.276 19.1534L141.543 20.1513ZM142.194 20.8582C142.435 21.0315 142.713 21.1774 143.009 21.3031L143.79 19.4616C143.587 19.3757 143.449 19.2973 143.361 19.2336L142.194 20.8582ZM143.009 21.3031C143.305 21.4284 143.639 21.5427 144.005 21.6481L144.558 19.7259C144.247 19.6367 143.993 19.5478 143.79 19.4616L143.009 21.3031ZM143.997 21.6455C144.469 21.7859 144.861 21.9365 145.182 22.0932L146.06 20.2964C145.619 20.0807 145.119 19.8928 144.567 19.7285L143.997 21.6455ZM145.19 22.0971C145.501 22.2457 145.731 22.4012 145.898 22.554L147.249 21.0797C146.908 20.7671 146.503 20.5079 146.052 20.2925L145.19 22.0971ZM145.898 22.554C146.054 22.6976 146.158 22.8472 146.225 23.0043L148.064 22.2164C147.877 21.781 147.6 21.4016 147.249 21.0797L145.898 22.554ZM146.227 23.0091C146.291 23.1557 146.335 23.3487 146.335 23.6069H148.335C148.335 23.1204 148.252 22.6489 148.062 22.2116L146.227 23.0091ZM146.335 23.6069C146.335 23.8586 146.285 24.0541 146.206 24.2134L147.995 25.1079C148.228 24.6409 148.335 24.1339 148.335 23.6069H146.335ZM146.208 24.2086C146.124 24.3738 146.002 24.522 145.825 24.6555L147.029 26.2527C147.436 25.9461 147.763 25.5654 147.992 25.1127L146.208 24.2086ZM145.827 24.6541C145.651 24.7863 145.417 24.9049 145.106 24.9956L145.666 26.9156C146.168 26.7692 146.628 26.5536 147.027 26.2541L145.827 24.6541ZM145.113 24.9937C144.814 25.0785 144.46 25.127 144.041 25.127V27.127C144.612 27.127 145.154 27.0612 145.66 26.9175L145.113 24.9937ZM144.041 25.127C143.686 25.127 143.337 25.0799 142.991 24.9849L142.462 26.9135C142.979 27.0555 143.506 27.127 144.041 27.127V25.127ZM142.994 24.9856C142.669 24.8954 142.381 24.7613 142.125 24.5853L140.992 26.234C141.439 26.5404 141.93 26.766 142.459 26.9129L142.994 24.9856ZM142.131 24.59C141.899 24.4274 141.722 24.2326 141.59 24.0006L139.852 24.9907C140.134 25.4864 140.516 25.901 140.986 26.2294L142.131 24.59ZM141.592 24.0049C141.482 23.8092 141.41 23.554 141.41 23.207H139.41C139.41 23.8418 139.545 24.4457 139.849 24.9863L141.592 24.0049ZM140.41 24.207H142.003V22.207H140.41V24.207ZM141.003 23.207C141.003 23.6167 141.072 24.0289 141.254 24.4078L143.057 23.5424C143.036 23.4982 143.003 23.3983 143.003 23.207H141.003ZM141.261 24.4223C141.436 24.7731 141.686 25.072 142.005 25.3043L143.181 23.6869C143.128 23.6483 143.086 23.6003 143.05 23.5279L141.261 24.4223ZM142.017 25.3131C142.313 25.5211 142.641 25.6655 142.99 25.7557L143.491 23.8195C143.349 23.7828 143.246 23.7325 143.169 23.6781L142.017 25.3131ZM142.994 25.7568C143.332 25.8427 143.682 25.8828 144.041 25.8828V23.8828C143.832 23.8828 143.649 23.8595 143.487 23.8184L142.994 25.7568ZM144.041 25.8828C144.5 25.8828 144.954 25.8186 145.364 25.6449L144.583 23.8034C144.494 23.8412 144.326 23.8828 144.041 23.8828V25.8828ZM145.358 25.6472C145.757 25.481 146.12 25.2199 146.377 24.8345L144.713 23.7251C144.712 23.7261 144.708 23.7327 144.693 23.7443C144.677 23.7568 144.645 23.7776 144.589 23.801L145.358 25.6472ZM146.377 24.8345C146.623 24.4649 146.735 24.048 146.735 23.6196H144.735C144.735 23.6906 144.72 23.7138 144.713 23.7251L146.377 24.8345ZM153.553 22.9912V21.9912H152.662L152.56 22.8762L153.553 22.9912ZM155.14 22.9912L156.137 23.0748L156.227 21.9912H155.14V22.9912ZM154.632 24.6099L155.485 25.1322L155.487 25.1288L154.632 24.6099ZM149.979 25.8223L149.566 26.7329L149.573 26.7361L149.979 25.8223ZM148.805 24.9463L148.045 25.5964L148.049 25.6006L148.805 24.9463ZM148.056 23.5688L147.102 23.8693L147.104 23.8761L148.056 23.5688ZM148.062 19.1953L147.113 18.8813L147.111 18.8881L148.062 19.1953ZM148.824 17.8179L149.58 18.4728L149.583 18.4687L148.824 17.8179ZM150.011 16.9355L149.611 16.019L149.608 16.0204L150.011 16.9355ZM154.626 18.1606L153.762 18.665L153.766 18.6707L154.626 18.1606ZM155.146 19.8047V20.8047H156.254L156.141 19.7025L155.146 19.8047ZM153.559 19.8047L152.565 19.9105L152.66 20.8047H153.559V19.8047ZM153.28 18.7827L152.383 19.2246L152.388 19.2352L153.28 18.7827ZM152.658 18.1353L152.174 19.0101L152.184 19.0157L152.658 18.1353ZM150.627 18.1099L151.074 19.0043L150.627 18.1099ZM149.535 19.6777L148.563 19.4427L148.561 19.4505L149.535 19.6777ZM149.522 23.0356L148.544 23.2422L148.547 23.2549L149.522 23.0356ZM149.903 24.0068L149.055 24.5369L149.061 24.5463L149.903 24.0068ZM152.62 24.6416L152.167 23.7498L152.162 23.7526L152.62 24.6416ZM153.261 24.0132L152.378 23.5447L152.375 23.5497L153.261 24.0132ZM153.553 23.9912H155.14V21.9912H153.553V23.9912ZM154.144 22.9076C154.104 23.3735 153.978 23.7614 153.777 24.0909L155.487 25.1288C155.862 24.5104 156.074 23.8192 156.137 23.0748L154.144 22.9076ZM153.78 24.0875C153.593 24.3922 153.329 24.6409 152.958 24.8336L153.881 26.6078C154.552 26.2588 155.096 25.767 155.485 25.1322L153.78 24.0875ZM152.958 24.8336C152.614 25.013 152.148 25.127 151.522 25.127V27.127C152.385 27.127 153.185 26.9701 153.881 26.6078L152.958 24.8336ZM151.522 25.127C151.071 25.127 150.698 25.0472 150.386 24.9085L149.573 26.7361C150.175 27.0036 150.831 27.127 151.522 27.127V25.127ZM150.393 24.9116C150.066 24.7635 149.792 24.5585 149.561 24.292L148.049 25.6006C148.47 26.0873 148.979 26.4664 149.566 26.7329L150.393 24.9116ZM149.565 24.2962C149.335 24.0278 149.146 23.6891 149.008 23.2616L147.104 23.8761C147.313 24.5234 147.623 25.1031 148.045 25.5964L149.565 24.2962ZM149.01 23.2684C148.876 22.8438 148.802 22.3463 148.802 21.7661H146.802C146.802 22.5147 146.897 23.219 147.102 23.8693L149.01 23.2684ZM148.802 21.7661V20.998H146.802V21.7661H148.802ZM148.802 20.998C148.802 20.42 148.878 19.925 149.014 19.5025L147.111 18.8881C146.9 19.5405 146.802 20.2473 146.802 20.998H148.802ZM149.012 19.5093C149.153 19.0818 149.346 18.7423 149.58 18.4728L148.068 17.1629C147.642 17.6551 147.327 18.234 147.113 18.8813L149.012 19.5093ZM149.583 18.4687C149.817 18.1965 150.091 17.9931 150.414 17.8507L149.608 16.0204C149.009 16.2842 148.492 16.669 148.065 17.1671L149.583 18.4687ZM150.411 17.8521C150.734 17.7113 151.117 17.6309 151.579 17.6309V15.6309C150.881 15.6309 150.219 15.7536 149.611 16.019L150.411 17.8521ZM151.579 17.6309C152.196 17.6309 152.647 17.7445 152.975 17.9195L153.916 16.1548C153.228 15.7881 152.435 15.6309 151.579 15.6309V17.6309ZM152.975 17.9195C153.326 18.1067 153.58 18.3532 153.762 18.665L155.489 17.6563C155.113 17.0117 154.58 16.5092 153.916 16.1548L152.975 17.9195ZM153.766 18.6707C153.967 19.0104 154.101 19.4161 154.152 19.9069L156.141 19.7025C156.065 18.9576 155.852 18.2673 155.486 17.6506L153.766 18.6707ZM155.146 18.8047H153.559V20.8047H155.146V18.8047ZM154.554 19.6989C154.502 19.2102 154.383 18.746 154.172 18.3302L152.388 19.2352C152.465 19.3864 152.532 19.6036 152.565 19.9105L154.554 19.6989ZM154.177 18.3409C153.947 17.873 153.593 17.5028 153.132 17.2548L152.184 19.0157C152.274 19.064 152.334 19.1253 152.383 19.2246L154.177 18.3409ZM153.143 17.2605C152.671 16.999 152.127 16.9067 151.579 16.9067V18.9067C151.92 18.9067 152.096 18.9668 152.174 19.01L153.143 17.2605ZM151.579 16.9067C151.091 16.9067 150.615 16.9979 150.18 17.2154L151.074 19.0043C151.181 18.951 151.339 18.9067 151.579 18.9067V16.9067ZM150.18 17.2154C149.75 17.43 149.398 17.7442 149.126 18.1366L150.769 19.2764C150.861 19.1442 150.962 19.0605 151.074 19.0043L150.18 17.2154ZM149.126 18.1366C148.859 18.5216 148.678 18.9656 148.563 19.4427L150.507 19.9127C150.578 19.6197 150.672 19.4162 150.769 19.2764L149.126 18.1366ZM148.561 19.4505C148.451 19.9219 148.402 20.4364 148.402 20.9854H150.402C150.402 20.5525 150.441 20.1953 150.509 19.905L148.561 19.4505ZM148.402 20.9854V21.7661H150.402V20.9854H148.402ZM148.402 21.7661C148.402 22.288 148.447 22.7818 148.544 23.2422L150.501 22.8291C150.437 22.5278 150.402 22.1752 150.402 21.7661H148.402ZM148.547 23.2549C148.651 23.7193 148.815 24.1528 149.055 24.5368L150.751 23.4768C150.653 23.3192 150.563 23.1052 150.498 22.8164L148.547 23.2549ZM149.061 24.5463C149.319 24.9486 149.659 25.2765 150.078 25.5094L151.049 23.7611C150.935 23.6978 150.835 23.6068 150.745 23.4674L149.061 24.5463ZM150.078 25.5094C150.522 25.7564 151.017 25.8574 151.522 25.8574V23.8574C151.282 23.8574 151.138 23.8103 151.049 23.7611L150.078 25.5094ZM151.522 25.8574C152.069 25.8574 152.608 25.7724 153.078 25.5306L152.162 23.7526C152.073 23.7985 151.881 23.8574 151.522 23.8574V25.8574ZM153.073 25.5334C153.537 25.2977 153.904 24.9409 154.147 24.4767L152.375 23.5497C152.33 23.6356 152.27 23.6977 152.167 23.7499L153.073 25.5334ZM154.145 24.4817C154.365 24.0664 154.489 23.5988 154.546 23.1062L152.56 22.8762C152.524 23.1877 152.454 23.4014 152.378 23.5447L154.145 24.4817ZM159.536 17.9893L160.482 18.3151L160.521 18.2014L160.532 18.0816L159.536 17.9893ZM156.775 26V27H157.488L157.721 26.3259L156.775 26ZM155.106 26L154.17 25.6477L153.661 27H155.106V26ZM158.584 16.7578V15.7578H157.892L157.648 16.4056L158.584 16.7578ZM159.651 16.7578L160.646 16.8502L160.748 15.7578H159.651V16.7578ZM161.847 26L160.902 26.3265L161.134 27H161.847V26ZM159.079 17.9893L158.084 18.0867L158.096 18.2042L158.134 18.3158L159.079 17.9893ZM158.959 16.7578V15.7578H157.856L157.964 16.8553L158.959 16.7578ZM160.032 16.7578L160.967 16.4044L160.723 15.7578H160.032V16.7578ZM163.523 26V27H164.969L164.458 25.6466L163.523 26ZM161.714 22.5723H162.714V21.5723H161.714V22.5723ZM161.714 23.8354V24.8354H162.714V23.8354H161.714ZM156.686 23.8354H155.686V24.8354H156.686V23.8354ZM156.686 22.5723V21.5723H155.686V22.5723H156.686ZM158.591 17.6634L155.83 25.6741L157.721 26.3259L160.482 18.3151L158.591 17.6634ZM156.775 25H155.106V27H156.775V25ZM156.042 26.3523L159.52 17.1101L157.648 16.4056L154.17 25.6477L156.042 26.3523ZM158.584 17.7578H159.651V15.7578H158.584V17.7578ZM158.655 16.6654L158.541 17.8969L160.532 18.0816L160.646 16.8502L158.655 16.6654ZM162.792 25.6735L160.025 17.6627L158.134 18.3158L160.902 26.3265L162.792 25.6735ZM160.075 17.8918L159.954 16.6603L157.964 16.8553L158.084 18.0867L160.075 17.8918ZM158.959 17.7578H160.032V15.7578H158.959V17.7578ZM159.096 17.1112L162.587 26.3534L164.458 25.6466L160.967 16.4044L159.096 17.1112ZM163.523 25H161.847V27H163.523V25ZM160.714 22.5723V23.8354H162.714V22.5723H160.714ZM161.714 22.8354H156.686V24.8354H161.714V22.8354ZM157.686 23.8354V22.5723H155.686V23.8354H157.686ZM156.686 23.5723H161.714V21.5723H156.686V23.5723ZM163.907 16.7578V15.7578H162.907V16.7578H163.907ZM170.109 18.0146L169.264 18.5493L169.27 18.5593L170.109 18.0146ZM169.538 21.6455L170.146 22.439L170.153 22.4337L169.538 21.6455ZM168.433 22.1978L168.14 21.2418L168.066 21.2646L167.996 21.2986L168.433 22.1978ZM167.951 22.4326V23.4326H168.181L168.389 23.3317L167.951 22.4326ZM165.012 22.4326L164.012 22.4427L164.022 23.4326H165.012V22.4326ZM164.999 21.1694V20.1694H163.989L163.999 21.1795L164.999 21.1694ZM168.725 20.4141L167.85 19.9297L167.847 19.9352L168.725 20.4141ZM168.732 18.7764L167.84 19.2298L167.845 19.2393L167.85 19.2486L168.732 18.7764ZM168.16 18.2241L167.707 19.1157L167.719 19.1215L168.16 18.2241ZM165.501 18.0273V17.0273H164.501V18.0273H165.501ZM165.501 26V27H166.501V26H165.501ZM163.907 26H162.907V27H163.907V26ZM169.182 26L168.296 26.4634L168.577 27H169.182V26ZM167.011 21.8486L167.008 20.8486L165.363 20.8549L166.125 22.312L167.011 21.8486ZM168.681 21.8423L169.561 21.3668L169.276 20.84L168.677 20.8423L168.681 21.8423ZM170.883 25.9175H171.883V25.6645L171.763 25.442L170.883 25.9175ZM170.883 26V27H171.883V26H170.883ZM163.907 17.7578H167.176V15.7578H163.907V17.7578ZM167.176 17.7578C167.783 17.7578 168.241 17.8498 168.58 17.9947L169.366 16.1556C168.715 15.8775 167.975 15.7578 167.176 15.7578V17.7578ZM168.58 17.9947C168.908 18.1349 169.12 18.3223 169.264 18.5493L170.954 17.48C170.573 16.8776 170.028 16.4387 169.366 16.1556L168.58 17.9947ZM169.27 18.5593C169.409 18.7731 169.509 19.0805 169.509 19.5381H171.509C171.509 18.7854 171.342 18.0772 170.948 17.47L169.27 18.5593ZM169.509 19.5381C169.509 19.8763 169.447 20.1295 169.354 20.3227L171.156 21.191C171.401 20.6817 171.509 20.1224 171.509 19.5381H169.509ZM169.354 20.3227C169.252 20.5348 169.111 20.7101 168.922 20.8573L170.153 22.4337C170.583 22.0985 170.92 21.6813 171.156 21.191L169.354 20.3227ZM168.929 20.8521C168.728 21.0066 168.47 21.1404 168.14 21.2418L168.727 23.1537C169.251 22.9927 169.73 22.7584 170.146 22.4389L168.929 20.8521ZM167.996 21.2986L167.513 21.5335L168.389 23.3317L168.871 23.0969L167.996 21.2986ZM167.951 21.4326H165.012V23.4326H167.951V21.4326ZM166.012 22.4226L165.999 21.1594L163.999 21.1795L164.012 22.4427L166.012 22.4226ZM164.999 22.1694H167.202V20.1694H164.999V22.1694ZM167.202 22.1694C167.696 22.1694 168.187 22.0823 168.625 21.8487L167.683 20.084C167.614 20.1212 167.47 20.1694 167.202 20.1694V22.1694ZM168.625 21.8487C169.035 21.6296 169.375 21.3117 169.603 20.8929L167.847 19.9352C167.822 19.9819 167.78 20.0322 167.683 20.084L168.625 21.8487ZM169.6 20.8984C169.821 20.4996 169.922 20.0637 169.922 19.6143H167.922C167.922 19.7573 167.892 19.8546 167.85 19.9297L169.6 20.8984ZM169.922 19.6143C169.922 19.1601 169.832 18.7123 169.613 18.3041L167.85 19.2486C167.885 19.3144 167.922 19.4252 167.922 19.6143H169.922ZM169.623 18.3229C169.396 17.8764 169.041 17.5428 168.602 17.3268L167.719 19.1215C167.796 19.1594 167.822 19.1939 167.84 19.2298L169.623 18.3229ZM168.613 17.3326C168.172 17.1085 167.676 17.0273 167.176 17.0273V19.0273C167.473 19.0273 167.632 19.0773 167.707 19.1156L168.613 17.3326ZM167.176 17.0273H165.501V19.0273H167.176V17.0273ZM164.501 18.0273V26H166.501V18.0273H164.501ZM165.501 25H163.907V27H165.501V25ZM164.907 26V16.7578H162.907V26H164.907ZM170.068 25.5366L167.898 21.3852L166.125 22.312L168.296 26.4634L170.068 25.5366ZM167.015 22.8486L168.685 22.8423L168.677 20.8423L167.008 20.8486L167.015 22.8486ZM167.801 22.3178L170.004 26.393L171.763 25.442L169.561 21.3668L167.801 22.3178ZM169.883 25.9175V26H171.883V25.9175H169.883ZM170.883 25H169.182V27H170.883V25ZM178.543 21.2773H179.543V20.2773H178.543V21.2773ZM178.543 24.8066L179.34 25.4097L179.543 25.1421V24.8066H178.543ZM177.927 25.3779L178.521 26.1824L178.523 26.1808L177.927 25.3779ZM173.528 25.835L173.147 26.7595L173.154 26.7623L173.528 25.835ZM172.277 24.9653L171.538 25.6388L171.542 25.6433L172.277 24.9653ZM171.471 23.5752L170.526 23.9023L170.527 23.9046L171.471 23.5752ZM171.446 19.189L170.494 18.8815L170.493 18.8861L171.446 19.189ZM173.401 16.9292L173.787 17.8518L173.791 17.8501L173.401 16.9292ZM176.873 17.0117L176.417 17.9016L176.426 17.9061L176.873 17.0117ZM178.543 19.5762V20.5762H179.676L179.535 19.4512L178.543 19.5762ZM176.981 19.5762L175.993 19.7321L176.127 20.5762H176.981V19.5762ZM176.683 18.7129L175.813 19.2059L175.819 19.2168L176.683 18.7129ZM176.061 18.1162L175.575 18.9904L175.583 18.9949L175.591 18.9993L176.061 18.1162ZM173.35 18.7192L172.526 18.1527L172.52 18.1615L173.35 18.7192ZM172.938 19.7095L171.965 19.4769L172.938 19.7095ZM172.957 23.0483L171.991 23.308L171.994 23.3176L172.957 23.0483ZM173.426 24.0449L172.626 24.645L172.632 24.6528L173.426 24.0449ZM174.182 24.6606L173.755 25.5652L173.766 25.5701L174.182 24.6606ZM176.08 24.7749L176.326 25.744L176.335 25.7419L176.343 25.7397L176.08 24.7749ZM176.632 24.5527L177.162 25.4008L177.169 25.3964L176.632 24.5527ZM176.956 24.2988L177.682 24.9866L177.956 24.6973V24.2988H176.956ZM176.956 22.4644H177.956V21.4644H176.956V22.4644ZM175.032 22.4644H174.032V23.4644H175.032V22.4644ZM175.032 21.2773V20.2773H174.032V21.2773H175.032ZM177.543 21.2773V24.8066H179.543V21.2773H177.543ZM177.745 24.2035C177.695 24.2698 177.574 24.3948 177.331 24.575L178.523 26.1808C178.839 25.9464 179.128 25.6905 179.34 25.4097L177.745 24.2035ZM177.333 24.5735C177.172 24.6925 176.913 24.8262 176.52 24.9535L177.137 26.8561C177.658 26.6871 178.132 26.4697 178.521 26.1824L177.333 24.5735ZM176.52 24.9535C176.195 25.059 175.738 25.127 175.121 25.127V27.127C175.867 27.127 176.548 27.0468 177.137 26.8561L176.52 24.9535ZM175.121 25.127C174.655 25.127 174.253 25.0491 173.902 24.9076L173.154 26.7623C173.768 27.0102 174.428 27.127 175.121 27.127V25.127ZM173.909 24.9105C173.56 24.7666 173.264 24.5605 173.013 24.2874L171.542 25.6433C171.993 26.1319 172.531 26.5055 173.147 26.7595L173.909 24.9105ZM173.017 24.2918C172.771 24.0222 172.567 23.6799 172.415 23.2458L170.527 23.9046C170.757 24.5623 171.09 25.1468 171.538 25.6388L173.017 24.2918ZM172.416 23.2481C172.269 22.8223 172.186 22.3097 172.186 21.6963H170.186C170.186 22.4878 170.293 23.2278 170.526 23.9023L172.416 23.2481ZM172.186 21.6963V21.0552H170.186V21.6963H172.186ZM172.186 21.0552C172.186 20.438 172.262 19.9211 172.399 19.4919L170.493 18.8861C170.282 19.5486 170.186 20.2758 170.186 21.0552H172.186ZM172.397 19.4964C172.54 19.0554 172.733 18.7129 172.963 18.4474L171.452 17.1375C171.022 17.6338 170.707 18.2223 170.494 18.8815L172.397 19.4964ZM172.963 18.4474C173.192 18.1832 173.463 17.987 173.787 17.8518L173.015 16.0066C172.408 16.2607 171.883 16.64 171.452 17.1375L172.963 18.4474ZM173.791 17.8501C174.119 17.7111 174.514 17.6309 174.994 17.6309V15.6309C174.289 15.6309 173.622 15.7495 173.011 16.0083L173.791 17.8501ZM174.994 17.6309C175.648 17.6309 176.105 17.7414 176.417 17.9015L177.329 16.1219C176.652 15.7742 175.856 15.6309 174.994 15.6309V17.6309ZM176.426 17.9061C176.77 18.0782 177.009 18.301 177.175 18.5732L178.882 17.5323C178.507 16.9158 177.975 16.4446 177.32 16.1173L176.426 17.9061ZM177.175 18.5732C177.364 18.8846 177.494 19.2549 177.55 19.7011L179.535 19.4512C179.447 18.7548 179.234 18.1095 178.882 17.5323L177.175 18.5732ZM178.543 18.5762H176.981V20.5762H178.543V18.5762ZM177.969 19.4202C177.901 18.9891 177.764 18.5812 177.546 18.209L175.819 19.2168C175.898 19.3524 175.96 19.52 175.993 19.7321L177.969 19.4202ZM177.553 18.2199C177.31 17.7918 176.96 17.4615 176.53 17.2331L175.591 18.9993C175.703 19.0587 175.767 19.1261 175.813 19.2059L177.553 18.2199ZM176.546 17.2421C176.083 16.9849 175.552 16.894 175.02 16.894V18.894C175.342 18.894 175.505 18.9513 175.575 18.9904L176.546 17.2421ZM175.02 16.894C174.524 16.894 174.042 16.9886 173.601 17.2091L174.496 18.9979C174.613 18.9391 174.779 18.894 175.02 18.894V16.894ZM173.601 17.2091C173.163 17.4284 172.803 17.75 172.526 18.1527L174.174 19.2858C174.27 19.1468 174.376 19.0579 174.496 18.9979L173.601 17.2091ZM172.52 18.1615C172.258 18.551 172.08 18.997 171.965 19.4769L173.91 19.942C173.982 19.6433 174.078 19.4292 174.18 19.2769L172.52 18.1615ZM171.965 19.4769C171.85 19.9584 171.798 20.4832 171.798 21.0425H173.798C173.798 20.6031 173.839 20.2392 173.91 19.942L171.965 19.4769ZM171.798 21.0425V21.6963H173.798V21.0425H171.798ZM171.798 21.6963C171.798 22.2712 171.858 22.812 171.991 23.3079L173.922 22.7887C173.844 22.4976 173.798 22.137 173.798 21.6963H171.798ZM171.994 23.3176C172.13 23.8065 172.335 24.2567 172.626 24.6449L174.226 23.4449C174.111 23.2915 174.003 23.0773 173.92 22.7791L171.994 23.3176ZM172.632 24.6528C172.933 25.045 173.309 25.3546 173.755 25.5652L174.608 23.7561C174.462 23.6874 174.335 23.5865 174.22 23.437L172.632 24.6528ZM173.766 25.5701C174.21 25.7732 174.689 25.8638 175.185 25.8638V23.8638C174.935 23.8638 174.746 23.819 174.597 23.7512L173.766 25.5701ZM175.185 25.8638C175.594 25.8638 175.983 25.8314 176.326 25.744L175.833 23.8058C175.711 23.8369 175.503 23.8638 175.185 23.8638V25.8638ZM176.343 25.7397C176.627 25.6622 176.913 25.5563 177.162 25.4007L176.102 23.7047C176.08 23.7184 175.998 23.7607 175.817 23.8101L176.343 25.7397ZM177.169 25.3964C177.347 25.2829 177.529 25.148 177.682 24.9866L176.23 23.6111C176.232 23.6084 176.224 23.6169 176.2 23.6358C176.177 23.6542 176.143 23.6788 176.095 23.7091L177.169 25.3964ZM177.956 24.2988V22.4644H175.956V24.2988H177.956ZM176.956 21.4644H175.032V23.4644H176.956V21.4644ZM176.032 22.4644V21.2773H174.032V22.4644H176.032ZM175.032 22.2773H178.543V20.2773H175.032V22.2773ZM183.256 17.9893L184.202 18.3151L184.241 18.2014L184.252 18.0816L183.256 17.9893ZM180.495 26V27H181.208L181.441 26.3259L180.495 26ZM178.826 26L177.89 25.6477L177.381 27H178.826V26ZM182.304 16.7578V15.7578H181.612L181.368 16.4056L182.304 16.7578ZM183.371 16.7578L184.366 16.8502L184.468 15.7578H183.371V16.7578ZM185.567 26L184.622 26.3265L184.854 27H185.567V26ZM182.799 17.9893L181.804 18.0867L181.816 18.2042L181.854 18.3158L182.799 17.9893ZM182.679 16.7578V15.7578H181.576L181.683 16.8553L182.679 16.7578ZM183.751 16.7578L184.687 16.4044L184.443 15.7578H183.751V16.7578ZM187.243 26V27H188.689L188.178 25.6466L187.243 26ZM185.434 22.5723H186.434V21.5723H185.434V22.5723ZM185.434 23.8354V24.8354H186.434V23.8354H185.434ZM180.406 23.8354H179.406V24.8354H180.406V23.8354ZM180.406 22.5723V21.5723H179.406V22.5723H180.406ZM182.311 17.6634L179.55 25.6741L181.441 26.3259L184.202 18.3151L182.311 17.6634ZM180.495 25H178.826V27H180.495V25ZM179.762 26.3523L183.24 17.1101L181.368 16.4056L177.89 25.6477L179.762 26.3523ZM182.304 17.7578H183.371V15.7578H182.304V17.7578ZM182.375 16.6654L182.261 17.8969L184.252 18.0816L184.366 16.8502L182.375 16.6654ZM186.512 25.6735L183.744 17.6627L181.854 18.3158L184.622 26.3265L186.512 25.6735ZM183.795 17.8918L183.674 16.6603L181.683 16.8553L181.804 18.0867L183.795 17.8918ZM182.679 17.7578H183.751V15.7578H182.679V17.7578ZM182.816 17.1112L186.307 26.3534L188.178 25.6466L184.687 16.4044L182.816 17.1112ZM187.243 25H185.567V27H187.243V25ZM184.434 22.5723V23.8354H186.434V22.5723H184.434ZM185.434 22.8354H180.406V24.8354H185.434V22.8354ZM181.406 23.8354V22.5723H179.406V23.8354H181.406ZM180.406 23.5723H185.434V21.5723H180.406V23.5723ZM193.416 24.7368H194.416V23.7368H193.416V24.7368ZM193.416 26V27H194.416V26H193.416ZM188.776 26H187.776V27H188.776V26ZM188.776 24.7368V23.7368H187.776V24.7368H188.776ZM189.221 16.7578H190.221V15.7578H189.221V16.7578ZM189.221 26V27H190.221V26H189.221ZM187.627 26H186.627V27H187.627V26ZM187.627 16.7578V15.7578H186.627V16.7578H187.627ZM192.416 24.7368V26H194.416V24.7368H192.416ZM193.416 25H188.776V27H193.416V25ZM189.776 26V24.7368H187.776V26H189.776ZM188.776 25.7368H193.416V23.7368H188.776V25.7368ZM188.221 16.7578V26H190.221V16.7578H188.221ZM189.221 25H187.627V27H189.221V25ZM188.627 26V16.7578H186.627V26H188.627ZM187.627 17.7578H189.221V15.7578H187.627V17.7578ZM197.724 17.9893L198.669 18.3151L198.709 18.2014L198.72 18.0816L197.724 17.9893ZM194.963 26V27H195.676L195.908 26.3259L194.963 26ZM193.293 26L192.357 25.6477L191.848 27H193.293V26ZM196.772 16.7578V15.7578H196.08L195.836 16.4056L196.772 16.7578ZM197.838 16.7578L198.834 16.8502L198.935 15.7578H197.838V16.7578ZM200.034 26L199.089 26.3265L199.322 27H200.034V26ZM197.267 17.9893L196.272 18.0867L196.283 18.2042L196.322 18.3158L197.267 17.9893ZM197.146 16.7578V15.7578H196.044L196.151 16.8553L197.146 16.7578ZM198.219 16.7578L199.155 16.4044L198.91 15.7578H198.219V16.7578ZM201.71 26V27H203.157L202.646 25.6466L201.71 26ZM199.901 22.5723H200.901V21.5723H199.901V22.5723ZM199.901 23.8354V24.8354H200.901V23.8354H199.901ZM194.874 23.8354H193.874V24.8354H194.874V23.8354ZM194.874 22.5723V21.5723H193.874V22.5723H194.874ZM196.779 17.6634L194.017 25.6741L195.908 26.3259L198.669 18.3151L196.779 17.6634ZM194.963 25H193.293V27H194.963V25ZM194.229 26.3523L197.708 17.1101L195.836 16.4056L192.357 25.6477L194.229 26.3523ZM196.772 17.7578H197.838V15.7578H196.772V17.7578ZM196.842 16.6654L196.728 17.8969L198.72 18.0816L198.834 16.8502L196.842 16.6654ZM200.98 25.6735L198.212 17.6627L196.322 18.3158L199.089 26.3265L200.98 25.6735ZM198.262 17.8918L198.142 16.6603L196.151 16.8553L196.272 18.0867L198.262 17.8918ZM197.146 17.7578H198.219V15.7578H197.146V17.7578ZM197.284 17.1112L200.775 26.3534L202.646 25.6466L199.155 16.4044L197.284 17.1112ZM201.71 25H200.034V27H201.71V25ZM198.901 22.5723V23.8354H200.901V22.5723H198.901ZM199.901 22.8354H194.874V24.8354H199.901V22.8354ZM195.874 23.8354V22.5723H193.874V23.8354H195.874ZM194.874 23.5723H199.901V21.5723H194.874V23.5723ZM213.319 24.7368H214.319V23.7368H213.319V24.7368ZM213.319 26V27H214.319V26H213.319ZM208.412 26H207.412V27H208.412V26ZM208.412 24.7368V23.7368H207.412V24.7368H208.412ZM208.863 16.7578H209.863V15.7578H208.863V16.7578ZM208.863 26V27H209.863V26H208.863ZM207.27 26H206.27V27H207.27V26ZM207.27 16.7578V15.7578H206.27V16.7578H207.27ZM212.678 20.6172H213.678V19.6172H212.678V20.6172ZM212.678 21.8613V22.8613H213.678V21.8613H212.678ZM208.412 21.8613H207.412V22.8613H208.412V21.8613ZM208.412 20.6172V19.6172H207.412V20.6172H208.412ZM213.287 16.7578H214.287V15.7578H213.287V16.7578ZM213.287 18.0273V19.0273H214.287V18.0273H213.287ZM208.412 18.0273H207.412V19.0273H208.412V18.0273ZM208.412 16.7578V15.7578H207.412V16.7578H208.412ZM212.319 24.7368V26H214.319V24.7368H212.319ZM213.319 25H208.412V27H213.319V25ZM209.412 26V24.7368H207.412V26H209.412ZM208.412 25.7368H213.319V23.7368H208.412V25.7368ZM207.863 16.7578V26H209.863V16.7578H207.863ZM208.863 25H207.27V27H208.863V25ZM208.27 26V16.7578H206.27V26H208.27ZM207.27 17.7578H208.863V15.7578H207.27V17.7578ZM211.678 20.6172V21.8613H213.678V20.6172H211.678ZM212.678 20.8613H208.412V22.8613H212.678V20.8613ZM209.412 21.8613V20.6172H207.412V21.8613H209.412ZM208.412 21.6172H212.678V19.6172H208.412V21.6172ZM212.287 16.7578V18.0273H214.287V16.7578H212.287ZM213.287 17.0273H208.412V19.0273H213.287V17.0273ZM209.412 18.0273V16.7578H207.412V18.0273H209.412ZM208.412 17.7578H213.287V15.7578H208.412V17.7578ZM221.302 16.7578H222.302V15.7578H221.302V16.7578ZM221.302 26V27H222.302V26H221.302ZM219.708 26L218.861 26.5307L219.155 27H219.708V26ZM215.563 19.3794L216.411 18.8487L214.563 15.8977V19.3794H215.563ZM215.563 26V27H216.563V26H215.563ZM213.97 26H212.97V27H213.97V26ZM213.97 16.7578V15.7578H212.97V16.7578H213.97ZM215.563 16.7578L216.411 16.2267L216.117 15.7578H215.563V16.7578ZM219.721 23.3911L218.874 23.9222L220.721 26.8694V23.3911H219.721ZM219.721 16.7578V15.7578H218.721V16.7578H219.721ZM220.302 16.7578V26H222.302V16.7578H220.302ZM221.302 25H219.708V27H221.302V25ZM220.556 25.4693L216.411 18.8487L214.716 19.9101L218.861 26.5307L220.556 25.4693ZM214.563 19.3794V26H216.563V19.3794H214.563ZM215.563 25H213.97V27H215.563V25ZM214.97 26V16.7578H212.97V26H214.97ZM213.97 17.7578H215.563V15.7578H213.97V17.7578ZM214.716 17.2889L218.874 23.9222L220.568 22.86L216.411 16.2267L214.716 17.2889ZM220.721 23.3911V16.7578H218.721V23.3911H220.721ZM219.721 17.7578H221.302V15.7578H219.721V17.7578Z" fill="black" mask="url(#path-27-outside-1_270_138)"/>
</svg>
