<svg width="335" height="78" viewBox="0 0 335 78" fill="none" xmlns="http://www.w3.org/2000/svg">
<rect x="0.75" y="1.75" width="333.5" height="74.5" rx="11.25" fill="black"/>
<rect x="0.75" y="1.75" width="333.5" height="74.5" rx="11.25" stroke="black" stroke-width="1.5"/>
<path d="M286.341 0.816406H48.6586C40.7387 0.816406 34.3184 7.23681 34.3184 15.1567V62.842C34.3184 70.7619 40.7387 77.1823 48.6586 77.1823H286.341C294.261 77.1823 300.682 70.7619 300.682 62.842V15.1567C300.682 7.23681 294.261 0.816406 286.341 0.816406Z" fill="black"/>
<path d="M99.477 49.6684C96.0152 49.1319 93.3064 45.1077 93.3064 40.2179C93.3064 35.9427 95.3748 32.3165 98.2221 31.1222C98.3047 31.0924 98.3791 31.0436 98.4395 30.9798C98.4999 30.916 98.5444 30.8389 98.5697 30.7548C98.5949 30.6707 98.6001 30.5818 98.5848 30.4953C98.5695 30.4089 98.5343 30.3272 98.4817 30.2568C97.4149 28.6446 95.9526 27.3325 94.2345 26.4462C92.5164 25.5599 90.5998 25.1288 88.6677 25.1939C84.9636 25.1939 83.7607 27.5567 79.7018 27.6951C75.6516 27.5567 74.4486 25.1939 70.7359 25.1939C52.7349 25.1939 54.5436 57.3362 71.4715 64.6231C73.8342 65.428 75.1929 62.5114 79.7018 62.3643C84.2107 62.5114 85.5694 65.428 87.9407 64.6231C93.8343 62.0874 97.9019 56.5227 99.927 50.3521C99.9447 50.2776 99.9469 50.2001 99.9336 50.1246C99.9202 50.0491 99.8916 49.9771 99.8495 49.9131C99.8073 49.8491 99.7526 49.7944 99.6885 49.7523C99.6244 49.7102 99.5525 49.6817 99.477 49.6684Z" fill="#F9F9F9"/>
<path d="M79.4854 24.565C80.6364 24.4352 84.4184 23.8035 86.6685 21.1466C88.9186 18.4897 88.9186 14.6644 88.858 13.5047C88.8548 13.4596 88.8425 13.4155 88.8219 13.3752C88.8013 13.3349 88.7728 13.2991 88.738 13.27C88.7033 13.2409 88.6631 13.2192 88.6198 13.206C88.5765 13.1928 88.5309 13.1885 88.4859 13.1933C87.3349 13.3318 83.5616 13.9635 81.3114 16.655C79.0613 19.3465 79.0613 23.137 79.1133 24.2967C79.1281 24.3811 79.1753 24.4564 79.2448 24.5065C79.3143 24.5566 79.4006 24.5776 79.4854 24.565Z" fill="#F9F9F9"/>
<path d="M133.731 54.5608H124.427L122.272 61.0948H117.616L126.582 35.8242H131.68L140.646 61.0948H135.886L133.731 54.5608ZM125.483 51.099H132.658L129.144 40.3158H129.014L125.483 51.099Z" fill="#F9F9F9"/>
<path d="M159.174 44.3818C160.611 46.1127 161.321 48.5273 161.321 51.5303C161.457 54.0795 160.705 56.597 159.192 58.6528C158.506 59.5152 157.627 60.2043 156.625 60.6643C155.624 61.1243 154.529 61.3425 153.428 61.3011C150.589 61.3011 148.587 60.1732 147.422 57.9173H147.335V67.2381H143.008V41.9501H147.266V45.1695H147.352C147.887 44.112 148.729 43.2403 149.767 42.6683C150.873 42.0465 152.124 41.7273 153.393 41.7424C154.495 41.7048 155.591 41.9235 156.594 42.3816C157.598 42.8396 158.481 43.5243 159.174 44.3818ZM155.548 56.0134C156.407 54.6758 156.863 53.1197 156.863 51.5303C156.863 49.9409 156.407 48.385 155.548 47.0474C155.138 46.5207 154.613 46.0944 154.013 45.8013C153.413 45.5081 152.754 45.3559 152.086 45.3559C151.419 45.3559 150.76 45.5081 150.16 45.8013C149.56 46.0944 149.035 46.5207 148.625 47.0474C147.766 48.3786 147.309 49.929 147.309 51.513C147.309 53.097 147.766 54.6476 148.625 55.9788C149.038 56.5012 149.564 56.9231 150.163 57.2133C150.763 57.5035 151.42 57.6543 152.086 57.6543C152.752 57.6543 153.41 57.5035 154.009 57.2133C154.609 56.9231 155.135 56.5012 155.548 55.9788V56.0134Z" fill="#F9F9F9"/>
<path d="M180.447 44.3813C181.846 46.4979 182.593 48.9795 182.593 51.5169C182.593 54.0543 181.846 56.5356 180.447 58.6523C179.762 59.5152 178.883 60.2047 177.881 60.6648C176.88 61.1249 175.784 61.3426 174.683 61.3006C171.853 61.3006 169.845 60.1756 168.677 57.9168H168.625V67.2375H164.298V41.9496H168.556V45.169H168.642C169.18 44.1133 170.021 43.2423 171.057 42.6677C172.164 42.0468 173.414 41.7276 174.683 41.7419C175.782 41.707 176.875 41.9271 177.875 42.385C178.875 42.843 179.755 43.5262 180.447 44.3813ZM176.821 56.0129C177.679 54.6753 178.136 53.1192 178.136 51.5298C178.136 49.9404 177.679 48.3845 176.821 47.0469C176.411 46.5201 175.885 46.0939 175.286 45.8007C174.686 45.5075 174.027 45.3553 173.359 45.3553C172.691 45.3553 172.032 45.5075 171.433 45.8007C170.833 46.0939 170.308 46.5201 169.897 47.0469C169.039 48.378 168.582 49.9284 168.582 51.5124C168.582 53.0965 169.039 54.6471 169.897 55.9782C170.311 56.5006 170.837 56.9226 171.436 57.2128C172.036 57.503 172.693 57.6537 173.359 57.6537C174.025 57.6537 174.683 57.503 175.282 57.2128C175.882 56.9226 176.408 56.5006 176.821 55.9782V56.0129Z" fill="#F9F9F9"/>
<path d="M197.254 53.9791C197.325 54.5524 197.525 55.1022 197.838 55.5876C198.151 56.0731 198.569 56.4818 199.062 56.7831C200.222 57.5166 201.577 57.8816 202.948 57.8302C204.266 57.8861 205.569 57.5324 206.678 56.8178C207.119 56.5427 207.482 56.16 207.733 55.7057C207.984 55.2515 208.116 54.7406 208.115 54.2215C208.125 53.7965 208.035 53.375 207.851 52.9916C207.668 52.6081 207.396 52.2733 207.059 52.0146C206.022 51.2978 204.84 50.8164 203.597 50.604L200.326 49.8336C195.751 48.7778 193.46 46.47 193.454 42.9102C193.433 41.8578 193.661 40.8154 194.122 39.8689C194.582 38.9224 195.261 38.099 196.103 37.4666C198.051 36.0217 200.438 35.2914 202.862 35.3983C205.275 35.2844 207.654 36.0157 209.586 37.4666C210.399 38.1096 211.056 38.9293 211.505 39.8634C211.955 40.7975 212.187 41.8215 212.182 42.8582H207.855C207.819 42.3103 207.662 41.7772 207.395 41.297C207.129 40.8168 206.76 40.4013 206.315 40.0802C205.275 39.3713 204.033 39.0191 202.775 39.0764C201.547 39.0203 200.334 39.36 199.313 40.0455C198.9 40.3252 198.563 40.7037 198.334 41.1466C198.104 41.5894 197.989 42.0826 197.998 42.5814C197.991 42.9819 198.083 43.3779 198.264 43.7353C198.445 44.0926 198.71 44.4005 199.036 44.6324C200.051 45.2949 201.186 45.7508 202.377 45.9738L205.285 46.6402C207.881 47.2287 209.699 48.0769 210.858 49.2365C211.443 49.8258 211.899 50.5301 212.197 51.3048C212.495 52.0796 212.628 52.9076 212.589 53.7368C212.627 54.834 212.402 55.9244 211.932 56.9166C211.463 57.9089 210.762 58.7743 209.889 59.44C208.106 60.8421 205.686 61.543 202.628 61.543C200.126 61.6719 197.653 60.9622 195.601 59.5265C194.739 58.8869 194.039 58.0561 193.554 57.0994C193.069 56.1427 192.812 55.0864 192.805 54.0138L197.254 53.9791Z" fill="#F9F9F9"/>
<path d="M221.278 37.6758V41.9512H224.878V45.335H221.252V55.4172C221.206 55.732 221.234 56.0533 221.333 56.3555C221.433 56.6577 221.602 56.9326 221.826 57.1584C222.05 57.3842 222.323 57.555 222.625 57.6568C222.926 57.7587 223.247 57.789 223.563 57.7454C223.997 57.7444 224.43 57.7154 224.861 57.6587V60.9994C224.105 61.1406 223.336 61.2015 222.567 61.1811C220.534 61.1811 219.106 60.7829 218.24 59.9867C217.375 59.1905 216.933 57.8579 216.933 56.0145V45.335H214.337V41.9512H216.933V37.6758H221.278Z" fill="#F9F9F9"/>
<path d="M229.318 58.722C227.668 56.9912 226.84 54.5881 226.834 51.5129C226.695 48.8834 227.593 46.3046 229.335 44.33C231.16 42.634 233.559 41.6914 236.051 41.6914C238.542 41.6914 240.942 42.634 242.767 44.33C244.513 46.3022 245.411 48.8828 245.268 51.5129C245.268 54.5592 244.446 56.9652 242.784 58.722C240.955 60.4241 238.549 61.3703 236.051 61.3703C233.552 61.3703 231.147 60.4241 229.318 58.722ZM239.591 56.2037C240.418 54.7851 240.854 53.1723 240.854 51.5302C240.854 49.8881 240.418 48.2755 239.591 46.857C239.169 46.3301 238.634 45.9047 238.026 45.6125C237.418 45.3202 236.752 45.1686 236.077 45.1686C235.402 45.1686 234.736 45.3202 234.128 45.6125C233.52 45.9047 232.985 46.3301 232.563 46.857C231.73 48.2734 231.291 49.8868 231.291 51.5302C231.291 53.1736 231.73 54.7872 232.563 56.2037C232.961 56.7436 233.483 57.1785 234.087 57.471C234.69 57.7635 235.355 57.9048 236.025 57.8826C236.711 57.9167 237.396 57.7815 238.018 57.4887C238.639 57.1959 239.18 56.7546 239.591 56.2037Z" fill="#F9F9F9"/>
<path d="M248.176 41.9506H252.364V45.2737H252.451C252.703 44.2445 253.295 43.3301 254.13 42.6774C254.967 42.0508 255.992 41.7248 257.038 41.7515C257.488 41.7414 257.937 41.7997 258.37 41.9246V45.8968C257.816 45.696 257.228 45.6079 256.64 45.6373C256.083 45.6069 255.526 45.6961 255.006 45.8991C254.487 46.1021 254.017 46.4142 253.628 46.8142C252.861 47.692 252.47 48.8355 252.537 49.9989V61.1025H248.21L248.176 41.9506Z" fill="#F9F9F9"/>
<path d="M276.804 55.3986C276.674 56.2713 276.362 57.107 275.89 57.8522C275.418 58.5975 274.794 59.2357 274.061 59.7257C272.393 60.8684 270.404 61.4503 268.383 61.3873C267.145 61.4545 265.907 61.2577 264.751 60.81C263.594 60.3624 262.546 59.6743 261.676 58.791C260.038 57.0601 259.221 54.6802 259.227 51.6512C259.092 49.0208 259.968 46.4384 261.676 44.4334C262.507 43.5354 263.523 42.8295 264.655 42.3646C265.786 41.8998 267.006 41.6873 268.228 41.742C269.414 41.685 270.599 41.8834 271.703 42.3239C272.806 42.7643 273.802 43.4365 274.623 44.295C276.277 46.2098 277.124 48.6917 276.986 51.2184V52.655H263.623V52.9233C263.592 53.6007 263.694 54.2778 263.926 54.9151C264.158 55.5524 264.514 56.1374 264.974 56.6361C265.429 57.1073 265.979 57.4766 266.588 57.7198C267.196 57.9629 267.85 58.0743 268.504 58.0466C269.458 58.0728 270.4 57.83 271.222 57.3458C271.947 56.9367 272.491 56.269 272.745 55.4763L276.804 55.3986ZM265.043 46.3459C264.171 47.2377 263.665 48.4232 263.623 49.6693H272.693C272.707 48.4353 272.241 47.244 271.395 46.3459C270.984 45.9263 270.49 45.5971 269.945 45.3795C269.399 45.1619 268.814 45.0607 268.228 45.0824C267.644 45.0699 267.065 45.1753 266.523 45.3924C265.982 45.6095 265.49 45.9339 265.077 46.3459H265.043Z" fill="#F9F9F9"/>
<path d="M124.912 11.4277H119.641V26.1401H124.912C125.855 26.1951 126.799 26.05 127.682 25.7144C128.565 25.3788 129.367 24.8603 130.035 24.1929C131.334 22.6905 131.992 20.7397 131.87 18.7579C131.996 16.7861 131.336 14.8446 130.035 13.3576C129.364 12.6946 128.562 12.18 127.679 11.8476C126.796 11.5151 125.854 11.3721 124.912 11.4277ZM128.296 22.7734C127.832 23.2509 127.269 23.6221 126.648 23.8612C126.026 24.1002 125.36 24.2015 124.696 24.1582H121.892V13.3923H124.661C125.326 13.3501 125.993 13.4528 126.614 13.6934C127.236 13.9339 127.798 14.3065 128.261 14.7855C129.078 15.9572 129.516 17.3512 129.516 18.7795C129.516 20.2078 129.078 21.6017 128.261 22.7734H128.296Z" fill="#F9F9F9"/>
<path d="M138.56 14.9237C137.85 14.8906 137.142 15.0109 136.483 15.2768C135.824 15.5427 135.231 15.9476 134.743 16.464C133.821 17.6458 133.32 19.1018 133.32 20.6008C133.32 22.0998 133.821 23.5558 134.743 24.7376C135.234 25.2522 135.829 25.6555 136.489 25.9198C137.149 26.1841 137.858 26.3032 138.568 26.2694C139.276 26.3042 139.983 26.1852 140.64 25.9208C141.298 25.6564 141.89 25.2527 142.376 24.7376C143.296 23.5532 143.796 22.0963 143.796 20.5966C143.796 19.0969 143.296 17.6399 142.376 16.4556C141.888 15.9407 141.294 15.5371 140.635 15.2728C139.977 15.0084 139.269 14.8895 138.56 14.9237ZM140.758 23.4221C140.501 23.7567 140.167 24.0239 139.784 24.2003C139.401 24.3767 138.981 24.4573 138.56 24.4348C138.138 24.4529 137.718 24.3704 137.334 24.1944C136.951 24.0184 136.614 23.7536 136.353 23.4221C135.837 22.5714 135.565 21.5956 135.565 20.6008C135.565 19.606 135.837 18.6302 136.353 17.7795C136.612 17.4454 136.948 17.1784 137.332 17.0007C137.716 16.823 138.137 16.7399 138.56 16.7583C138.982 16.7369 139.402 16.8187 139.785 16.9967C140.168 17.1746 140.502 17.4433 140.758 17.7795C141.274 18.6302 141.546 19.606 141.546 20.6008C141.546 21.5956 141.274 22.5714 140.758 23.4221Z" fill="#F9F9F9"/>
<path d="M155.816 23.8284H155.773L153.419 15.0703H151.299L148.953 23.8284H148.919L146.859 15.0703H144.652L147.716 26.1392H149.983L152.32 17.7963H152.372L154.726 26.1392H157.011L160.057 15.0703H157.876L155.816 23.8284Z" fill="#F9F9F9"/>
<path d="M167.206 14.9422C166.476 14.8822 165.745 15.0389 165.105 15.3931C164.464 15.7473 163.943 16.2828 163.606 16.9325H163.562V15.0719H161.451V26.1409H163.666V19.7452C163.631 18.9683 163.905 18.2092 164.428 17.6336C164.688 17.3688 165.002 17.1618 165.348 17.0261C165.694 16.8905 166.064 16.8292 166.436 16.8461C166.776 16.823 167.117 16.871 167.437 16.9873C167.758 17.1035 168.05 17.2854 168.296 17.5212C168.753 18.06 168.982 18.755 168.937 19.4598V26.1409H171.144V19.0444C171.206 17.9415 170.83 16.8586 170.096 16.0325C169.716 15.661 169.263 15.3724 168.765 15.1848C168.268 14.9971 167.737 14.9146 167.206 14.9422Z" fill="#F9F9F9"/>
<path d="M175.67 10.7695H173.454V26.1396H175.67V10.7695Z" fill="#F9F9F9"/>
<path d="M182.757 14.9237C182.048 14.8906 181.339 15.0109 180.681 15.2768C180.022 15.5427 179.429 15.9476 178.941 16.464C178.023 17.6476 177.525 19.103 177.525 20.6008C177.525 22.0987 178.023 23.554 178.941 24.7376C179.431 25.2522 180.027 25.6555 180.687 25.9198C181.347 26.1841 182.056 26.3032 182.766 26.2694C183.474 26.3042 184.181 26.1852 184.838 25.9208C185.495 25.6564 186.087 25.2527 186.574 24.7376C187.494 23.5532 187.993 22.0963 187.993 20.5966C187.993 19.0969 187.494 17.6399 186.574 16.4556C186.085 15.9407 185.492 15.5371 184.833 15.2728C184.174 15.0084 183.466 14.8895 182.757 14.9237ZM184.956 23.4221C184.684 23.7399 184.347 23.9951 183.968 24.1701C183.588 24.3451 183.175 24.4357 182.757 24.4357C182.34 24.4357 181.927 24.3451 181.547 24.1701C181.168 23.9951 180.831 23.7399 180.559 23.4221C180.039 22.573 179.764 21.5966 179.764 20.6008C179.764 19.605 180.039 18.6286 180.559 17.7795C180.829 17.4591 181.165 17.2015 181.545 17.0248C181.925 16.8481 182.339 16.7566 182.757 16.7566C183.176 16.7566 183.59 16.8481 183.97 17.0248C184.349 17.2015 184.686 17.4591 184.956 17.7795C185.471 18.6302 185.744 19.606 185.744 20.6008C185.744 21.5956 185.471 22.5714 184.956 23.4221Z" fill="#F9F9F9"/>
<path d="M197.453 15.9099C196.519 15.2725 195.415 14.9316 194.285 14.9316C193.155 14.9316 192.051 15.2725 191.118 15.9099C190.729 16.1885 190.41 16.5527 190.185 16.9744C189.96 17.3961 189.835 17.864 189.819 18.3418H191.888C191.977 17.8736 192.247 17.4596 192.641 17.1907C193.134 16.9001 193.698 16.7535 194.27 16.7673C194.842 16.7811 195.399 16.9547 195.877 17.2687C196.083 17.4485 196.245 17.6731 196.35 17.9252C196.455 18.1773 196.5 18.45 196.483 18.7226V19.588L193.498 19.761C192.381 19.7659 191.292 20.1001 190.365 20.7218C190.011 20.9818 189.727 21.3244 189.537 21.7197C189.347 22.115 189.257 22.5508 189.274 22.9891C189.258 23.4395 189.343 23.8879 189.523 24.3012C189.702 24.7145 189.972 25.0823 190.313 25.3777C191.076 25.9871 192.037 26.295 193.013 26.2431C193.743 26.2495 194.462 26.0646 195.099 25.7067C195.704 25.3861 196.196 24.8876 196.509 24.2786H196.561V26.1307H198.673V18.5322C198.688 18.0302 198.586 17.5315 198.374 17.0762C198.162 16.6209 197.846 16.2215 197.453 15.9099ZM196.483 21.9679C196.487 22.3155 196.411 22.6593 196.26 22.9728C196.11 23.2864 195.891 23.5614 195.618 23.7768C195.039 24.2532 194.307 24.5022 193.558 24.4776C193.014 24.5047 192.476 24.3527 192.026 24.0449C191.845 23.9198 191.699 23.7512 191.601 23.5545C191.502 23.3578 191.455 23.1397 191.464 22.92C191.464 21.9248 192.225 21.3794 193.757 21.2842L196.44 21.1025L196.483 21.9679Z" fill="#F9F9F9"/>
<path d="M208.573 16.9053H208.521C208.2 16.2763 207.7 15.7562 207.084 15.4098C206.468 15.0635 205.764 14.9062 205.06 14.9581C204.42 14.9387 203.784 15.0669 203.202 15.3325C202.62 15.5981 202.106 15.9941 201.702 16.4899C200.862 17.6948 200.412 19.1281 200.412 20.5965C200.412 22.065 200.862 23.4981 201.702 24.7029C202.107 25.2037 202.622 25.6043 203.208 25.873C203.793 26.1417 204.433 26.2714 205.077 26.2521C205.797 26.3055 206.518 26.1453 207.147 25.7912C207.777 25.4371 208.288 24.9049 208.617 24.2615V26.1396H210.763V10.7695H208.556L208.573 16.9053ZM207.768 23.3356C207.511 23.6632 207.182 23.9279 206.808 24.11C206.433 24.2921 206.022 24.3868 205.605 24.3868C205.188 24.3868 204.777 24.2921 204.402 24.11C204.027 23.9279 203.699 23.6632 203.441 23.3356C202.911 22.519 202.629 21.5659 202.629 20.5921C202.629 19.6183 202.911 18.6654 203.441 17.8487C203.699 17.5211 204.027 17.2562 204.402 17.0741C204.777 16.892 205.188 16.7976 205.605 16.7976C206.022 16.7976 206.433 16.892 206.808 17.0741C207.182 17.2562 207.511 17.5211 207.768 17.8487C208.305 18.66 208.591 19.6109 208.591 20.5834C208.591 21.5559 208.305 22.5071 207.768 23.3183V23.3356Z" fill="#F9F9F9"/>
<path d="M222.671 14.9239C221.963 14.8909 221.256 15.0113 220.599 15.2772C219.941 15.5431 219.349 15.948 218.863 16.4642C217.941 17.646 217.44 19.102 217.44 20.601C217.44 22.1 217.941 23.556 218.863 24.7378C219.891 25.7207 221.258 26.2692 222.68 26.2692C224.102 26.2692 225.469 25.7207 226.496 24.7378C227.416 23.5535 227.916 22.0965 227.916 20.5968C227.916 19.0971 227.416 17.6401 226.496 16.4558C226.007 15.9402 225.411 15.5365 224.751 15.2721C224.091 15.0078 223.382 14.889 222.671 14.9239ZM224.878 23.4223C224.606 23.7403 224.268 23.9957 223.888 24.1707C223.508 24.3458 223.094 24.4363 222.676 24.4363C222.257 24.4363 221.843 24.3458 221.463 24.1707C221.083 23.9957 220.745 23.7403 220.473 23.4223C219.953 22.5732 219.677 21.5968 219.677 20.601C219.677 19.6052 219.953 18.6288 220.473 17.7797C220.744 17.4591 221.081 17.2015 221.461 17.0248C221.842 16.848 222.256 16.7564 222.676 16.7564C223.095 16.7564 223.509 16.848 223.89 17.0248C224.27 17.2015 224.608 17.4591 224.878 17.7797C225.388 18.6324 225.658 19.6074 225.658 20.601C225.658 21.5946 225.388 22.5697 224.878 23.4223Z" fill="#F9F9F9"/>
<path d="M235.428 14.9422C234.698 14.8822 233.967 15.0389 233.327 15.3931C232.686 15.7473 232.164 16.2828 231.827 16.9325V15.0719H229.716V26.1409H231.931V19.7452C231.9 18.9689 232.173 18.2111 232.693 17.6336C232.953 17.3688 233.267 17.1618 233.613 17.0261C233.959 16.8905 234.329 16.8292 234.701 16.8461C235.041 16.823 235.382 16.871 235.702 16.9873C236.023 17.1035 236.315 17.2854 236.561 17.5212C237.018 18.06 237.247 18.755 237.202 19.4598V26.1409H239.417V19.0444C239.476 17.9405 239.097 16.8577 238.361 16.0325C237.977 15.6546 237.516 15.3621 237.011 15.1742C236.505 14.9863 235.966 14.9074 235.428 14.9422Z" fill="#F9F9F9"/>
<path d="M249.257 12.5762H247.059V15.0687H245.527V16.7996H247.059V23.2124C247.019 23.622 247.06 24.0354 247.181 24.429C247.301 24.8226 247.498 25.1887 247.76 25.5059C248.429 26.0323 249.275 26.2801 250.123 26.1981C250.541 26.2103 250.959 26.1726 251.369 26.0857V24.3548C251.119 24.387 250.868 24.4015 250.616 24.3981C250.428 24.422 250.237 24.4017 250.058 24.339C249.88 24.2763 249.718 24.1729 249.586 24.0368C249.454 23.9008 249.356 23.7359 249.299 23.5553C249.242 23.3747 249.228 23.1831 249.257 22.996V16.8083H251.378V15.0774H249.257V12.5762Z" fill="#F9F9F9"/>
<path d="M259.175 14.941C258.445 14.8786 257.714 15.0345 257.073 15.3889C256.432 15.7433 255.91 16.2801 255.575 16.9313H255.523V10.7695H253.334V26.1396H255.549V19.7959C255.531 19.4044 255.592 19.0133 255.729 18.6459C255.866 18.2786 256.075 17.9426 256.345 17.6584C256.614 17.3851 256.936 17.1714 257.293 17.0312C257.649 16.8911 258.031 16.8276 258.414 16.8449C258.762 16.8279 259.11 16.8812 259.437 17.0017C259.764 17.1221 260.064 17.3071 260.318 17.5457C260.557 17.8079 260.741 18.1152 260.86 18.4496C260.979 18.784 261.03 19.1386 261.01 19.493V26.1396H263.217V19.0602C263.243 18.5123 263.158 17.9649 262.968 17.4504C262.777 16.936 262.485 16.465 262.109 16.0659C261.723 15.6874 261.264 15.3923 260.759 15.1988C260.254 15.0052 259.715 14.9176 259.175 14.941Z" fill="#F9F9F9"/>
<path d="M274.995 21.1629V20.3839C275.076 18.9354 274.599 17.511 273.662 16.403C273.204 15.9075 272.642 15.5184 272.018 15.2627C271.393 15.0071 270.719 14.8912 270.045 14.9232C269.348 14.8933 268.654 15.0173 268.01 15.2866C267.367 15.5558 266.791 15.9635 266.324 16.4808C265.347 17.6411 264.846 19.1286 264.922 20.6436C264.839 22.141 265.342 23.612 266.324 24.7457C266.811 25.2593 267.404 25.6614 268.061 25.9243C268.718 26.1872 269.424 26.3047 270.131 26.2689C271.268 26.3018 272.386 25.9746 273.325 25.3342C273.739 25.057 274.091 24.6971 274.359 24.2771C274.627 23.8571 274.806 23.3861 274.883 22.8938H272.771C272.619 23.3808 272.288 23.7919 271.845 24.0447C271.34 24.3424 270.761 24.4923 270.175 24.4774C269.769 24.4976 269.364 24.431 268.986 24.2817C268.609 24.1325 268.267 23.904 267.985 23.612C267.695 23.3053 267.469 22.9439 267.32 22.5485C267.171 22.1532 267.103 21.732 267.12 21.31V21.1802L274.995 21.1629ZM268.072 17.5195C268.329 17.2595 268.637 17.0554 268.976 16.9198C269.316 16.7843 269.68 16.7203 270.045 16.7318C270.409 16.7166 270.772 16.7783 271.11 16.9124C271.448 17.0466 271.755 17.2505 272.009 17.5108C272.527 18.0811 272.808 18.8265 272.797 19.5964H267.189C267.213 18.8213 267.521 18.0821 268.054 17.5195H268.072Z" fill="#F9F9F9"/>
<rect x="117.25" y="5" width="174" height="30" fill="black"/>
<path d="M122.654 28H119.921L119.939 26.251H122.654C123.446 26.251 124.108 26.0781 124.641 25.7324C125.18 25.3867 125.584 24.8916 125.854 24.2471C126.129 23.6025 126.267 22.835 126.267 21.9443V21.25C126.267 20.5586 126.188 19.9463 126.029 19.4131C125.877 18.8799 125.649 18.4316 125.344 18.0684C125.045 17.7051 124.676 17.4297 124.237 17.2422C123.803 17.0547 123.302 16.9609 122.734 16.9609H119.868V15.2031H122.734C123.583 15.2031 124.36 15.3467 125.063 15.6338C125.766 15.915 126.372 16.3223 126.882 16.8555C127.398 17.3887 127.793 18.0273 128.069 18.7715C128.344 19.5156 128.482 20.3477 128.482 21.2676V21.9443C128.482 22.8643 128.344 23.6963 128.069 24.4404C127.793 25.1846 127.398 25.8232 126.882 26.3564C126.366 26.8838 125.751 27.291 125.036 27.5781C124.327 27.8594 123.533 28 122.654 28ZM121.143 15.2031V28H118.937V15.2031H121.143ZM138.172 26.251V28H131.379V26.251H138.172ZM132.003 15.2031V28H129.796V15.2031H132.003ZM137.285 20.5469V22.2695H131.379V20.5469H137.285ZM138.129 15.2031V16.9609H131.379V15.2031H138.129ZM145.807 24.7041C145.807 24.4404 145.766 24.2061 145.684 24.001C145.607 23.7959 145.47 23.6084 145.271 23.4385C145.071 23.2686 144.79 23.1045 144.427 22.9463C144.069 22.7822 143.612 22.6152 143.056 22.4453C142.446 22.2578 141.884 22.0498 141.368 21.8213C140.858 21.5869 140.413 21.3174 140.032 21.0127C139.651 20.7021 139.355 20.3477 139.145 19.9492C138.934 19.5449 138.828 19.0791 138.828 18.5518C138.828 18.0303 138.937 17.5557 139.153 17.1279C139.376 16.7002 139.689 16.3311 140.094 16.0205C140.504 15.7041 140.987 15.4609 141.544 15.291C142.101 15.1152 142.716 15.0273 143.39 15.0273C144.339 15.0273 145.156 15.2031 145.842 15.5547C146.533 15.9062 147.063 16.3779 147.433 16.9697C147.808 17.5615 147.995 18.2148 147.995 18.9297H145.807C145.807 18.5078 145.716 18.1357 145.534 17.8135C145.358 17.4854 145.089 17.2275 144.726 17.04C144.368 16.8525 143.914 16.7588 143.363 16.7588C142.842 16.7588 142.408 16.8379 142.063 16.9961C141.717 17.1543 141.459 17.3682 141.289 17.6377C141.119 17.9072 141.034 18.2119 141.034 18.5518C141.034 18.792 141.09 19.0117 141.201 19.2109C141.313 19.4043 141.482 19.5859 141.711 19.7559C141.939 19.9199 142.227 20.0752 142.572 20.2217C142.918 20.3682 143.325 20.5088 143.794 20.6436C144.503 20.8545 145.121 21.0889 145.648 21.3467C146.176 21.5986 146.615 21.8857 146.967 22.208C147.318 22.5303 147.582 22.8965 147.758 23.3066C147.934 23.7109 148.021 24.1709 148.021 24.6865C148.021 25.2256 147.913 25.7119 147.696 26.1455C147.479 26.5732 147.169 26.9395 146.765 27.2441C146.366 27.543 145.886 27.7744 145.323 27.9385C144.767 28.0967 144.146 28.1758 143.46 28.1758C142.845 28.1758 142.238 28.0938 141.641 27.9297C141.049 27.7656 140.51 27.5166 140.023 27.1826C139.537 26.8428 139.15 26.4209 138.863 25.917C138.576 25.4072 138.433 24.8125 138.433 24.1328H140.639C140.639 24.5488 140.709 24.9033 140.85 25.1963C140.996 25.4893 141.198 25.7295 141.456 25.917C141.714 26.0986 142.013 26.2334 142.353 26.3213C142.698 26.4092 143.067 26.4531 143.46 26.4531C143.976 26.4531 144.406 26.3799 144.752 26.2334C145.104 26.0869 145.367 25.8818 145.543 25.6182C145.719 25.3545 145.807 25.0498 145.807 24.7041ZM156.631 23.834H158.829C158.758 24.6719 158.524 25.4189 158.125 26.0752C157.727 26.7256 157.167 27.2383 156.447 27.6133C155.726 27.9883 154.85 28.1758 153.819 28.1758C153.028 28.1758 152.316 28.0352 151.683 27.7539C151.05 27.4668 150.508 27.0625 150.057 26.541C149.606 26.0137 149.26 25.3779 149.02 24.6338C148.786 23.8896 148.668 23.0576 148.668 22.1377V21.0742C148.668 20.1543 148.788 19.3223 149.029 18.5781C149.275 17.834 149.626 17.1982 150.083 16.6709C150.54 16.1377 151.088 15.7305 151.727 15.4492C152.371 15.168 153.095 15.0273 153.898 15.0273C154.917 15.0273 155.779 15.2148 156.482 15.5898C157.185 15.9648 157.73 16.4834 158.117 17.1455C158.509 17.8076 158.749 18.5664 158.837 19.4219H156.64C156.581 18.8711 156.453 18.3994 156.253 18.0068C156.06 17.6143 155.773 17.3154 155.392 17.1104C155.011 16.8994 154.513 16.7939 153.898 16.7939C153.394 16.7939 152.954 16.8877 152.579 17.0752C152.204 17.2627 151.891 17.5381 151.639 17.9014C151.387 18.2646 151.197 18.7129 151.068 19.2461C150.945 19.7734 150.883 20.377 150.883 21.0566V22.1377C150.883 22.7822 150.939 23.3682 151.05 23.8955C151.167 24.417 151.343 24.8652 151.578 25.2402C151.818 25.6152 152.122 25.9053 152.492 26.1104C152.861 26.3154 153.303 26.418 153.819 26.418C154.446 26.418 154.953 26.3184 155.339 26.1191C155.732 25.9199 156.028 25.6299 156.227 25.249C156.432 24.8623 156.567 24.3906 156.631 23.834ZM164.916 16.9082L161.093 28H158.781L163.597 15.2031H165.074L164.916 16.9082ZM168.115 28L164.283 16.9082L164.116 15.2031H165.601L170.435 28H168.115ZM167.93 23.2539V25.0029H160.97V23.2539H167.93ZM170.968 15.2031H175.494C176.467 15.2031 177.296 15.3496 177.982 15.6426C178.667 15.9355 179.192 16.3691 179.555 16.9434C179.924 17.5117 180.109 18.2148 180.109 19.0527C180.109 19.6914 179.991 20.2539 179.757 20.7402C179.523 21.2266 179.192 21.6367 178.764 21.9707C178.336 22.2988 177.826 22.5537 177.235 22.7354L176.567 23.0605H172.497L172.48 21.3115H175.529C176.057 21.3115 176.496 21.2178 176.848 21.0303C177.199 20.8428 177.463 20.5879 177.639 20.2656C177.821 19.9375 177.911 19.5684 177.911 19.1582C177.911 18.7129 177.823 18.3262 177.648 17.998C177.478 17.6641 177.214 17.4092 176.857 17.2334C176.499 17.0518 176.045 16.9609 175.494 16.9609H173.174V28H170.968V15.2031ZM178.272 28L175.266 22.252L177.577 22.2432L180.627 27.8857V28H178.272ZM191.232 21.4609V26.3477C191.05 26.5879 190.766 26.8516 190.379 27.1387C189.999 27.4199 189.492 27.6631 188.859 27.8682C188.226 28.0732 187.438 28.1758 186.495 28.1758C185.692 28.1758 184.957 28.041 184.289 27.7715C183.621 27.4961 183.044 27.0947 182.557 26.5674C182.077 26.04 181.705 25.3984 181.441 24.6426C181.177 23.8809 181.046 23.0137 181.046 22.041V21.1533C181.046 20.1865 181.166 19.3252 181.406 18.5693C181.652 17.8076 182.004 17.1631 182.461 16.6357C182.918 16.1084 183.468 15.71 184.113 15.4404C184.763 15.165 185.499 15.0273 186.319 15.0273C187.368 15.0273 188.235 15.2031 188.921 15.5547C189.612 15.9004 190.145 16.3809 190.52 16.9961C190.895 17.6113 191.132 18.3145 191.232 19.1055H189.07C189 18.6602 188.862 18.2617 188.657 17.9102C188.458 17.5586 188.171 17.2832 187.796 17.084C187.426 16.8789 186.946 16.7764 186.354 16.7764C185.844 16.7764 185.396 16.873 185.009 17.0664C184.623 17.2598 184.3 17.5439 184.043 17.9189C183.791 18.2939 183.6 18.751 183.471 19.29C183.342 19.8291 183.278 20.4443 183.278 21.1357V22.041C183.278 22.7441 183.351 23.3682 183.498 23.9131C183.65 24.458 183.867 24.918 184.148 25.293C184.435 25.668 184.784 25.9521 185.194 26.1455C185.604 26.333 186.067 26.4268 186.583 26.4268C187.087 26.4268 187.5 26.3857 187.822 26.3037C188.144 26.2158 188.399 26.1133 188.587 25.9961C188.78 25.873 188.929 25.7559 189.035 25.6445V23.1045H186.372V21.4609H191.232ZM197.759 16.9082L193.936 28H191.624L196.44 15.2031H197.917L197.759 16.9082ZM200.958 28L197.126 16.9082L196.959 15.2031H198.444L203.278 28H200.958ZM200.773 23.2539V25.0029H193.812V23.2539H200.773ZM211.827 26.251V28H205.402V26.251H211.827ZM206.017 15.2031V28H203.811V15.2031H206.017ZM217.791 16.9082L213.968 28H211.656L216.472 15.2031H217.949L217.791 16.9082ZM220.99 28L217.158 16.9082L216.991 15.2031H218.476L223.31 28H220.99ZM220.805 23.2539V25.0029H213.845V23.2539H220.805ZM239.384 26.251V28H232.59V26.251H239.384ZM233.214 15.2031V28H231.008V15.2031H233.214ZM238.496 20.5469V22.2695H232.59V20.5469H238.496ZM239.34 15.2031V16.9609H232.59V15.2031H239.34ZM250.437 15.2031V28H248.231L242.492 18.833V28H240.286V15.2031H242.492L248.248 24.3877V15.2031H250.437Z" fill="white"/>
</svg>
