<svg width="335" height="77" viewBox="0 0 335 77" fill="none" xmlns="http://www.w3.org/2000/svg">
<rect width="335" height="77" rx="12" fill="black"/>
<path d="M286.514 0.261719H48.4856C40.5513 0.261719 34.1193 6.69356 34.1193 14.6278V62.3739C34.1193 70.3082 40.5513 76.74 48.4856 76.74H286.514C294.449 76.74 300.881 70.3082 300.881 62.3739V14.6278C300.881 6.69356 294.449 0.261719 286.514 0.261719Z" fill="black"/>
<path d="M85.6732 52.4237L61.8306 66.1147C61.0102 66.5883 60.0965 66.8774 59.153 66.9618C58.2096 67.0461 57.2591 66.9239 56.3677 66.6034C55.4763 66.2829 54.6655 65.772 53.9918 65.1062C53.318 64.4404 52.7976 63.6358 52.4666 62.7483L74.2149 41L85.6732 52.4237Z" fill="#F9F9F9"/>
<path d="M72.536 38.5128L50.7877 60.261C50.5275 59.5365 50.3957 58.7722 50.3982 58.0024V19.0578C50.3971 18.2725 50.5348 17.4932 50.805 16.7559L72.536 38.5128Z" fill="#F9F9F9"/>
<path d="M85.6646 25.0722L74.2322 36.4959L52.4666 14.7563C52.8013 13.8771 53.3225 13.0809 53.9943 12.4222C54.666 11.7636 55.4724 11.2581 56.358 10.9407C57.2437 10.6233 58.1875 10.5014 59.1247 10.5834C60.0619 10.6654 60.9703 10.9493 61.7873 11.4157L85.6646 25.0722Z" fill="#F9F9F9"/>
<path d="M97.7545 44.5116L87.6549 50.31L76.2139 38.869L87.6376 27.4453L97.7545 33.235C98.7471 33.8041 99.5718 34.6254 100.145 35.6154C100.719 36.6054 101.021 37.7293 101.021 38.8734C101.021 40.0176 100.719 41.1415 100.145 42.1315C99.5718 43.1215 98.7471 43.9425 97.7545 44.5116Z" fill="#F9F9F9"/>
<path d="M128.348 47.9292H134.597C134.505 48.8134 134.238 49.6706 133.811 50.4507C133.385 51.2307 132.808 51.9181 132.113 52.4727C130.725 53.6903 128.939 54.3584 127.093 54.3508C124.83 54.3058 122.667 53.4095 121.035 51.8409C120.058 50.9776 119.282 49.9099 118.763 48.7135C118.244 47.517 117.995 46.2211 118.032 44.9175C117.996 43.6674 118.217 42.4232 118.681 41.262C119.146 40.1008 119.844 39.0475 120.732 38.1673C121.593 37.2739 122.629 36.5686 123.776 36.0964C124.923 35.6242 126.156 35.3951 127.396 35.4237C130.356 35.4237 132.86 36.7911 134.908 39.5258L137.608 36.9295C136.279 35.3346 134.654 34.0121 132.822 33.0351C131.105 32.2328 129.231 31.822 127.336 31.8322C124.759 31.8253 122.238 32.5808 120.09 34.0034C117.942 35.426 116.262 37.4522 115.263 39.8271C114.264 42.202 113.99 44.8194 114.475 47.3498C114.96 49.8803 116.182 52.2107 117.989 54.0478C119.145 55.2682 120.542 56.2358 122.091 56.8897C123.64 57.5435 125.308 57.8697 126.989 57.8472C128.668 57.8902 130.335 57.5598 131.871 56.8804C133.406 56.2009 134.772 55.1893 135.869 53.9181C136.852 52.8286 137.597 51.5465 138.058 50.1534C138.525 48.5308 138.75 46.8481 138.725 45.1598V44.2944H128.339L128.348 47.9292Z" fill="#F9F9F9"/>
<path d="M149.196 41.1795C148.091 41.1565 146.992 41.3571 145.966 41.769C144.94 42.1809 144.008 42.7958 143.225 43.5768C142.435 44.3249 141.81 45.229 141.388 46.2316C140.967 47.2342 140.758 48.3136 140.776 49.4011C140.741 50.5218 140.937 51.6375 141.35 52.6795C141.764 53.7215 142.388 54.6677 143.182 55.4592C143.953 56.2525 144.88 56.8779 145.905 57.2963C146.929 57.7148 148.029 57.9172 149.136 57.8909C150.253 57.9174 151.365 57.7206 152.405 57.3119C153.445 56.9033 154.393 56.2909 155.194 55.5109C156.758 53.9255 157.634 51.788 157.634 49.5611C157.634 47.3341 156.758 45.1967 155.194 43.6112C154.409 42.8228 153.474 42.201 152.443 41.7832C151.413 41.3653 150.308 41.16 149.196 41.1795ZM152.658 53.2349C151.74 54.1227 150.513 54.6191 149.235 54.6191C147.958 54.6191 146.731 54.1227 145.812 53.2349C144.922 52.1962 144.466 50.8539 144.54 49.4875C144.485 48.1638 144.951 46.8714 145.838 45.8874C146.746 44.989 147.971 44.4849 149.248 44.4849C150.525 44.4849 151.751 44.989 152.658 45.8874C153.487 46.9358 153.938 48.2332 153.938 49.5697C153.938 50.9063 153.487 52.2039 152.658 53.2523V53.2349Z" fill="#F9F9F9"/>
<path d="M168.132 41.1795C167.026 41.1565 165.927 41.3571 164.901 41.769C163.875 42.1809 162.943 42.7958 162.16 43.5768C161.372 44.3262 160.748 45.2305 160.327 46.2329C159.905 47.2352 159.695 48.3139 159.711 49.4011C159.676 50.5218 159.872 51.6375 160.286 52.6795C160.7 53.7215 161.323 54.6677 162.117 55.4592C162.889 56.2525 163.816 56.8779 164.84 57.2963C165.865 57.7148 166.965 57.9172 168.071 57.8909C169.188 57.9174 170.3 57.7206 171.34 57.3119C172.38 56.9033 173.329 56.2909 174.129 55.5109C175.693 53.9255 176.57 51.788 176.57 49.5611C176.57 47.3341 175.693 45.1967 174.129 43.6112C173.345 42.8228 172.409 42.201 171.379 41.7832C170.348 41.3653 169.244 41.16 168.132 41.1795ZM171.593 53.2349C170.675 54.1227 169.448 54.6191 168.171 54.6191C166.893 54.6191 165.666 54.1227 164.748 53.2349C163.857 52.1962 163.401 50.8539 163.476 49.4875C163.421 48.1638 163.887 46.8714 164.774 45.8874C165.681 44.989 166.907 44.4849 168.184 44.4849C169.461 44.4849 170.686 44.989 171.593 45.8874C172.422 46.9358 172.873 48.2332 172.873 49.5697C172.873 50.9063 172.422 52.2039 171.593 53.2523V53.2349Z" fill="#F9F9F9"/>
<path d="M191.032 43.404C190.42 42.6888 189.657 42.1184 188.798 41.7337C187.939 41.3491 187.005 41.1601 186.064 41.18C185.01 41.1529 183.964 41.3736 183.011 41.8246C182.058 42.2755 181.225 42.9441 180.577 43.7763C179.272 45.4519 178.589 47.5293 178.647 49.6526C178.575 51.8161 179.316 53.928 180.724 55.572C181.366 56.303 182.154 56.8907 183.037 57.2968C183.921 57.7028 184.88 57.9181 185.853 57.9287C186.825 57.9393 187.789 57.7449 188.681 57.3582C189.574 56.9716 190.374 56.4014 191.032 55.6846V57.8913C191.032 61.1684 189.696 62.8071 187.025 62.8071C186.394 62.8469 185.764 62.7339 185.187 62.4777C184.61 62.2216 184.103 61.83 183.71 61.3359C183.342 60.7979 183.105 60.1815 183.018 59.5358H179.348C179.41 60.4649 179.657 61.3722 180.075 62.2045C180.492 63.0368 181.072 63.7772 181.78 64.3821C183.246 65.5647 185.09 66.1793 186.973 66.1129C188.077 66.1682 189.179 65.9754 190.199 65.5486C191.219 65.1218 192.131 64.4719 192.866 63.6466C193.629 62.7733 194.154 61.7181 194.389 60.5829C194.486 60.0854 194.553 59.5826 194.588 59.0771C194.64 58.5145 194.666 57.8568 194.666 57.1125V41.6731H191.014L191.032 43.404ZM190.071 53.0883C189.665 53.5648 189.16 53.9474 188.591 54.2098C188.023 54.4723 187.404 54.6081 186.778 54.6081C186.152 54.6081 185.533 54.4723 184.965 54.2098C184.396 53.9474 183.891 53.5648 183.485 53.0883C182.78 52.0376 182.404 50.8009 182.404 49.5357C182.404 48.2705 182.78 47.0337 183.485 45.9829C183.868 45.4823 184.366 45.0811 184.937 44.813C185.508 44.545 186.135 44.418 186.765 44.4427C187.369 44.4254 187.969 44.543 188.521 44.7871C189.074 45.0311 189.565 45.3953 189.958 45.8532C190.82 46.8794 191.262 48.1931 191.196 49.5313C191.256 50.8131 190.857 52.0743 190.071 53.0883Z" fill="#F9F9F9"/>
<path d="M200.412 31.875H196.76V57.414H200.412V31.875Z" fill="#F9F9F9"/>
<path d="M212.693 53.9644C212.029 54.4173 211.237 54.6449 210.434 54.6134C209.904 54.6339 209.376 54.5435 208.882 54.3483C208.389 54.1531 207.942 53.8573 207.57 53.4797C206.788 52.633 206.336 51.5333 206.297 50.3814H217.626V49.5159C217.757 47.294 217.036 45.1057 215.609 43.3972C214.908 42.6481 214.051 42.0611 213.098 41.6769C212.146 41.2928 211.122 41.1209 210.097 41.1732C209.062 41.1299 208.03 41.3118 207.072 41.7063C206.114 42.1008 205.253 42.6983 204.549 43.4579C203.118 45.143 202.376 47.3069 202.472 49.5159C202.368 51.7366 203.135 53.9102 204.61 55.574C205.341 56.3327 206.226 56.9274 207.205 57.3183C208.183 57.7093 209.234 57.8876 210.287 57.8415C211.059 57.8476 211.829 57.7604 212.58 57.5818C213.278 57.4014 213.941 57.1091 214.545 56.7164C215.183 56.3232 215.765 55.8457 216.276 55.297C216.847 54.6545 217.352 53.9558 217.782 53.2113L214.701 51.4805C214.181 52.4186 213.501 53.2592 212.693 53.9644ZM207.059 46.1755C207.297 45.8255 207.589 45.5158 207.924 45.258C208.245 45.0082 208.605 44.8124 208.989 44.6783C209.389 44.538 209.811 44.4676 210.235 44.4704C211.103 44.4136 211.961 44.6817 212.642 45.2223C213.324 45.763 213.78 46.5375 213.922 47.3956H206.514C206.633 46.9637 206.817 46.5523 207.059 46.1755Z" fill="#F9F9F9"/>
<path d="M236.016 32.8014C234.453 32.4649 232.855 32.3196 231.257 32.3687H226.929V57.4232H230.746V47.2456H232.477C234.725 47.3661 236.938 46.6509 238.691 45.2378C239.453 44.5556 240.056 43.7127 240.454 42.7699C240.852 41.8272 241.036 40.8079 240.993 39.7855C241.023 38.7974 240.846 37.814 240.475 36.8976C240.104 35.9813 239.547 35.1522 238.838 34.4632C238.058 33.6735 237.085 33.1007 236.016 32.8014ZM232.165 43.7059H230.746V35.8217H231.992C235.575 35.8217 237.367 37.1143 237.367 39.6991C237.372 42.3704 235.639 43.7059 232.165 43.7059Z" fill="#F9F9F9"/>
<path d="M246.471 32.3672H242.819V57.4217H246.471V32.3672Z" fill="#F9F9F9"/>
<path d="M260.664 43.4465C260.043 42.7439 259.282 42.1793 258.429 41.7887C257.577 41.3982 256.652 41.1905 255.714 41.1792C254.707 41.1585 253.708 41.3603 252.788 41.7701C251.868 42.18 251.05 42.788 250.392 43.5505C248.958 45.1823 248.2 47.2989 248.271 49.4699C248.192 51.6839 248.949 53.8466 250.392 55.5279C251.03 56.2512 251.81 56.8351 252.684 57.2429C253.558 57.6508 254.507 57.874 255.471 57.8984C256.436 57.9227 257.394 57.7479 258.288 57.3847C259.182 57.0215 259.991 56.4777 260.664 55.7876V57.4492H264.334V41.6379H260.664V43.4465ZM259.643 53.2259C259.234 53.6865 258.727 54.0503 258.16 54.2913C257.593 54.5322 256.979 54.6444 256.363 54.6194C255.764 54.6321 255.17 54.5084 254.626 54.2581C254.082 54.0077 253.602 53.6371 253.222 53.174C252.377 52.1326 251.943 50.8181 252.001 49.4785C251.961 48.1742 252.405 46.9012 253.248 45.9044C253.635 45.4486 254.118 45.0841 254.663 44.8372C255.207 44.5903 255.8 44.467 256.398 44.4763C257.01 44.4572 257.619 44.5748 258.18 44.8203C258.742 45.0658 259.241 45.4332 259.643 45.8957C260.451 46.9468 260.889 48.2351 260.889 49.5607C260.889 50.8863 260.451 52.1749 259.643 53.2259Z" fill="#F9F9F9"/>
<path d="M279.712 41.6113L275.203 50.6984L270.366 41.6113H266.125L273.239 54.4802L267.068 66.0165H271.24L283.832 41.6113H279.712Z" fill="#F9F9F9"/>
<path d="M121.381 17.2826H126.625V17.7067C126.638 18.5611 126.525 19.4126 126.288 20.2337C126.055 20.941 125.678 21.5924 125.18 22.1465C124.623 22.7898 123.931 23.3018 123.153 23.646C122.375 23.9901 121.53 24.1577 120.68 24.1368C119.826 24.1482 118.979 23.9828 118.193 23.6506C117.407 23.3184 116.697 22.8268 116.11 22.2069C115.032 21.0975 114.376 19.6458 114.255 18.1033C114.134 16.5607 114.557 15.0245 115.45 13.7609C116.342 12.4972 117.649 11.5858 119.143 11.1842C120.637 10.7826 122.225 10.9164 123.631 11.5622C124.565 12.0477 125.39 12.719 126.054 13.5352L124.696 14.842C124.28 14.2096 123.715 13.6888 123.051 13.3252C122.387 12.9616 121.644 12.7663 120.888 12.7564C120.258 12.7419 119.632 12.8582 119.05 13.0981C118.467 13.3379 117.941 13.6961 117.504 14.1499C117.05 14.6015 116.694 15.142 116.458 15.7377C116.223 16.3334 116.113 16.9715 116.136 17.6116C116.138 18.8485 116.618 20.0367 117.476 20.9273C118.335 21.8179 119.504 22.3418 120.741 22.3888C121.678 22.3911 122.583 22.0492 123.285 21.4281C123.637 21.1469 123.93 20.7987 124.147 20.4035C124.364 20.0084 124.5 19.5743 124.548 19.1261H121.381V17.2826Z" fill="#F9F9F9"/>
<path d="M135.609 12.9922H130.52V16.0125H135.461V17.8127H130.52V22.0706H135.609V23.8707H128.625V11.166H135.626L135.609 12.9922Z" fill="#F9F9F9"/>
<path d="M142.472 12.9916V23.8961H140.551V12.9916H137.634V11.1914H145.38V12.9916H142.472Z" fill="#F9F9F9"/>
<path d="M153.61 11.1914V23.8961H151.697V11.1914H153.61Z" fill="#F9F9F9"/>
<path d="M160.36 13.0002V23.8961H158.448V13.0002H155.523V11.1914H163.312V13.0002H160.36Z" fill="#F9F9F9"/>
<path d="M167.89 17.4919C167.881 16.629 168.051 15.7738 168.389 14.9799C168.727 14.186 169.226 13.4706 169.854 12.8791C170.469 12.258 171.203 11.7678 172.012 11.4377C172.821 11.1075 173.688 10.9442 174.562 10.9578C176.311 10.9669 177.985 11.6657 179.221 12.9021C180.458 14.1385 181.156 15.8127 181.165 17.5612C181.181 18.4293 181.015 19.2909 180.678 20.0911C180.341 20.8914 179.841 21.6125 179.21 22.2085C177.995 23.4009 176.372 24.0868 174.67 24.127C172.968 24.1671 171.314 23.5586 170.045 22.4248C169.34 21.8156 168.781 21.0563 168.408 20.2027C168.035 19.3491 167.858 18.4228 167.89 17.4919ZM169.82 17.4919C169.801 18.1361 169.917 18.7771 170.162 19.3734C170.406 19.9697 170.773 20.5081 171.239 20.9536C171.663 21.3833 172.168 21.7241 172.725 21.956C173.283 22.1878 173.881 22.306 174.484 22.3038C175.111 22.3172 175.734 22.2019 176.314 21.9653C176.895 21.7286 177.421 21.3755 177.859 20.9276C178.737 20.0111 179.227 18.7913 179.227 17.5223C179.227 16.2534 178.737 15.0334 177.859 14.1168C176.972 13.2305 175.769 12.7326 174.515 12.7326C173.26 12.7326 172.057 13.2305 171.17 14.1168C170.724 14.5594 170.374 15.0889 170.142 15.6725C169.909 16.2561 169.8 16.8814 169.82 17.5092V17.4919Z" fill="#F9F9F9"/>
<path d="M190.495 20.0188V11.1914H192.407V23.8961H190.495L184.662 14.9994V23.8961H182.749V11.1914H184.662L190.495 20.0188Z" fill="#F9F9F9"/>
<rect x="109" y="1.5" width="180" height="30" fill="black"/>
<path d="M120.404 24.5H117.671L117.689 22.751H120.404C121.196 22.751 121.858 22.5781 122.391 22.2324C122.93 21.8867 123.334 21.3916 123.604 20.7471C123.879 20.1025 124.017 19.335 124.017 18.4443V17.75C124.017 17.0586 123.938 16.4463 123.779 15.9131C123.627 15.3799 123.399 14.9316 123.094 14.5684C122.795 14.2051 122.426 13.9297 121.987 13.7422C121.553 13.5547 121.052 13.4609 120.484 13.4609H117.618V11.7031H120.484C121.333 11.7031 122.11 11.8467 122.813 12.1338C123.516 12.415 124.122 12.8223 124.632 13.3555C125.148 13.8887 125.543 14.5273 125.819 15.2715C126.094 16.0156 126.232 16.8477 126.232 17.7676V18.4443C126.232 19.3643 126.094 20.1963 125.819 20.9404C125.543 21.6846 125.148 22.3232 124.632 22.8564C124.116 23.3838 123.501 23.791 122.786 24.0781C122.077 24.3594 121.283 24.5 120.404 24.5ZM118.893 11.7031V24.5H116.687V11.7031H118.893ZM135.922 22.751V24.5H129.129V22.751H135.922ZM129.753 11.7031V24.5H127.546V11.7031H129.753ZM135.035 17.0469V18.7695H129.129V17.0469H135.035ZM135.879 11.7031V13.4609H129.129V11.7031H135.879ZM143.557 21.2041C143.557 20.9404 143.516 20.7061 143.434 20.501C143.357 20.2959 143.22 20.1084 143.021 19.9385C142.821 19.7686 142.54 19.6045 142.177 19.4463C141.819 19.2822 141.362 19.1152 140.806 18.9453C140.196 18.7578 139.634 18.5498 139.118 18.3213C138.608 18.0869 138.163 17.8174 137.782 17.5127C137.401 17.2021 137.105 16.8477 136.895 16.4492C136.684 16.0449 136.578 15.5791 136.578 15.0518C136.578 14.5303 136.687 14.0557 136.903 13.6279C137.126 13.2002 137.439 12.8311 137.844 12.5205C138.254 12.2041 138.737 11.9609 139.294 11.791C139.851 11.6152 140.466 11.5273 141.14 11.5273C142.089 11.5273 142.906 11.7031 143.592 12.0547C144.283 12.4062 144.813 12.8779 145.183 13.4697C145.558 14.0615 145.745 14.7148 145.745 15.4297H143.557C143.557 15.0078 143.466 14.6357 143.284 14.3135C143.108 13.9854 142.839 13.7275 142.476 13.54C142.118 13.3525 141.664 13.2588 141.113 13.2588C140.592 13.2588 140.158 13.3379 139.813 13.4961C139.467 13.6543 139.209 13.8682 139.039 14.1377C138.869 14.4072 138.784 14.7119 138.784 15.0518C138.784 15.292 138.84 15.5117 138.951 15.7109C139.063 15.9043 139.232 16.0859 139.461 16.2559C139.689 16.4199 139.977 16.5752 140.322 16.7217C140.668 16.8682 141.075 17.0088 141.544 17.1436C142.253 17.3545 142.871 17.5889 143.398 17.8467C143.926 18.0986 144.365 18.3857 144.717 18.708C145.068 19.0303 145.332 19.3965 145.508 19.8066C145.684 20.2109 145.771 20.6709 145.771 21.1865C145.771 21.7256 145.663 22.2119 145.446 22.6455C145.229 23.0732 144.919 23.4395 144.515 23.7441C144.116 24.043 143.636 24.2744 143.073 24.4385C142.517 24.5967 141.896 24.6758 141.21 24.6758C140.595 24.6758 139.988 24.5938 139.391 24.4297C138.799 24.2656 138.26 24.0166 137.773 23.6826C137.287 23.3428 136.9 22.9209 136.613 22.417C136.326 21.9072 136.183 21.3125 136.183 20.6328H138.389C138.389 21.0488 138.459 21.4033 138.6 21.6963C138.746 21.9893 138.948 22.2295 139.206 22.417C139.464 22.5986 139.763 22.7334 140.103 22.8213C140.448 22.9092 140.817 22.9531 141.21 22.9531C141.726 22.9531 142.156 22.8799 142.502 22.7334C142.854 22.5869 143.117 22.3818 143.293 22.1182C143.469 21.8545 143.557 21.5498 143.557 21.2041ZM154.381 20.334H156.579C156.508 21.1719 156.274 21.9189 155.875 22.5752C155.477 23.2256 154.917 23.7383 154.197 24.1133C153.476 24.4883 152.6 24.6758 151.569 24.6758C150.778 24.6758 150.066 24.5352 149.433 24.2539C148.8 23.9668 148.258 23.5625 147.807 23.041C147.356 22.5137 147.01 21.8779 146.77 21.1338C146.536 20.3896 146.418 19.5576 146.418 18.6377V17.5742C146.418 16.6543 146.538 15.8223 146.779 15.0781C147.025 14.334 147.376 13.6982 147.833 13.1709C148.29 12.6377 148.838 12.2305 149.477 11.9492C150.121 11.668 150.845 11.5273 151.648 11.5273C152.667 11.5273 153.529 11.7148 154.232 12.0898C154.935 12.4648 155.48 12.9834 155.867 13.6455C156.259 14.3076 156.499 15.0664 156.587 15.9219H154.39C154.331 15.3711 154.203 14.8994 154.003 14.5068C153.81 14.1143 153.523 13.8154 153.142 13.6104C152.761 13.3994 152.263 13.2939 151.648 13.2939C151.144 13.2939 150.704 13.3877 150.329 13.5752C149.954 13.7627 149.641 14.0381 149.389 14.4014C149.137 14.7646 148.947 15.2129 148.818 15.7461C148.695 16.2734 148.633 16.877 148.633 17.5566V18.6377C148.633 19.2822 148.689 19.8682 148.8 20.3955C148.917 20.917 149.093 21.3652 149.328 21.7402C149.568 22.1152 149.872 22.4053 150.242 22.6104C150.611 22.8154 151.053 22.918 151.569 22.918C152.196 22.918 152.703 22.8184 153.089 22.6191C153.482 22.4199 153.778 22.1299 153.977 21.749C154.182 21.3623 154.317 20.8906 154.381 20.334ZM162.666 13.4082L158.843 24.5H156.531L161.347 11.7031H162.824L162.666 13.4082ZM165.865 24.5L162.033 13.4082L161.866 11.7031H163.351L168.185 24.5H165.865ZM165.68 19.7539V21.5029H158.72V19.7539H165.68ZM168.718 11.7031H173.244C174.217 11.7031 175.046 11.8496 175.732 12.1426C176.417 12.4355 176.942 12.8691 177.305 13.4434C177.674 14.0117 177.859 14.7148 177.859 15.5527C177.859 16.1914 177.741 16.7539 177.507 17.2402C177.273 17.7266 176.942 18.1367 176.514 18.4707C176.086 18.7988 175.576 19.0537 174.985 19.2354L174.317 19.5605H170.247L170.23 17.8115H173.279C173.807 17.8115 174.246 17.7178 174.598 17.5303C174.949 17.3428 175.213 17.0879 175.389 16.7656C175.571 16.4375 175.661 16.0684 175.661 15.6582C175.661 15.2129 175.573 14.8262 175.398 14.498C175.228 14.1641 174.964 13.9092 174.607 13.7334C174.249 13.5518 173.795 13.4609 173.244 13.4609H170.924V24.5H168.718V11.7031ZM176.022 24.5L173.016 18.752L175.327 18.7432L178.377 24.3857V24.5H176.022ZM188.982 17.9609V22.8477C188.8 23.0879 188.516 23.3516 188.129 23.6387C187.749 23.9199 187.242 24.1631 186.609 24.3682C185.976 24.5732 185.188 24.6758 184.245 24.6758C183.442 24.6758 182.707 24.541 182.039 24.2715C181.371 23.9961 180.794 23.5947 180.307 23.0674C179.827 22.54 179.455 21.8984 179.191 21.1426C178.927 20.3809 178.796 19.5137 178.796 18.541V17.6533C178.796 16.6865 178.916 15.8252 179.156 15.0693C179.402 14.3076 179.754 13.6631 180.211 13.1357C180.668 12.6084 181.218 12.21 181.863 11.9404C182.513 11.665 183.249 11.5273 184.069 11.5273C185.118 11.5273 185.985 11.7031 186.671 12.0547C187.362 12.4004 187.895 12.8809 188.27 13.4961C188.645 14.1113 188.882 14.8145 188.982 15.6055H186.82C186.75 15.1602 186.612 14.7617 186.407 14.4102C186.208 14.0586 185.921 13.7832 185.546 13.584C185.176 13.3789 184.696 13.2764 184.104 13.2764C183.594 13.2764 183.146 13.373 182.759 13.5664C182.373 13.7598 182.05 14.0439 181.793 14.4189C181.541 14.7939 181.35 15.251 181.221 15.79C181.092 16.3291 181.028 16.9443 181.028 17.6357V18.541C181.028 19.2441 181.101 19.8682 181.248 20.4131C181.4 20.958 181.617 21.418 181.898 21.793C182.185 22.168 182.534 22.4521 182.944 22.6455C183.354 22.833 183.817 22.9268 184.333 22.9268C184.837 22.9268 185.25 22.8857 185.572 22.8037C185.894 22.7158 186.149 22.6133 186.337 22.4961C186.53 22.373 186.679 22.2559 186.785 22.1445V19.6045H184.122V17.9609H188.982ZM195.509 13.4082L191.686 24.5H189.374L194.19 11.7031H195.667L195.509 13.4082ZM198.708 24.5L194.876 13.4082L194.709 11.7031H196.194L201.028 24.5H198.708ZM198.523 19.7539V21.5029H191.562V19.7539H198.523ZM209.577 22.751V24.5H203.152V22.751H209.577ZM203.767 11.7031V24.5H201.561V11.7031H203.767ZM215.541 13.4082L211.718 24.5H209.406L214.222 11.7031H215.699L215.541 13.4082ZM218.74 24.5L214.908 13.4082L214.741 11.7031H216.226L221.06 24.5H218.74ZM218.555 19.7539V21.5029H211.595V19.7539H218.555ZM237.134 22.751V24.5H230.34V22.751H237.134ZM230.964 11.7031V24.5H228.758V11.7031H230.964ZM236.246 17.0469V18.7695H230.34V17.0469H236.246ZM237.09 11.7031V13.4609H230.34V11.7031H237.09ZM248.187 11.7031V24.5H245.981L240.242 15.333V24.5H238.036V11.7031H240.242L245.998 20.8877V11.7031H248.187Z" fill="white"/>
</svg>
