<svg width="323" height="51" viewBox="0 0 323 51" fill="none" xmlns="http://www.w3.org/2000/svg">
<rect x="0.5" y="0.5" width="322" height="50" rx="7.5" fill="black"/>
<rect x="0.5" y="0.5" width="322" height="50" rx="7.5" stroke="black"/>
<path d="M240.728 0.0449219H82.2723C76.9924 0.0449219 72.7122 4.32519 72.7122 9.60512V41.3953C72.7122 46.6752 76.9924 50.9555 82.2723 50.9555H240.728C246.007 50.9555 250.288 46.6752 250.288 41.3953V9.60512C250.288 4.32519 246.007 0.0449219 240.728 0.0449219Z" fill="black"/>
<path d="M116.151 32.6136C113.843 32.2559 112.038 29.5731 112.038 26.3133C112.038 23.4631 113.416 21.0457 115.315 20.2495C115.37 20.2296 115.419 20.197 115.46 20.1545C115.5 20.112 115.53 20.0606 115.546 20.0045C115.563 19.9484 115.567 19.8892 115.556 19.8315C115.546 19.7739 115.523 19.7194 115.488 19.6725C114.777 18.5977 113.802 17.723 112.656 17.1321C111.511 16.5412 110.233 16.2538 108.945 16.2973C106.476 16.2973 105.674 17.8724 102.968 17.9647C100.268 17.8724 99.4657 16.2973 96.9905 16.2973C84.9899 16.2973 86.1957 37.7254 97.4809 42.5834C99.056 43.12 99.9619 41.1756 102.968 41.0775C105.974 41.1756 106.88 43.12 108.46 42.5834C112.389 40.8929 115.101 37.1831 116.451 33.0694C116.463 33.0197 116.465 32.968 116.456 32.9177C116.447 32.8674 116.428 32.8194 116.4 32.7767C116.371 32.734 116.335 32.6976 116.292 32.6695C116.25 32.6414 116.202 32.6224 116.151 32.6136Z" fill="#F9F9F9"/>
<path d="M102.824 15.8773C103.591 15.7908 106.112 15.3696 107.612 13.5984C109.112 11.8271 109.112 9.27693 109.072 8.50381C109.07 8.47369 109.062 8.44434 109.048 8.41746C109.034 8.39058 109.015 8.36669 108.992 8.34731C108.969 8.32793 108.942 8.31344 108.913 8.30463C108.884 8.29583 108.854 8.29301 108.824 8.29618C108.056 8.38849 105.541 8.80967 104.041 10.604C102.541 12.3983 102.541 14.9253 102.575 15.6984C102.585 15.7547 102.617 15.8049 102.663 15.8383C102.709 15.8717 102.767 15.8857 102.824 15.8773Z" fill="#F9F9F9"/>
<path d="M138.987 35.8739H132.785L131.348 40.2299H128.244L134.221 23.3828H137.62L143.597 40.2299H140.424L138.987 35.8739ZM133.489 33.566H138.272L135.929 26.3772H135.843L133.489 33.566Z" fill="#F9F9F9"/>
<path d="M155.949 29.0885C156.907 30.2425 157.38 31.8522 157.38 33.8542C157.472 35.5536 156.97 37.232 155.961 38.6025C155.504 39.1775 154.918 39.6368 154.25 39.9435C153.583 40.2502 152.852 40.3956 152.118 40.3681C150.226 40.3681 148.891 39.6161 148.114 38.1122H148.057V44.326H145.172V27.4674H148.011V29.6137H148.068C148.425 28.9087 148.986 28.3275 149.678 27.9462C150.416 27.5317 151.249 27.3189 152.095 27.3289C152.83 27.3039 153.561 27.4497 154.23 27.755C154.898 28.0604 155.487 28.5169 155.949 29.0885ZM153.532 36.8429C154.104 35.9512 154.409 34.9138 154.409 33.8542C154.409 32.7946 154.104 31.7573 153.532 30.8656C153.258 30.5144 152.908 30.2303 152.508 30.0348C152.109 29.8394 151.669 29.7379 151.224 29.7379C150.779 29.7379 150.34 29.8394 149.94 30.0348C149.54 30.2303 149.19 30.5144 148.916 30.8656C148.344 31.7531 148.04 32.7866 148.04 33.8427C148.04 34.8987 148.344 35.9324 148.916 36.8198C149.192 37.1681 149.542 37.4494 149.942 37.6429C150.342 37.8363 150.78 37.9368 151.224 37.9368C151.668 37.9368 152.106 37.8363 152.506 37.6429C152.906 37.4494 153.257 37.1681 153.532 36.8198V36.8429Z" fill="#F9F9F9"/>
<path d="M170.131 29.0882C171.064 30.4993 171.562 32.1536 171.562 33.8452C171.562 35.5369 171.064 37.1911 170.131 38.6022C169.674 39.1774 169.088 39.6371 168.421 39.9438C167.753 40.2506 167.023 40.3957 166.289 40.3677C164.402 40.3677 163.064 39.6177 162.285 38.1118H162.25V44.3257H159.365V27.467H162.204V29.6133H162.262C162.62 28.9095 163.181 28.3288 163.871 27.9458C164.609 27.5318 165.443 27.319 166.289 27.3286C167.022 27.3053 167.75 27.452 168.417 27.7573C169.083 28.0626 169.67 28.5181 170.131 29.0882ZM167.714 36.8426C168.286 35.9508 168.59 34.9134 168.59 33.8538C168.59 32.7942 168.286 31.757 167.714 30.8652C167.44 30.514 167.09 30.2299 166.69 30.0345C166.29 29.839 165.851 29.7375 165.406 29.7375C164.961 29.7375 164.522 29.839 164.122 30.0345C163.722 30.2299 163.372 30.514 163.098 30.8652C162.526 31.7527 162.221 32.7863 162.221 33.8423C162.221 34.8983 162.526 35.932 163.098 36.8195C163.374 37.1677 163.724 37.449 164.124 37.6425C164.524 37.836 164.962 37.9365 165.406 37.9365C165.85 37.9365 166.288 37.836 166.688 37.6425C167.088 37.449 167.438 37.1677 167.714 36.8195V36.8426Z" fill="#F9F9F9"/>
<path d="M181.336 35.4867C181.383 35.8689 181.516 36.2354 181.725 36.5591C181.934 36.8827 182.213 37.1552 182.541 37.3561C183.315 37.8451 184.218 38.0884 185.132 38.0541C186.011 38.0914 186.879 37.8556 187.619 37.3792C187.912 37.1958 188.154 36.9407 188.322 36.6378C188.489 36.335 188.577 35.9944 188.576 35.6483C188.583 35.365 188.523 35.084 188.401 34.8284C188.278 34.5727 188.097 34.3495 187.873 34.177C187.181 33.6992 186.393 33.3783 185.565 33.2367L183.384 32.7231C180.334 32.0192 178.807 30.4806 178.803 28.1074C178.788 27.4059 178.941 26.7109 179.248 26.0799C179.555 25.4489 180.007 24.9 180.568 24.4784C181.868 23.5151 183.459 23.0283 185.074 23.0995C186.684 23.0236 188.269 23.5111 189.557 24.4784C190.099 24.907 190.537 25.4535 190.837 26.0763C191.137 26.699 191.291 27.3816 191.288 28.0728H188.403C188.379 27.7075 188.274 27.3521 188.097 27.032C187.919 26.7118 187.673 26.4349 187.376 26.2208C186.683 25.7482 185.855 25.5134 185.017 25.5516C184.198 25.5142 183.389 25.7406 182.709 26.1977C182.433 26.3841 182.209 26.6365 182.056 26.9317C181.903 27.2269 181.826 27.5557 181.832 27.8883C181.828 28.1553 181.888 28.4192 182.009 28.6575C182.13 28.8957 182.306 29.101 182.524 29.2556C183.2 29.6973 183.957 30.0012 184.751 30.1499L186.69 30.5941C188.421 30.9865 189.632 31.5519 190.405 32.325C190.795 32.7178 191.099 33.1874 191.298 33.7039C191.496 34.2204 191.585 34.7724 191.559 35.3252C191.585 36.0566 191.435 36.7836 191.121 37.4451C190.808 38.1066 190.341 38.6835 189.759 39.1273C188.571 40.062 186.957 40.5293 184.919 40.5293C183.251 40.6152 181.602 40.1421 180.234 39.185C179.66 38.7586 179.192 38.2047 178.869 37.5669C178.546 36.9291 178.375 36.2249 178.37 35.5098L181.336 35.4867Z" fill="#F9F9F9"/>
<path d="M197.352 24.6172V27.4675H199.752V29.7233H197.334V36.4448C197.304 36.6547 197.322 36.8689 197.389 37.0703C197.455 37.2718 197.568 37.455 197.717 37.6056C197.866 37.7562 198.049 37.87 198.25 37.9379C198.451 38.0058 198.665 38.026 198.875 37.9969C199.164 37.9963 199.453 37.977 199.74 37.9392V40.1663C199.236 40.2604 198.724 40.301 198.211 40.2874C196.856 40.2874 195.904 40.0219 195.327 39.4911C194.75 38.9603 194.455 38.0719 194.455 36.843V29.7233H192.725V27.4675H194.455V24.6172H197.352Z" fill="#F9F9F9"/>
<path d="M202.712 38.6487C201.612 37.4948 201.06 35.8927 201.056 33.8426C200.963 32.0896 201.562 30.3704 202.723 29.054C203.94 27.9233 205.54 27.2949 207.201 27.2949C208.861 27.2949 210.461 27.9233 211.678 29.054C212.842 30.3688 213.441 32.0892 213.345 33.8426C213.345 35.8735 212.797 37.4775 211.689 38.6487C210.47 39.7834 208.866 40.4142 207.201 40.4142C205.535 40.4142 203.931 39.7834 202.712 38.6487ZM209.56 36.9698C210.112 36.0241 210.402 34.9489 210.402 33.8541C210.402 32.7594 210.112 31.6843 209.56 30.7386C209.279 30.3874 208.923 30.1038 208.517 29.909C208.112 29.7141 207.668 29.613 207.218 29.613C206.768 29.613 206.324 29.7141 205.918 29.909C205.513 30.1038 205.156 30.3874 204.875 30.7386C204.32 31.6829 204.027 32.7585 204.027 33.8541C204.027 34.9497 204.32 36.0255 204.875 36.9698C205.14 37.3297 205.489 37.6196 205.891 37.8146C206.293 38.0097 206.737 38.1039 207.183 38.089C207.641 38.1118 208.097 38.0217 208.512 37.8265C208.926 37.6313 209.286 37.3371 209.56 36.9698Z" fill="#F9F9F9"/>
<path d="M215.284 27.4677H218.076V29.6831H218.134C218.302 28.997 218.697 28.3874 219.253 27.9522C219.812 27.5345 220.495 27.3172 221.192 27.335C221.492 27.3282 221.792 27.3671 222.08 27.4504V30.0985C221.711 29.9647 221.319 29.9059 220.926 29.9255C220.555 29.9053 220.184 29.9647 219.837 30.1001C219.491 30.2354 219.178 30.4434 218.919 30.7101C218.407 31.2953 218.146 32.0576 218.192 32.8333V40.2357H215.307L215.284 27.4677Z" fill="#F9F9F9"/>
<path d="M234.369 36.433C234.283 37.0148 234.075 37.572 233.76 38.0688C233.445 38.5656 233.03 38.9911 232.54 39.3178C231.428 40.0796 230.103 40.4675 228.756 40.4255C227.93 40.4703 227.105 40.3391 226.334 40.0407C225.563 39.7423 224.864 39.2835 224.284 38.6946C223.192 37.5407 222.648 35.9541 222.651 33.9348C222.561 32.1812 223.146 30.4596 224.284 29.1229C224.838 28.5242 225.516 28.0536 226.27 27.7437C227.024 27.4338 227.837 27.2922 228.652 27.3286C229.443 27.2906 230.233 27.4229 230.968 27.7166C231.704 28.0102 232.368 28.4583 232.915 29.0306C234.018 30.3072 234.583 31.9618 234.491 33.6463V34.604H225.582V34.7829C225.561 35.2345 225.63 35.6859 225.784 36.1107C225.939 36.5356 226.176 36.9256 226.482 37.258C226.786 37.5722 227.153 37.8184 227.559 37.9805C227.964 38.1426 228.4 38.2168 228.836 38.1984C229.472 38.2158 230.1 38.054 230.648 37.7312C231.131 37.4584 231.494 37.0133 231.663 36.4849L234.369 36.433ZM226.528 30.3979C225.948 30.9924 225.61 31.7828 225.582 32.6135H231.629C231.638 31.7908 231.328 30.9966 230.763 30.3979C230.49 30.1182 230.16 29.8987 229.797 29.7537C229.433 29.6086 229.043 29.5411 228.652 29.5556C228.263 29.5472 227.876 29.6175 227.516 29.7622C227.155 29.907 226.827 30.1232 226.552 30.3979H226.528Z" fill="#F9F9F9"/>
<path d="M133.108 7.11914H129.594V16.9274H133.108C133.737 16.9641 134.366 16.8673 134.955 16.6436C135.543 16.4198 136.078 16.0742 136.523 15.6292C137.389 14.6277 137.828 13.3271 137.747 12.0059C137.831 10.6914 137.391 9.39707 136.523 8.40574C136.076 7.96373 135.541 7.62068 134.953 7.39902C134.364 7.17736 133.736 7.08205 133.108 7.11914ZM135.364 14.6829C135.054 15.0012 134.679 15.2487 134.265 15.4081C133.851 15.5675 133.407 15.635 132.964 15.6061H131.094V8.42884H132.941C133.384 8.40071 133.828 8.46918 134.243 8.62956C134.657 8.78994 135.032 9.03832 135.341 9.35766C135.885 10.1388 136.177 11.0681 136.177 12.0203C136.177 12.9725 135.885 13.9018 135.341 14.6829H135.364Z" fill="#F9F9F9"/>
<path d="M142.206 9.44915C141.733 9.42705 141.261 9.50728 140.822 9.68452C140.383 9.86177 139.987 10.1317 139.662 10.476C139.047 11.2639 138.713 12.2345 138.713 13.2339C138.713 14.2332 139.047 15.2039 139.662 15.9917C139.989 16.3348 140.386 16.6036 140.826 16.7798C141.266 16.956 141.739 17.0355 142.212 17.013C142.684 17.0361 143.155 16.9568 143.593 16.7805C144.032 16.6043 144.426 16.3351 144.751 15.9917C145.364 15.2022 145.697 14.2309 145.697 13.2311C145.697 12.2312 145.364 11.2599 144.751 10.4704C144.425 10.1271 144.029 9.85809 143.59 9.68185C143.151 9.50561 142.679 9.42631 142.206 9.44915ZM143.672 15.1148C143.501 15.3378 143.278 15.5159 143.023 15.6335C142.767 15.7512 142.487 15.8048 142.206 15.7899C141.925 15.8019 141.645 15.747 141.389 15.6296C141.134 15.5122 140.909 15.3357 140.735 15.1148C140.391 14.5476 140.21 13.8971 140.21 13.2339C140.21 12.5707 140.391 11.9202 140.735 11.353C140.908 11.1302 141.132 10.9522 141.388 10.8338C141.644 10.7153 141.925 10.6599 142.206 10.6722C142.488 10.6579 142.768 10.7125 143.023 10.8311C143.279 10.9497 143.501 11.1289 143.672 11.353C144.016 11.9202 144.197 12.5707 144.197 13.2339C144.197 13.8971 144.016 14.5476 143.672 15.1148Z" fill="#F9F9F9"/>
<path d="M153.711 15.3856H153.682L152.113 9.54688H150.699L149.136 15.3856H149.112L147.739 9.54688H146.268L148.31 16.9262H149.822L151.38 11.3642H151.415L152.984 16.9262H154.507L156.538 9.54688H155.084L153.711 15.3856Z" fill="#F9F9F9"/>
<path d="M161.304 9.46147C160.817 9.42144 160.33 9.52596 159.903 9.76207C159.476 9.99817 159.128 10.3552 158.904 10.7884H158.875V9.54796H157.467V16.9273H158.944V12.6635C158.921 12.1456 159.103 11.6395 159.452 11.2557C159.626 11.0792 159.835 10.9412 160.065 10.8508C160.296 10.7603 160.543 10.7195 160.79 10.7307C161.017 10.7153 161.244 10.7474 161.458 10.8248C161.672 10.9023 161.867 11.0236 162.031 11.1808C162.335 11.54 162.488 12.0033 162.458 12.4732V16.9273H163.929V12.1962C163.971 11.461 163.72 10.739 163.231 10.1883C162.977 9.94067 162.675 9.74829 162.343 9.62318C162.012 9.49807 161.658 9.44306 161.304 9.46147Z" fill="#F9F9F9"/>
<path d="M166.947 6.67969H165.469V16.9264H166.947V6.67969Z" fill="#F9F9F9"/>
<path d="M171.672 9.44915C171.198 9.42705 170.726 9.50728 170.287 9.68452C169.848 9.86177 169.452 10.1317 169.127 10.476C168.515 11.2651 168.183 12.2353 168.183 13.2339C168.183 14.2324 168.515 15.2027 169.127 15.9917C169.454 16.3348 169.851 16.6036 170.291 16.7798C170.731 16.956 171.204 17.0355 171.677 17.013C172.149 17.0361 172.62 16.9568 173.058 16.7805C173.497 16.6043 173.892 16.3351 174.216 15.9917C174.829 15.2022 175.162 14.2309 175.162 13.2311C175.162 12.2312 174.829 11.2599 174.216 10.4704C173.89 10.1271 173.494 9.85809 173.055 9.68185C172.616 9.50561 172.144 9.42631 171.672 9.44915ZM173.137 15.1148C172.956 15.3266 172.731 15.4967 172.478 15.6134C172.225 15.73 171.95 15.7905 171.672 15.7905C171.393 15.7905 171.118 15.73 170.865 15.6134C170.612 15.4967 170.387 15.3266 170.206 15.1148C169.859 14.5487 169.676 13.8977 169.676 13.2339C169.676 12.57 169.859 11.9191 170.206 11.353C170.386 11.1394 170.61 10.9677 170.863 10.8498C171.116 10.732 171.392 10.6711 171.672 10.6711C171.951 10.6711 172.227 10.732 172.48 10.8498C172.733 10.9677 172.957 11.1394 173.137 11.353C173.481 11.9202 173.662 12.5707 173.662 13.2339C173.662 13.8971 173.481 14.5476 173.137 15.1148Z" fill="#F9F9F9"/>
<path d="M181.468 10.1073C180.846 9.68233 180.11 9.45508 179.357 9.45508C178.603 9.45508 177.867 9.68233 177.245 10.1073C176.986 10.293 176.773 10.5358 176.623 10.8169C176.473 11.098 176.39 11.41 176.38 11.7285H177.758C177.818 11.4164 177.998 11.1404 178.26 10.9611C178.589 10.7674 178.965 10.6697 179.347 10.6789C179.728 10.688 180.099 10.8038 180.418 11.0131C180.555 11.133 180.663 11.2827 180.733 11.4508C180.803 11.6188 180.834 11.8007 180.822 11.9824V12.5593L178.832 12.6747C178.088 12.6779 177.361 12.9007 176.743 13.3152C176.508 13.4885 176.318 13.7169 176.191 13.9804C176.065 14.244 176.004 14.5345 176.016 14.8267C176.005 15.127 176.062 15.4259 176.182 15.7014C176.302 15.977 176.482 16.2222 176.708 16.4191C177.218 16.8254 177.858 17.0307 178.509 16.9961C178.995 17.0003 179.475 16.8771 179.899 16.6384C180.302 16.4247 180.631 16.0924 180.839 15.6864H180.874V16.9211H182.282V11.8554C182.292 11.5208 182.224 11.1883 182.082 10.8848C181.941 10.5812 181.731 10.315 181.468 10.1073ZM180.822 14.1459C180.824 14.3776 180.774 14.6068 180.674 14.8159C180.574 15.0249 180.427 15.2082 180.245 15.3518C179.86 15.6694 179.371 15.8355 178.872 15.8191C178.509 15.8371 178.151 15.7358 177.851 15.5306C177.73 15.4472 177.633 15.3348 177.567 15.2036C177.502 15.0725 177.47 14.9271 177.476 14.7807C177.476 14.1172 177.983 13.7536 179.005 13.6901L180.793 13.569L180.822 14.1459Z" fill="#F9F9F9"/>
<path d="M188.882 10.7702H188.848C188.633 10.3508 188.3 10.0041 187.889 9.77322C187.479 9.54231 187.009 9.43748 186.54 9.47206C186.113 9.45915 185.69 9.54458 185.301 9.72166C184.913 9.89875 184.571 10.1627 184.301 10.4933C183.741 11.2965 183.441 12.252 183.441 13.231C183.441 14.21 183.741 15.1654 184.301 15.9686C184.571 16.3025 184.915 16.5695 185.305 16.7487C185.696 16.9278 186.122 17.0143 186.551 17.0014C187.032 17.037 187.512 16.9302 187.931 16.6942C188.351 16.4581 188.692 16.1032 188.911 15.6743V16.9264H190.342V6.67969H188.871L188.882 10.7702ZM188.346 15.0571C188.174 15.2755 187.955 15.4519 187.705 15.5733C187.455 15.6947 187.181 15.7579 186.903 15.7579C186.625 15.7579 186.351 15.6947 186.101 15.5733C185.852 15.4519 185.632 15.2755 185.461 15.0571C185.107 14.5126 184.919 13.8773 184.919 13.2281C184.919 12.5788 185.107 11.9436 185.461 11.3991C185.632 11.1808 185.852 11.0042 186.101 10.8828C186.351 10.7614 186.625 10.6984 186.903 10.6984C187.181 10.6984 187.455 10.7614 187.705 10.8828C187.955 11.0042 188.174 11.1808 188.346 11.3991C188.703 11.94 188.894 12.5739 188.894 13.2223C188.894 13.8706 188.703 14.5047 188.346 15.0455V15.0571Z" fill="#F9F9F9"/>
<path d="M198.281 9.44929C197.809 9.42726 197.337 9.50754 196.899 9.68481C196.461 9.86208 196.066 10.132 195.742 10.4761C195.127 11.264 194.793 12.2347 194.793 13.234C194.793 14.2333 195.127 15.204 195.742 15.9919C196.427 16.6471 197.339 17.0128 198.287 17.0128C199.234 17.0128 200.146 16.6471 200.831 15.9919C201.444 15.2023 201.777 14.231 201.777 13.2312C201.777 12.2314 201.444 11.2601 200.831 10.4705C200.504 10.1268 200.107 9.85767 199.667 9.68143C199.227 9.50518 198.754 9.426 198.281 9.44929ZM199.752 15.1149C199.571 15.3269 199.345 15.4971 199.092 15.6138C198.838 15.7305 198.563 15.7909 198.284 15.7909C198.005 15.7909 197.729 15.7305 197.475 15.6138C197.222 15.4971 196.997 15.3269 196.815 15.1149C196.468 14.5488 196.285 13.8979 196.285 13.234C196.285 12.5701 196.468 11.9192 196.815 11.3531C196.996 11.1394 197.22 10.9677 197.474 10.8498C197.728 10.732 198.004 10.671 198.284 10.671C198.563 10.671 198.84 10.732 199.093 10.8498C199.347 10.9677 199.572 11.1394 199.752 11.3531C200.092 11.9216 200.272 12.5716 200.272 13.234C200.272 13.8964 200.092 14.5464 199.752 15.1149Z" fill="#F9F9F9"/>
<path d="M206.785 9.46147C206.299 9.42144 205.811 9.52596 205.384 9.76207C204.957 9.99817 204.61 10.3552 204.385 10.7884V9.54796H202.977V16.9273H204.454V12.6635C204.433 12.1459 204.615 11.6408 204.962 11.2557C205.136 11.0792 205.345 10.9412 205.575 10.8508C205.806 10.7603 206.053 10.7195 206.3 10.7307C206.527 10.7153 206.754 10.7474 206.968 10.8248C207.182 10.9023 207.377 11.0236 207.541 11.1808C207.845 11.54 207.998 12.0033 207.968 12.4732V16.9273H209.445V12.1962C209.484 11.4603 209.231 10.7385 208.741 10.1883C208.484 9.93637 208.177 9.7414 207.84 9.61614C207.503 9.49087 207.144 9.43826 206.785 9.46147Z" fill="#F9F9F9"/>
<path d="M216.005 7.88477H214.539V9.54647H213.518V10.7004H214.539V14.9756C214.513 15.2486 214.54 15.5243 214.62 15.7866C214.701 16.049 214.832 16.2931 215.007 16.5046C215.453 16.8555 216.017 17.0207 216.582 16.966C216.861 16.9742 217.14 16.9491 217.413 16.8911V15.7372C217.246 15.7586 217.078 15.7683 216.911 15.7661C216.785 15.782 216.658 15.7684 216.539 15.7266C216.42 15.6848 216.312 15.6159 216.224 15.5252C216.136 15.4345 216.071 15.3246 216.032 15.2042C215.994 15.0838 215.985 14.9561 216.005 14.8313V10.7062H217.418V9.55225H216.005V7.88477Z" fill="#F9F9F9"/>
<path d="M222.617 9.46065C222.13 9.41908 221.642 9.523 221.215 9.75927C220.788 9.99554 220.44 10.3534 220.217 10.7875H220.182V6.67969H218.722V16.9264H220.199V12.6973C220.187 12.4362 220.228 12.1755 220.319 11.9306C220.41 11.6857 220.55 11.4617 220.73 11.2722C220.909 11.0901 221.124 10.9476 221.362 10.8542C221.599 10.7607 221.854 10.7184 222.109 10.7299C222.341 10.7186 222.573 10.7542 222.791 10.8344C223.009 10.9147 223.209 11.038 223.378 11.1972C223.538 11.3719 223.661 11.5768 223.74 11.7997C223.819 12.0227 223.853 12.2591 223.84 12.4953V16.9264H225.311V12.2068C225.328 11.8415 225.272 11.4766 225.145 11.1336C225.018 10.7907 224.824 10.4767 224.573 10.2106C224.315 9.95829 224.009 9.76152 223.673 9.6325C223.336 9.50348 222.977 9.44507 222.617 9.46065Z" fill="#F9F9F9"/>
<path d="M233.163 13.6086V13.0893C233.217 12.1236 232.899 11.174 232.275 10.4354C231.969 10.105 231.595 9.84557 231.178 9.67514C230.762 9.50471 230.313 9.42745 229.863 9.44878C229.399 9.42886 228.936 9.51155 228.507 9.69106C228.078 9.87056 227.694 10.1423 227.382 10.4872C226.731 11.2608 226.397 12.2524 226.448 13.2624C226.393 14.2607 226.728 15.2413 227.382 15.9971C227.707 16.3395 228.102 16.6076 228.541 16.7829C228.979 16.9581 229.45 17.0365 229.921 17.0126C230.679 17.0345 231.424 16.8164 232.05 16.3894C232.326 16.2046 232.561 15.9647 232.74 15.6847C232.918 15.4047 233.037 15.0907 233.088 14.7625H231.681C231.579 15.0872 231.359 15.3613 231.063 15.5298C230.727 15.7283 230.341 15.8282 229.95 15.8183C229.679 15.8317 229.409 15.7873 229.158 15.6878C228.906 15.5883 228.678 15.436 228.49 15.2413C228.297 15.0369 228.146 14.7959 228.047 14.5324C227.948 14.2688 227.902 13.988 227.913 13.7066V13.6202L233.163 13.6086ZM228.548 11.1796C228.719 11.0063 228.924 10.8702 229.151 10.7799C229.377 10.6896 229.62 10.6468 229.863 10.6545C230.106 10.6444 230.348 10.6855 230.573 10.775C230.799 10.8644 231.003 11.0003 231.173 11.1739C231.518 11.5541 231.706 12.051 231.698 12.5643H227.959C227.975 12.0476 228.181 11.5547 228.536 11.1796H228.548Z" fill="#F9F9F9"/>
<rect x="128" y="3" width="116" height="20" fill="black"/>
<path d="M131.436 18H129.614L129.626 16.834H131.436C131.964 16.834 132.405 16.7188 132.761 16.4883C133.12 16.2578 133.389 15.9277 133.569 15.498C133.753 15.0684 133.845 14.5566 133.845 13.9629V13.5C133.845 13.0391 133.792 12.6309 133.686 12.2754C133.585 11.9199 133.432 11.6211 133.229 11.3789C133.03 11.1367 132.784 10.9531 132.491 10.8281C132.202 10.7031 131.868 10.6406 131.489 10.6406H129.579V9.46875H131.489C132.055 9.46875 132.573 9.56445 133.042 9.75586C133.511 9.94336 133.915 10.2148 134.255 10.5703C134.598 10.9258 134.862 11.3516 135.046 11.8477C135.229 12.3438 135.321 12.8984 135.321 13.5117V13.9629C135.321 14.5762 135.229 15.1309 135.046 15.627C134.862 16.123 134.598 16.5488 134.255 16.9043C133.911 17.2559 133.501 17.5273 133.024 17.7188C132.552 17.9062 132.022 18 131.436 18ZM130.429 9.46875V18H128.958V9.46875H130.429ZM141.782 16.834V18H137.252V16.834H141.782ZM137.668 9.46875V18H136.198V9.46875H137.668ZM141.19 13.0312V14.1797H137.252V13.0312H141.19ZM141.752 9.46875V10.6406H137.252V9.46875H141.752ZM146.871 15.8027C146.871 15.627 146.844 15.4707 146.789 15.334C146.738 15.1973 146.646 15.0723 146.514 14.959C146.381 14.8457 146.193 14.7363 145.951 14.6309C145.713 14.5215 145.408 14.4102 145.037 14.2969C144.631 14.1719 144.256 14.0332 143.912 13.8809C143.572 13.7246 143.275 13.5449 143.021 13.3418C142.768 13.1348 142.57 12.8984 142.43 12.6328C142.289 12.3633 142.219 12.0527 142.219 11.7012C142.219 11.3535 142.291 11.0371 142.436 10.752C142.584 10.4668 142.793 10.2207 143.063 10.0137C143.336 9.80273 143.658 9.64062 144.029 9.52734C144.4 9.41016 144.811 9.35156 145.26 9.35156C145.893 9.35156 146.438 9.46875 146.895 9.70312C147.355 9.9375 147.709 10.252 147.955 10.6465C148.205 11.041 148.33 11.4766 148.33 11.9531H146.871C146.871 11.6719 146.811 11.4238 146.689 11.209C146.572 10.9902 146.393 10.8184 146.15 10.6934C145.912 10.5684 145.609 10.5059 145.242 10.5059C144.895 10.5059 144.605 10.5586 144.375 10.6641C144.145 10.7695 143.973 10.9121 143.859 11.0918C143.746 11.2715 143.689 11.4746 143.689 11.7012C143.689 11.8613 143.727 12.0078 143.801 12.1406C143.875 12.2695 143.988 12.3906 144.141 12.5039C144.293 12.6133 144.484 12.7168 144.715 12.8145C144.945 12.9121 145.217 13.0059 145.529 13.0957C146.002 13.2363 146.414 13.3926 146.766 13.5645C147.117 13.7324 147.41 13.9238 147.645 14.1387C147.879 14.3535 148.055 14.5977 148.172 14.8711C148.289 15.1406 148.348 15.4473 148.348 15.791C148.348 16.1504 148.275 16.4746 148.131 16.7637C147.986 17.0488 147.779 17.293 147.51 17.4961C147.244 17.6953 146.924 17.8496 146.549 17.959C146.178 18.0645 145.764 18.1172 145.307 18.1172C144.896 18.1172 144.492 18.0625 144.094 17.9531C143.699 17.8438 143.34 17.6777 143.016 17.4551C142.691 17.2285 142.434 16.9473 142.242 16.6113C142.051 16.2715 141.955 15.875 141.955 15.4219H143.426C143.426 15.6992 143.473 15.9355 143.566 16.1309C143.664 16.3262 143.799 16.4863 143.971 16.6113C144.143 16.7324 144.342 16.8223 144.568 16.8809C144.799 16.9395 145.045 16.9688 145.307 16.9688C145.65 16.9688 145.938 16.9199 146.168 16.8223C146.402 16.7246 146.578 16.5879 146.695 16.4121C146.813 16.2363 146.871 16.0332 146.871 15.8027ZM154.088 15.2227H155.552C155.505 15.7812 155.349 16.2793 155.084 16.7168C154.818 17.1504 154.445 17.4922 153.964 17.7422C153.484 17.9922 152.9 18.1172 152.213 18.1172C151.685 18.1172 151.211 18.0234 150.789 17.8359C150.367 17.6445 150.005 17.375 149.705 17.0273C149.404 16.6758 149.173 16.252 149.013 15.7559C148.857 15.2598 148.779 14.7051 148.779 14.0918V13.3828C148.779 12.7695 148.859 12.2148 149.019 11.7188C149.183 11.2227 149.418 10.7988 149.722 10.4473C150.027 10.0918 150.392 9.82031 150.818 9.63281C151.248 9.44531 151.73 9.35156 152.265 9.35156C152.945 9.35156 153.519 9.47656 153.988 9.72656C154.457 9.97656 154.82 10.3223 155.078 10.7637C155.339 11.2051 155.5 11.7109 155.558 12.2812H154.093C154.054 11.9141 153.968 11.5996 153.836 11.3379C153.707 11.0762 153.515 10.877 153.261 10.7402C153.007 10.5996 152.675 10.5293 152.265 10.5293C151.929 10.5293 151.636 10.5918 151.386 10.7168C151.136 10.8418 150.927 11.0254 150.759 11.2676C150.591 11.5098 150.464 11.8086 150.379 12.1641C150.296 12.5156 150.255 12.918 150.255 13.3711V14.0918C150.255 14.5215 150.293 14.9121 150.367 15.2637C150.445 15.6113 150.562 15.9102 150.718 16.1602C150.879 16.4102 151.082 16.6035 151.328 16.7402C151.574 16.877 151.869 16.9453 152.213 16.9453C152.63 16.9453 152.968 16.8789 153.226 16.7461C153.488 16.6133 153.685 16.4199 153.818 16.166C153.955 15.9082 154.045 15.5938 154.088 15.2227ZM159.611 10.6055L157.062 18H155.521L158.732 9.46875H159.716L159.611 10.6055ZM161.743 18L159.189 10.6055L159.077 9.46875H160.068L163.29 18H161.743ZM161.62 14.8359V16.002H156.98V14.8359H161.62ZM163.645 9.46875H166.663C167.311 9.46875 167.864 9.56641 168.321 9.76172C168.778 9.95703 169.128 10.2461 169.37 10.6289C169.616 11.0078 169.739 11.4766 169.739 12.0352C169.739 12.4609 169.661 12.8359 169.505 13.1602C169.348 13.4844 169.128 13.7578 168.843 13.9805C168.557 14.1992 168.218 14.3691 167.823 14.4902L167.378 14.707H164.665L164.653 13.541H166.686C167.038 13.541 167.331 13.4785 167.565 13.3535C167.8 13.2285 167.975 13.0586 168.093 12.8438C168.214 12.625 168.274 12.3789 168.274 12.1055C168.274 11.8086 168.216 11.5508 168.098 11.332C167.985 11.1094 167.809 10.9395 167.571 10.8223C167.333 10.7012 167.03 10.6406 166.663 10.6406H165.116V18H163.645V9.46875ZM168.514 18L166.511 14.168L168.052 14.1621L170.085 17.9238V18H168.514ZM177.155 13.6406V16.8984C177.034 17.0586 176.844 17.2344 176.586 17.4258C176.332 17.6133 175.995 17.7754 175.573 17.9121C175.151 18.0488 174.625 18.1172 173.996 18.1172C173.461 18.1172 172.971 18.0273 172.526 17.8477C172.08 17.6641 171.696 17.3965 171.371 17.0449C171.051 16.6934 170.803 16.2656 170.627 15.7617C170.452 15.2539 170.364 14.6758 170.364 14.0273V13.4355C170.364 12.791 170.444 12.2168 170.604 11.7129C170.768 11.2051 171.002 10.7754 171.307 10.4238C171.612 10.0723 171.979 9.80664 172.409 9.62695C172.842 9.44336 173.332 9.35156 173.879 9.35156C174.579 9.35156 175.157 9.46875 175.614 9.70312C176.075 9.93359 176.43 10.2539 176.68 10.6641C176.93 11.0742 177.088 11.543 177.155 12.0703H175.713C175.666 11.7734 175.575 11.5078 175.438 11.2734C175.305 11.0391 175.114 10.8555 174.864 10.7227C174.618 10.5859 174.297 10.5176 173.903 10.5176C173.563 10.5176 173.264 10.582 173.006 10.7109C172.748 10.8398 172.534 11.0293 172.362 11.2793C172.194 11.5293 172.067 11.834 171.981 12.1934C171.895 12.5527 171.852 12.9629 171.852 13.4238V14.0273C171.852 14.4961 171.901 14.9121 171.998 15.2754C172.1 15.6387 172.245 15.9453 172.432 16.1953C172.623 16.4453 172.856 16.6348 173.129 16.7637C173.403 16.8887 173.711 16.9512 174.055 16.9512C174.391 16.9512 174.666 16.9238 174.881 16.8691C175.096 16.8105 175.266 16.7422 175.391 16.6641C175.52 16.582 175.62 16.5039 175.69 16.4297V14.7363H173.914V13.6406H177.155ZM181.506 10.6055L178.957 18H177.416L180.627 9.46875H181.611L181.506 10.6055ZM183.639 18L181.084 10.6055L180.973 9.46875H181.963L185.186 18H183.639ZM183.516 14.8359V16.002H178.875V14.8359H183.516ZM190.884 16.834V18H186.601V16.834H190.884ZM187.011 9.46875V18H185.541V9.46875H187.011ZM194.861 10.6055L192.312 18H190.771L193.982 9.46875H194.966L194.861 10.6055ZM196.993 18L194.439 10.6055L194.327 9.46875H195.318L198.54 18H196.993ZM196.87 14.8359V16.002H192.23V14.8359H196.87ZM209.256 16.834V18H204.727V16.834H209.256ZM205.143 9.46875V18H203.672V9.46875H205.143ZM208.664 13.0312V14.1797H204.727V13.0312H208.664ZM209.227 9.46875V10.6406H204.727V9.46875H209.227ZM216.625 9.46875V18H215.154L211.328 11.8887V18H209.857V9.46875H211.328L215.166 15.5918V9.46875H216.625Z" fill="white"/>
</svg>
