<svg width="323" height="51" viewBox="0 0 323 51" fill="none" xmlns="http://www.w3.org/2000/svg">
<rect width="323" height="51" rx="8" fill="black"/>
<path d="M240.843 0.0078125H82.1571C76.8676 0.0078125 72.5796 4.29571 72.5796 9.5852V41.416C72.5796 46.7054 76.8676 50.9933 82.1571 50.9933H240.843C246.133 50.9933 250.42 46.7054 250.42 41.416V9.5852C250.42 4.29571 246.133 0.0078125 240.843 0.0078125Z" fill="black"/>
<path d="M106.949 34.7818L91.0537 43.9091C90.5068 44.2249 89.8976 44.4176 89.2687 44.4739C88.6397 44.5301 88.0061 44.4486 87.4118 44.235C86.8176 44.0213 86.277 43.6807 85.8279 43.2368C85.3787 42.793 85.0317 42.2565 84.811 41.6649L99.3099 27.166L106.949 34.7818Z" fill="#F9F9F9"/>
<path d="M98.1907 25.5085L83.6918 40.0074C83.5184 39.5243 83.4305 39.0148 83.4322 38.5016V12.5386C83.4314 12.015 83.5232 11.4955 83.7033 11.0039L98.1907 25.5085Z" fill="#F9F9F9"/>
<path d="M106.943 16.5488L99.3215 24.1646L84.811 9.67154C85.0342 9.0854 85.3817 8.55457 85.8295 8.11547C86.2773 7.67637 86.815 7.33938 87.4054 7.12777C87.9958 6.91617 88.625 6.83492 89.2498 6.88958C89.8746 6.94425 90.4802 7.1335 91.0249 7.44442L106.943 16.5488Z" fill="#F9F9F9"/>
<path d="M115.003 29.5084L108.27 33.374L100.643 25.7466L108.258 18.1309L115.003 21.9907C115.665 22.3701 116.215 22.9176 116.597 23.5776C116.979 24.2376 117.181 24.9868 117.181 25.7496C117.181 26.5124 116.979 27.2616 116.597 27.9216C116.215 28.5817 115.665 29.129 115.003 29.5084Z" fill="#F9F9F9"/>
<path d="M135.399 31.7861H139.564C139.503 32.3756 139.325 32.9471 139.041 33.4671C138.757 33.9872 138.372 34.4454 137.909 34.8151C136.983 35.6269 135.793 36.0723 134.562 36.0672C133.053 36.0372 131.611 35.4397 130.523 34.394C129.872 33.8184 129.355 33.1066 129.009 32.309C128.663 31.5113 128.496 30.6474 128.521 29.7783C128.497 28.9449 128.645 28.1154 128.954 27.3413C129.264 26.5672 129.729 25.865 130.322 25.2782C130.895 24.6826 131.586 24.2124 132.351 23.8976C133.116 23.5828 133.937 23.4301 134.764 23.4491C136.737 23.4491 138.407 24.3607 139.772 26.1839L141.572 24.453C140.686 23.3897 139.603 22.5081 138.382 21.8567C137.237 21.3218 135.987 21.048 134.724 21.0548C133.006 21.0502 131.325 21.5539 129.893 22.5023C128.461 23.4507 127.342 24.8015 126.675 26.3848C126.009 27.968 125.826 29.7129 126.15 31.3999C126.473 33.0868 127.288 34.6405 128.493 35.8652C129.264 36.6788 130.195 37.3239 131.228 37.7598C132.26 38.1957 133.372 38.4131 134.493 38.3981C135.612 38.4268 136.723 38.2065 137.747 37.7536C138.771 37.3006 139.681 36.6262 140.412 35.7787C141.068 35.0524 141.565 34.1976 141.872 33.2689C142.183 32.1872 142.333 31.0654 142.316 29.9399V29.3629H135.393L135.399 31.7861Z" fill="#F9F9F9"/>
<path d="M149.298 27.2863C148.561 27.271 147.828 27.4047 147.144 27.6793C146.46 27.954 145.838 28.3639 145.317 28.8845C144.79 29.3833 144.373 29.986 144.092 30.6544C143.811 31.3228 143.672 32.0424 143.684 32.7674C143.661 33.5145 143.791 34.2583 144.067 34.953C144.343 35.6477 144.758 36.2784 145.288 36.8061C145.802 37.335 146.42 37.7519 147.103 38.0309C147.786 38.3098 148.52 38.4448 149.257 38.4272C150.002 38.445 150.743 38.3138 151.437 38.0413C152.13 37.7688 152.762 37.3606 153.296 36.8406C154.338 35.7837 154.923 34.3587 154.923 32.874C154.923 31.3894 154.338 29.9644 153.296 28.9075C152.773 28.3819 152.149 27.9674 151.462 27.6888C150.775 27.4102 150.039 27.2734 149.298 27.2863ZM151.605 35.3233C150.993 35.9152 150.175 36.2461 149.324 36.2461C148.472 36.2461 147.654 35.9152 147.042 35.3233C146.448 34.6308 146.144 33.7359 146.194 32.825C146.157 31.9426 146.468 31.0809 147.059 30.4249C147.664 29.826 148.481 29.4899 149.332 29.4899C150.184 29.4899 151 29.826 151.605 30.4249C152.158 31.1239 152.459 31.9888 152.459 32.8798C152.459 33.7709 152.158 34.6359 151.605 35.3348V35.3233Z" fill="#F9F9F9"/>
<path d="M161.921 27.2863C161.184 27.271 160.452 27.4047 159.768 27.6793C159.083 27.954 158.462 28.3639 157.94 28.8845C157.415 29.3842 156.999 29.987 156.718 30.6552C156.437 31.3235 156.297 32.0426 156.307 32.7674C156.284 33.5145 156.415 34.2583 156.691 34.953C156.966 35.6477 157.382 36.2784 157.911 36.8061C158.426 37.335 159.044 37.7519 159.727 38.0309C160.41 38.3098 161.143 38.4448 161.881 38.4272C162.626 38.445 163.367 38.3138 164.06 38.0413C164.754 37.7688 165.386 37.3606 165.919 36.8406C166.962 35.7837 167.546 34.3587 167.546 32.874C167.546 31.3894 166.962 29.9644 165.919 28.9075C165.396 28.3819 164.773 27.9674 164.086 27.6888C163.399 27.4102 162.662 27.2734 161.921 27.2863ZM164.229 35.3233C163.617 35.9152 162.799 36.2461 161.947 36.2461C161.096 36.2461 160.277 35.9152 159.665 35.3233C159.071 34.6308 158.768 33.7359 158.817 32.825C158.78 31.9426 159.091 31.0809 159.683 30.4249C160.287 29.826 161.104 29.4899 161.956 29.4899C162.807 29.4899 163.624 29.826 164.229 30.4249C164.782 31.1239 165.082 31.9888 165.082 32.8798C165.082 33.7709 164.782 34.6359 164.229 35.3348V35.3233Z" fill="#F9F9F9"/>
<path d="M177.188 28.7693C176.78 28.2925 176.271 27.9122 175.698 27.6558C175.126 27.3994 174.503 27.2734 173.876 27.2866C173.173 27.2686 172.476 27.4158 171.841 27.7164C171.206 28.017 170.65 28.4627 170.218 29.0175C169.348 30.1346 168.893 31.5195 168.931 32.9351C168.883 34.3774 169.377 35.7854 170.316 36.8813C170.744 37.3687 171.269 37.7605 171.858 38.0312C172.447 38.3019 173.087 38.4454 173.735 38.4525C174.383 38.4596 175.026 38.3299 175.621 38.0722C176.216 37.8144 176.75 37.4343 177.188 36.9564V38.4275C177.188 40.6123 176.297 41.7048 174.516 41.7048C174.096 41.7313 173.676 41.6559 173.291 41.4852C172.907 41.3144 172.569 41.0533 172.307 40.724C172.062 40.3653 171.903 39.9543 171.845 39.5238H169.399C169.44 40.1433 169.605 40.7482 169.883 41.303C170.161 41.8579 170.548 42.3514 171.02 42.7547C171.998 43.5432 173.227 43.9528 174.482 43.9086C175.218 43.9455 175.953 43.8169 176.633 43.5324C177.313 43.2478 177.92 42.8146 178.411 42.2644C178.919 41.6822 179.269 40.9787 179.426 40.2219C179.491 39.8903 179.535 39.555 179.559 39.218C179.594 38.843 179.611 38.4045 179.611 37.9083V27.6154H177.176L177.188 28.7693ZM176.547 35.2256C176.276 35.5432 175.94 35.7983 175.561 35.9732C175.182 36.1482 174.769 36.2387 174.352 36.2387C173.935 36.2387 173.522 36.1482 173.143 35.9732C172.764 35.7983 172.427 35.5432 172.157 35.2256C171.687 34.525 171.436 33.7006 171.436 32.8572C171.436 32.0137 171.687 31.1891 172.157 30.4886C172.412 30.1549 172.744 29.8874 173.125 29.7087C173.505 29.53 173.923 29.4454 174.343 29.4618C174.746 29.4503 175.146 29.5287 175.514 29.6914C175.882 29.8541 176.21 30.0969 176.472 30.4021C177.047 31.0862 177.341 31.9621 177.297 32.8542C177.337 33.7087 177.071 34.5496 176.547 35.2256Z" fill="#F9F9F9"/>
<path d="M183.442 21.084H181.007V38.11H183.442V21.084Z" fill="#F9F9F9"/>
<path d="M191.629 35.8089C191.186 36.1109 190.658 36.2626 190.123 36.2416C189.769 36.2553 189.417 36.195 189.088 36.0649C188.759 35.9347 188.461 35.7376 188.213 35.4858C187.692 34.9214 187.391 34.1882 187.365 33.4202H194.917V32.8433C195.005 31.362 194.524 29.9031 193.573 28.7642C193.105 28.2647 192.534 27.8734 191.899 27.6173C191.264 27.3612 190.581 27.2466 189.898 27.2815C189.208 27.2526 188.52 27.3739 187.881 27.6369C187.243 27.8999 186.669 28.2982 186.199 28.8046C185.245 29.928 184.751 31.3706 184.815 32.8433C184.746 34.3238 185.257 35.7728 186.24 36.882C186.728 37.3878 187.317 37.7843 187.97 38.0449C188.622 38.3055 189.323 38.4244 190.025 38.3937C190.539 38.3978 191.053 38.3396 191.554 38.2206C192.019 38.1003 192.461 37.9054 192.863 37.6436C193.289 37.3815 193.677 37.0631 194.017 36.6973C194.398 36.269 194.734 35.8032 195.021 35.3069L192.967 34.153C192.62 34.7784 192.168 35.3388 191.629 35.8089ZM187.873 30.6163C188.031 30.383 188.226 30.1765 188.45 30.0047C188.664 29.8381 188.903 29.7076 189.159 29.6182C189.426 29.5247 189.707 29.4777 189.99 29.4796C190.569 29.4417 191.141 29.6205 191.595 29.9809C192.049 30.3413 192.353 30.8577 192.448 31.4298H187.509C187.589 31.1418 187.711 30.8676 187.873 30.6163Z" fill="#F9F9F9"/>
<path d="M207.178 21.7009C206.136 21.4766 205.07 21.3797 204.004 21.4124H201.12V38.1154H203.664V31.3304H204.818C206.317 31.4107 207.792 30.9339 208.96 29.9919C209.469 29.5371 209.87 28.9751 210.136 28.3466C210.401 27.7181 210.524 27.0386 210.495 26.357C210.515 25.6982 210.398 25.0426 210.15 24.4317C209.903 23.8209 209.531 23.2681 209.059 22.8088C208.538 22.2824 207.89 21.9005 207.178 21.7009ZM204.61 28.9706H203.664V23.7145H204.495C206.883 23.7145 208.078 24.5762 208.078 26.2994C208.082 28.0803 206.926 28.9706 204.61 28.9706Z" fill="#F9F9F9"/>
<path d="M214.148 21.4121H211.713V38.1151H214.148V21.4121Z" fill="#F9F9F9"/>
<path d="M223.61 28.7977C223.195 28.3293 222.688 27.9528 222.119 27.6925C221.551 27.4321 220.934 27.2937 220.309 27.2861C219.638 27.2724 218.972 27.4068 218.359 27.6801C217.745 27.9534 217.2 28.3587 216.761 28.867C215.805 29.9548 215.3 31.3659 215.348 32.8133C215.295 34.2892 215.799 35.7311 216.761 36.8519C217.186 37.3342 217.707 37.7234 218.289 37.9953C218.872 38.2672 219.505 38.416 220.148 38.4322C220.79 38.4485 221.43 38.3319 222.025 38.0898C222.621 37.8477 223.16 37.4852 223.61 37.0251V38.1328H226.056V27.5919H223.61V28.7977ZM222.929 35.3173C222.656 35.6243 222.318 35.8669 221.94 36.0275C221.562 36.1881 221.153 36.2629 220.742 36.2463C220.343 36.2547 219.947 36.1723 219.584 36.0054C219.221 35.8385 218.901 35.5914 218.648 35.2826C218.085 34.5884 217.795 33.712 217.834 32.819C217.808 31.9494 218.104 31.1008 218.665 30.4363C218.923 30.1324 219.245 29.8894 219.608 29.7248C219.971 29.5602 220.367 29.478 220.765 29.4842C221.173 29.4715 221.579 29.5499 221.954 29.7135C222.328 29.8772 222.661 30.1221 222.929 30.4305C223.467 31.1312 223.759 31.9901 223.759 32.8738C223.759 33.7576 223.467 34.6166 222.929 35.3173Z" fill="#F9F9F9"/>
<path d="M236.308 27.5742L233.302 33.6323L230.077 27.5742H227.25L231.993 36.1535L227.879 43.8443H230.66L239.055 27.5742H236.308Z" fill="#F9F9F9"/>
<path d="M130.754 11.3557H134.25V11.6384C134.259 12.208 134.183 12.7757 134.025 13.3231C133.87 13.7946 133.619 14.2289 133.287 14.5983C132.916 15.0272 132.454 15.3685 131.935 15.598C131.417 15.8274 130.854 15.9391 130.287 15.9252C129.718 15.9328 129.153 15.8225 128.629 15.6011C128.104 15.3796 127.632 15.0518 127.24 14.6386C126.521 13.899 126.084 12.9312 126.003 11.9028C125.923 10.8745 126.205 9.85034 126.8 9.0079C127.395 8.16545 128.266 7.55785 129.262 7.29013C130.258 7.02241 131.317 7.11156 132.254 7.54213C132.877 7.86576 133.426 8.31331 133.87 8.85746L132.964 9.72867C132.686 9.30705 132.31 8.95986 131.867 8.71745C131.425 8.47504 130.93 8.34487 130.425 8.33826C130.005 8.32858 129.588 8.40613 129.2 8.56602C128.811 8.72592 128.46 8.96473 128.169 9.26722C127.866 9.56831 127.629 9.92862 127.472 10.3258C127.315 10.7229 127.242 11.1483 127.258 11.575C127.258 12.3997 127.579 13.1918 128.151 13.7855C128.723 14.3793 129.503 14.7285 130.327 14.7598C130.952 14.7614 131.555 14.5334 132.023 14.1194C132.258 13.9319 132.454 13.6998 132.598 13.4363C132.743 13.1729 132.834 12.8835 132.866 12.5847H130.754V11.3557Z" fill="#F9F9F9"/>
<path d="M140.239 8.49478H136.847V10.5084H140.141V11.7085H136.847V14.547H140.239V15.7472H135.583V7.27734H140.251L140.239 8.49478Z" fill="#F9F9F9"/>
<path d="M144.815 8.49504V15.7647H143.534V8.49504H141.589V7.29492H146.753V8.49504H144.815Z" fill="#F9F9F9"/>
<path d="M152.24 7.29492V15.7647H150.965V7.29492H152.24Z" fill="#F9F9F9"/>
<path d="M156.74 8.50081V15.7647H155.465V8.50081H153.515V7.29492H158.708V8.50081H156.74Z" fill="#F9F9F9"/>
<path d="M161.76 11.4952C161.754 10.92 161.867 10.3498 162.093 9.82058C162.318 9.29132 162.651 8.81439 163.069 8.42002C163.479 8.00599 163.969 7.6792 164.508 7.45909C165.047 7.23898 165.626 7.13011 166.208 7.1392C167.374 7.14526 168.49 7.61112 169.314 8.43538C170.138 9.25963 170.604 10.3758 170.61 11.5414C170.62 12.1202 170.51 12.6946 170.285 13.2281C170.061 13.7616 169.727 14.2423 169.306 14.6396C168.496 15.4346 167.414 15.8918 166.28 15.9186C165.145 15.9454 164.043 15.5397 163.196 14.7839C162.727 14.3777 162.354 13.8715 162.105 13.3025C161.857 12.7334 161.739 12.1159 161.76 11.4952ZM163.046 11.4952C163.034 11.9247 163.111 12.352 163.274 12.7496C163.437 13.1471 163.682 13.506 163.993 13.8031C164.275 14.0895 164.612 14.3167 164.984 14.4713C165.355 14.6259 165.754 14.7047 166.156 14.7032C166.574 14.7121 166.989 14.6353 167.376 14.4775C167.763 14.3197 168.114 14.0843 168.406 13.7857C168.991 13.1747 169.318 12.3615 169.318 11.5155C169.318 10.6696 168.991 9.85622 168.406 9.24517C167.815 8.65433 167.013 8.32241 166.176 8.32241C165.34 8.32241 164.538 8.65433 163.946 9.24517C163.649 9.54024 163.416 9.89322 163.261 10.2823C163.106 10.6714 163.033 11.0882 163.046 11.5068V11.4952Z" fill="#F9F9F9"/>
<path d="M176.83 13.1798V7.29492H178.105V15.7647H176.83L172.941 9.83361V15.7647H171.666V7.29492H172.941L176.83 13.1798Z" fill="#F9F9F9"/>
<rect x="124" y="1" width="120" height="20" fill="black"/>
<path d="M131.436 16H129.614L129.626 14.834H131.436C131.964 14.834 132.405 14.7188 132.761 14.4883C133.12 14.2578 133.389 13.9277 133.569 13.498C133.753 13.0684 133.845 12.5566 133.845 11.9629V11.5C133.845 11.0391 133.792 10.6309 133.686 10.2754C133.585 9.91992 133.432 9.62109 133.229 9.37891C133.03 9.13672 132.784 8.95312 132.491 8.82812C132.202 8.70312 131.868 8.64062 131.489 8.64062H129.579V7.46875H131.489C132.055 7.46875 132.573 7.56445 133.042 7.75586C133.511 7.94336 133.915 8.21484 134.255 8.57031C134.598 8.92578 134.862 9.35156 135.046 9.84766C135.229 10.3438 135.321 10.8984 135.321 11.5117V11.9629C135.321 12.5762 135.229 13.1309 135.046 13.627C134.862 14.123 134.598 14.5488 134.255 14.9043C133.911 15.2559 133.501 15.5273 133.024 15.7188C132.552 15.9062 132.022 16 131.436 16ZM130.429 7.46875V16H128.958V7.46875H130.429ZM141.782 14.834V16H137.252V14.834H141.782ZM137.668 7.46875V16H136.198V7.46875H137.668ZM141.19 11.0312V12.1797H137.252V11.0312H141.19ZM141.752 7.46875V8.64062H137.252V7.46875H141.752ZM146.871 13.8027C146.871 13.627 146.844 13.4707 146.789 13.334C146.738 13.1973 146.646 13.0723 146.514 12.959C146.381 12.8457 146.193 12.7363 145.951 12.6309C145.713 12.5215 145.408 12.4102 145.037 12.2969C144.631 12.1719 144.256 12.0332 143.912 11.8809C143.572 11.7246 143.275 11.5449 143.021 11.3418C142.768 11.1348 142.57 10.8984 142.43 10.6328C142.289 10.3633 142.219 10.0527 142.219 9.70117C142.219 9.35352 142.291 9.03711 142.436 8.75195C142.584 8.4668 142.793 8.2207 143.063 8.01367C143.336 7.80273 143.658 7.64062 144.029 7.52734C144.4 7.41016 144.811 7.35156 145.26 7.35156C145.893 7.35156 146.438 7.46875 146.895 7.70312C147.355 7.9375 147.709 8.25195 147.955 8.64648C148.205 9.04102 148.33 9.47656 148.33 9.95312H146.871C146.871 9.67188 146.811 9.42383 146.689 9.20898C146.572 8.99023 146.393 8.81836 146.15 8.69336C145.912 8.56836 145.609 8.50586 145.242 8.50586C144.895 8.50586 144.605 8.55859 144.375 8.66406C144.145 8.76953 143.973 8.91211 143.859 9.0918C143.746 9.27148 143.689 9.47461 143.689 9.70117C143.689 9.86133 143.727 10.0078 143.801 10.1406C143.875 10.2695 143.988 10.3906 144.141 10.5039C144.293 10.6133 144.484 10.7168 144.715 10.8145C144.945 10.9121 145.217 11.0059 145.529 11.0957C146.002 11.2363 146.414 11.3926 146.766 11.5645C147.117 11.7324 147.41 11.9238 147.645 12.1387C147.879 12.3535 148.055 12.5977 148.172 12.8711C148.289 13.1406 148.348 13.4473 148.348 13.791C148.348 14.1504 148.275 14.4746 148.131 14.7637C147.986 15.0488 147.779 15.293 147.51 15.4961C147.244 15.6953 146.924 15.8496 146.549 15.959C146.178 16.0645 145.764 16.1172 145.307 16.1172C144.896 16.1172 144.492 16.0625 144.094 15.9531C143.699 15.8438 143.34 15.6777 143.016 15.4551C142.691 15.2285 142.434 14.9473 142.242 14.6113C142.051 14.2715 141.955 13.875 141.955 13.4219H143.426C143.426 13.6992 143.473 13.9355 143.566 14.1309C143.664 14.3262 143.799 14.4863 143.971 14.6113C144.143 14.7324 144.342 14.8223 144.568 14.8809C144.799 14.9395 145.045 14.9688 145.307 14.9688C145.65 14.9688 145.938 14.9199 146.168 14.8223C146.402 14.7246 146.578 14.5879 146.695 14.4121C146.813 14.2363 146.871 14.0332 146.871 13.8027ZM154.088 13.2227H155.552C155.505 13.7812 155.349 14.2793 155.084 14.7168C154.818 15.1504 154.445 15.4922 153.964 15.7422C153.484 15.9922 152.9 16.1172 152.213 16.1172C151.685 16.1172 151.211 16.0234 150.789 15.8359C150.367 15.6445 150.005 15.375 149.705 15.0273C149.404 14.6758 149.173 14.252 149.013 13.7559C148.857 13.2598 148.779 12.7051 148.779 12.0918V11.3828C148.779 10.7695 148.859 10.2148 149.019 9.71875C149.183 9.22266 149.418 8.79883 149.722 8.44727C150.027 8.0918 150.392 7.82031 150.818 7.63281C151.248 7.44531 151.73 7.35156 152.265 7.35156C152.945 7.35156 153.519 7.47656 153.988 7.72656C154.457 7.97656 154.82 8.32227 155.078 8.76367C155.339 9.20508 155.5 9.71094 155.558 10.2812H154.093C154.054 9.91406 153.968 9.59961 153.836 9.33789C153.707 9.07617 153.515 8.87695 153.261 8.74023C153.007 8.59961 152.675 8.5293 152.265 8.5293C151.929 8.5293 151.636 8.5918 151.386 8.7168C151.136 8.8418 150.927 9.02539 150.759 9.26758C150.591 9.50977 150.464 9.80859 150.379 10.1641C150.296 10.5156 150.255 10.918 150.255 11.3711V12.0918C150.255 12.5215 150.293 12.9121 150.367 13.2637C150.445 13.6113 150.562 13.9102 150.718 14.1602C150.879 14.4102 151.082 14.6035 151.328 14.7402C151.574 14.877 151.869 14.9453 152.213 14.9453C152.63 14.9453 152.968 14.8789 153.226 14.7461C153.488 14.6133 153.685 14.4199 153.818 14.166C153.955 13.9082 154.045 13.5938 154.088 13.2227ZM159.611 8.60547L157.062 16H155.521L158.732 7.46875H159.716L159.611 8.60547ZM161.743 16L159.189 8.60547L159.077 7.46875H160.068L163.29 16H161.743ZM161.62 12.8359V14.002H156.98V12.8359H161.62ZM163.645 7.46875H166.663C167.311 7.46875 167.864 7.56641 168.321 7.76172C168.778 7.95703 169.128 8.24609 169.37 8.62891C169.616 9.00781 169.739 9.47656 169.739 10.0352C169.739 10.4609 169.661 10.8359 169.505 11.1602C169.348 11.4844 169.128 11.7578 168.843 11.9805C168.557 12.1992 168.218 12.3691 167.823 12.4902L167.378 12.707H164.665L164.653 11.541H166.686C167.038 11.541 167.331 11.4785 167.565 11.3535C167.8 11.2285 167.975 11.0586 168.093 10.8438C168.214 10.625 168.274 10.3789 168.274 10.1055C168.274 9.80859 168.216 9.55078 168.098 9.33203C167.985 9.10938 167.809 8.93945 167.571 8.82227C167.333 8.70117 167.03 8.64062 166.663 8.64062H165.116V16H163.645V7.46875ZM168.514 16L166.511 12.168L168.052 12.1621L170.085 15.9238V16H168.514ZM177.155 11.6406V14.8984C177.034 15.0586 176.844 15.2344 176.586 15.4258C176.332 15.6133 175.995 15.7754 175.573 15.9121C175.151 16.0488 174.625 16.1172 173.996 16.1172C173.461 16.1172 172.971 16.0273 172.526 15.8477C172.08 15.6641 171.696 15.3965 171.371 15.0449C171.051 14.6934 170.803 14.2656 170.627 13.7617C170.452 13.2539 170.364 12.6758 170.364 12.0273V11.4355C170.364 10.791 170.444 10.2168 170.604 9.71289C170.768 9.20508 171.002 8.77539 171.307 8.42383C171.612 8.07227 171.979 7.80664 172.409 7.62695C172.842 7.44336 173.332 7.35156 173.879 7.35156C174.579 7.35156 175.157 7.46875 175.614 7.70312C176.075 7.93359 176.43 8.25391 176.68 8.66406C176.93 9.07422 177.088 9.54297 177.155 10.0703H175.713C175.666 9.77344 175.575 9.50781 175.438 9.27344C175.305 9.03906 175.114 8.85547 174.864 8.72266C174.618 8.58594 174.297 8.51758 173.903 8.51758C173.563 8.51758 173.264 8.58203 173.006 8.71094C172.748 8.83984 172.534 9.0293 172.362 9.2793C172.194 9.5293 172.067 9.83398 171.981 10.1934C171.895 10.5527 171.852 10.9629 171.852 11.4238V12.0273C171.852 12.4961 171.901 12.9121 171.998 13.2754C172.1 13.6387 172.245 13.9453 172.432 14.1953C172.623 14.4453 172.856 14.6348 173.129 14.7637C173.403 14.8887 173.711 14.9512 174.055 14.9512C174.391 14.9512 174.666 14.9238 174.881 14.8691C175.096 14.8105 175.266 14.7422 175.391 14.6641C175.52 14.582 175.62 14.5039 175.69 14.4297V12.7363H173.914V11.6406H177.155ZM181.506 8.60547L178.957 16H177.416L180.627 7.46875H181.611L181.506 8.60547ZM183.639 16L181.084 8.60547L180.973 7.46875H181.963L185.186 16H183.639ZM183.516 12.8359V14.002H178.875V12.8359H183.516ZM190.884 14.834V16H186.601V14.834H190.884ZM187.011 7.46875V16H185.541V7.46875H187.011ZM194.861 8.60547L192.312 16H190.771L193.982 7.46875H194.966L194.861 8.60547ZM196.993 16L194.439 8.60547L194.327 7.46875H195.318L198.54 16H196.993ZM196.87 12.8359V14.002H192.23V12.8359H196.87ZM209.256 14.834V16H204.727V14.834H209.256ZM205.143 7.46875V16H203.672V7.46875H205.143ZM208.664 11.0312V12.1797H204.727V11.0312H208.664ZM209.227 7.46875V8.64062H204.727V7.46875H209.227ZM216.625 7.46875V16H215.154L211.328 9.88867V16H209.857V7.46875H211.328L215.166 13.5918V7.46875H216.625Z" fill="white"/>
</svg>
